<svg aria-roledescription="er" role="graphics-document document" viewBox="0 0 684.4139404296875 1238" style="max-width: 684.414px; background-color: white;" xmlns:xlink="http://www.w3.org/1999/xlink" xmlns="http://www.w3.org/2000/svg" width="100%" id="my-svg"><style>#my-svg{font-family:"trebuchet ms",verdana,arial,sans-serif;font-size:16px;fill:#333;}#my-svg .error-icon{fill:#552222;}#my-svg .error-text{fill:#552222;stroke:#552222;}#my-svg .edge-thickness-normal{stroke-width:1px;}#my-svg .edge-thickness-thick{stroke-width:3.5px;}#my-svg .edge-pattern-solid{stroke-dasharray:0;}#my-svg .edge-thickness-invisible{stroke-width:0;fill:none;}#my-svg .edge-pattern-dashed{stroke-dasharray:3;}#my-svg .edge-pattern-dotted{stroke-dasharray:2;}#my-svg .marker{fill:#333333;stroke:#333333;}#my-svg .marker.cross{stroke:#333333;}#my-svg svg{font-family:"trebuchet ms",verdana,arial,sans-serif;font-size:16px;}#my-svg p{margin:0;}#my-svg .entityBox{fill:#ECECFF;stroke:#9370DB;}#my-svg .attributeBoxOdd{fill:#ffffff;stroke:#9370DB;}#my-svg .attributeBoxEven{fill:#f2f2f2;stroke:#9370DB;}#my-svg .relationshipLabelBox{fill:hsl(80, 100%, 96.2745098039%);opacity:0.7;background-color:hsl(80, 100%, 96.2745098039%);}#my-svg .relationshipLabelBox rect{opacity:0.5;}#my-svg .relationshipLine{stroke:#333333;}#my-svg .entityTitleText{text-anchor:middle;font-size:18px;fill:#333;}#my-svg #MD_PARENT_START{fill:#f5f5f5!important;stroke:#333333!important;stroke-width:1;}#my-svg #MD_PARENT_END{fill:#f5f5f5!important;stroke:#333333!important;stroke-width:1;}#my-svg :root{--mermaid-font-family:"trebuchet ms",verdana,arial,sans-serif;}</style><g/><defs><marker orient="auto" markerHeight="240" markerWidth="190" refY="7" refX="0" id="MD_PARENT_START"><path d="M 18,7 L9,13 L1,7 L9,1 Z"/></marker></defs><defs><marker orient="auto" markerHeight="28" markerWidth="20" refY="7" refX="19" id="MD_PARENT_END"><path d="M 18,7 L9,13 L1,7 L9,1 Z"/></marker></defs><defs><marker orient="auto" markerHeight="18" markerWidth="18" refY="9" refX="0" id="ONLY_ONE_START"><path d="M9,0 L9,18 M15,0 L15,18" fill="none" stroke="gray"/></marker></defs><defs><marker orient="auto" markerHeight="18" markerWidth="18" refY="9" refX="18" id="ONLY_ONE_END"><path d="M3,0 L3,18 M9,0 L9,18" fill="none" stroke="gray"/></marker></defs><defs><marker orient="auto" markerHeight="18" markerWidth="30" refY="9" refX="0" id="ZERO_OR_ONE_START"><circle r="6" cy="9" cx="21" fill="white" stroke="gray"/><path d="M9,0 L9,18" fill="none" stroke="gray"/></marker></defs><defs><marker orient="auto" markerHeight="18" markerWidth="30" refY="9" refX="30" id="ZERO_OR_ONE_END"><circle r="6" cy="9" cx="9" fill="white" stroke="gray"/><path d="M21,0 L21,18" fill="none" stroke="gray"/></marker></defs><defs><marker orient="auto" markerHeight="36" markerWidth="45" refY="18" refX="18" id="ONE_OR_MORE_START"><path d="M0,18 Q 18,0 36,18 Q 18,36 0,18 M42,9 L42,27" fill="none" stroke="gray"/></marker></defs><defs><marker orient="auto" markerHeight="36" markerWidth="45" refY="18" refX="27" id="ONE_OR_MORE_END"><path d="M3,9 L3,27 M9,18 Q27,0 45,18 Q27,36 9,18" fill="none" stroke="gray"/></marker></defs><defs><marker orient="auto" markerHeight="36" markerWidth="57" refY="18" refX="18" id="ZERO_OR_MORE_START"><circle r="6" cy="18" cx="48" fill="white" stroke="gray"/><path d="M0,18 Q18,0 36,18 Q18,36 0,18" fill="none" stroke="gray"/></marker></defs><defs><marker orient="auto" markerHeight="36" markerWidth="57" refY="18" refX="39" id="ZERO_OR_MORE_END"><circle r="6" cy="18" cx="9" fill="white" stroke="gray"/><path d="M21,18 Q39,0 57,18 Q39,36 21,18" fill="none" stroke="gray"/></marker></defs><path style="stroke: gray; fill: none;" marker-start="url(#ONLY_ONE_START)" marker-end="url(#ZERO_OR_ONE_END)" d="M486.09,86L486.09,94.333C486.09,102.667,486.09,119.333,486.09,136C486.09,152.667,486.09,169.333,486.09,177.667L486.09,186" class="er relationshipLine"/><path style="stroke: gray; fill: none;" marker-start="url(#ONLY_ONE_START)" marker-end="url(#ZERO_OR_MORE_END)" d="M486.09,337L486.09,345.333C486.09,353.667,486.09,370.333,486.09,387C486.09,403.667,486.09,420.333,486.09,428.667L486.09,437" class="er relationshipLine"/><path style="stroke: gray; fill: none;" marker-start="url(#ONLY_ONE_START)" marker-end="url(#ONE_OR_MORE_END)" d="M392.135,590L381.9,598.333C371.666,606.667,351.196,623.333,340.961,640C330.727,656.667,330.727,673.333,330.727,681.667L330.727,690" class="er relationshipLine"/><path style="stroke: gray; fill: none;" marker-start="url(#ONLY_ONE_START)" marker-end="url(#ZERO_OR_MORE_END)" d="M580.045,590L590.279,598.333C600.514,606.667,620.984,623.333,631.218,650.833C641.453,678.333,641.453,716.667,641.453,755C641.453,793.333,641.453,831.667,641.453,870.167C641.453,908.667,641.453,947.333,641.453,986C641.453,1024.667,641.453,1063.333,630.874,1091C620.296,1118.667,599.139,1135.333,588.56,1143.667L577.981,1152" class="er relationshipLine"/><path style="stroke: gray; fill: none;" marker-start="url(#ONLY_ONE_START)" marker-end="url(#ONLY_ONE_END)" d="M262.946,784.896L230.789,799.08C198.631,813.264,134.315,841.632,102.158,871.399C70,901.167,70,932.333,70,947.917L70,963.5" class="er relationshipLine"/><path style="stroke: gray; fill: none;" marker-start="url(#ONLY_ONE_START)" marker-end="url(#ZERO_OR_MORE_END)" d="M330.727,820L330.727,828.333C330.727,836.667,330.727,853.333,330.727,870C330.727,886.667,330.727,903.333,330.727,911.667L330.727,920" class="er relationshipLine"/><path style="stroke: gray; fill: none;" marker-start="url(#ONLY_ONE_START)" marker-end="url(#ZERO_OR_MORE_END)" d="M398.507,791.99L422.331,804.991C446.156,817.993,493.804,843.997,517.629,876.332C541.453,908.667,541.453,947.333,541.453,986C541.453,1024.667,541.453,1063.333,540.915,1091C540.376,1118.667,539.299,1135.333,538.761,1143.667L538.222,1152" class="er relationshipLine"/><path style="stroke: gray; fill: none;" marker-start="url(#ONLY_ONE_START)" marker-end="url(#ONLY_ONE_END)" d="M302.278,1052L298.686,1060.333C295.094,1068.667,287.91,1085.333,284.319,1103.75C280.727,1122.167,280.727,1142.333,280.727,1152.417L280.727,1162.5" class="er relationshipLine"/><path style="stroke: gray; fill: none;" marker-start="url(#ONLY_ONE_START)" marker-end="url(#ZERO_OR_MORE_END)" d="M362.226,1052L366.204,1060.333C370.181,1068.667,378.135,1085.333,398.779,1102.889C419.423,1120.444,452.757,1138.889,469.423,1148.111L486.09,1157.333" class="er relationshipLine"/><g transform="translate(436.08984375,20 )" id="entity-Container-bc34fb32-8a75-5b81-936b-92374bf40296"><rect height="66" width="100" y="0" x="0" class="er entityBox"/><text style="dominant-baseline: middle; text-anchor: middle; font-size: 12px;" transform="translate(50,12)" y="0" x="0" id="text-entity-Container-bc34fb32-8a75-5b81-936b-92374bf40296" class="er entityLabel">Container</text><rect height="21" width="39.9296875" y="24" x="0" class="er attributeBoxOdd"/><text style="dominant-baseline: middle; font-size: 10.2px;" transform="translate(5,34.5)" y="0" x="0" id="text-entity-Container-bc34fb32-8a75-5b81-936b-92374bf40296-attr-1-type" class="er entityLabel">string</text><rect height="21" width="60.0703125" y="24" x="39.9296875" class="er attributeBoxOdd"/><text style="dominant-baseline: middle; font-size: 10.2px;" transform="translate(44.9296875,34.5)" y="0" x="0" id="text-entity-Container-bc34fb32-8a75-5b81-936b-92374bf40296-attr-1-name" class="er entityLabel">iri</text><rect height="21" width="39.9296875" y="45" x="0" class="er attributeBoxEven"/><text style="dominant-baseline: middle; font-size: 10.2px;" transform="translate(5,55.5)" y="0" x="0" id="text-entity-Container-bc34fb32-8a75-5b81-936b-92374bf40296-attr-2-type" class="er entityLabel">string</text><rect height="21" width="60.0703125" y="45" x="39.9296875" class="er attributeBoxEven"/><text style="dominant-baseline: middle; font-size: 10.2px;" transform="translate(44.9296875,55.5)" y="0" x="0" id="text-entity-Container-bc34fb32-8a75-5b81-936b-92374bf40296-attr-2-name" class="er entityLabel">metadata</text></g><g transform="translate(416.55078125,186 )" id="entity-CellSummaryData-01877285-8b8e-5081-8d0c-af66f80061f2"><rect height="151" width="139.078125" y="0" x="0" class="er entityBox"/><text style="dominant-baseline: middle; text-anchor: middle; font-size: 12px;" transform="translate(69.5390625,12)" y="0" x="0" id="text-entity-CellSummaryData-01877285-8b8e-5081-8d0c-af66f80061f2" class="er entityLabel">CellSummaryData</text><rect height="21" width="49.8671875" y="24" x="0" class="er attributeBoxOdd"/><text style="dominant-baseline: middle; font-size: 10.2px;" transform="translate(5,34.5)" y="0" x="0" id="text-entity-CellSummaryData-01877285-8b8e-5081-8d0c-af66f80061f2-attr-1-type" class="er entityLabel">string</text><rect height="21" width="89.2109375" y="24" x="49.8671875" class="er attributeBoxOdd"/><text style="dominant-baseline: middle; font-size: 10.2px;" transform="translate(54.8671875,34.5)" y="0" x="0" id="text-entity-CellSummaryData-01877285-8b8e-5081-8d0c-af66f80061f2-attr-1-name" class="er entityLabel">donor</text><rect height="21" width="49.8671875" y="45" x="0" class="er attributeBoxEven"/><text style="dominant-baseline: middle; font-size: 10.2px;" transform="translate(5,55.5)" y="0" x="0" id="text-entity-CellSummaryData-01877285-8b8e-5081-8d0c-af66f80061f2-attr-2-type" class="er entityLabel">string</text><rect height="21" width="89.2109375" y="45" x="49.8671875" class="er attributeBoxEven"/><text style="dominant-baseline: middle; font-size: 10.2px;" transform="translate(54.8671875,55.5)" y="0" x="0" id="text-entity-CellSummaryData-01877285-8b8e-5081-8d0c-af66f80061f2-attr-2-name" class="er entityLabel">sample</text><rect height="21" width="49.8671875" y="66" x="0" class="er attributeBoxOdd"/><text style="dominant-baseline: middle; font-size: 10.2px;" transform="translate(5,76.5)" y="0" x="0" id="text-entity-CellSummaryData-01877285-8b8e-5081-8d0c-af66f80061f2-attr-3-type" class="er entityLabel">string</text><rect height="21" width="89.2109375" y="66" x="49.8671875" class="er attributeBoxOdd"/><text style="dominant-baseline: middle; font-size: 10.2px;" transform="translate(54.8671875,76.5)" y="0" x="0" id="text-entity-CellSummaryData-01877285-8b8e-5081-8d0c-af66f80061f2-attr-3-name" class="er entityLabel">dataset</text><rect height="22" width="49.8671875" y="87" x="0" class="er attributeBoxEven"/><text style="dominant-baseline: middle; font-size: 10.2px;" transform="translate(5,98)" y="0" x="0" id="text-entity-CellSummaryData-01877285-8b8e-5081-8d0c-af66f80061f2-attr-4-type" class="er entityLabel">string</text><rect height="22" width="89.2109375" y="87" x="49.8671875" class="er attributeBoxEven"/><text style="dominant-baseline: middle; font-size: 10.2px;" transform="translate(54.8671875,98)" y="0" x="0" id="text-entity-CellSummaryData-01877285-8b8e-5081-8d0c-af66f80061f2-attr-4-name" class="er entityLabel">spatial_entity</text><rect height="21" width="49.8671875" y="109" x="0" class="er attributeBoxOdd"/><text style="dominant-baseline: middle; font-size: 10.2px;" transform="translate(5,119.5)" y="0" x="0" id="text-entity-CellSummaryData-01877285-8b8e-5081-8d0c-af66f80061f2-attr-5-type" class="er entityLabel">string</text><rect height="21" width="89.2109375" y="109" x="49.8671875" class="er attributeBoxOdd"/><text style="dominant-baseline: middle; font-size: 10.2px;" transform="translate(54.8671875,119.5)" y="0" x="0" id="text-entity-CellSummaryData-01877285-8b8e-5081-8d0c-af66f80061f2-attr-5-name" class="er entityLabel">collision</text><rect height="21" width="49.8671875" y="130" x="0" class="er attributeBoxEven"/><text style="dominant-baseline: middle; font-size: 10.2px;" transform="translate(5,140.5)" y="0" x="0" id="text-entity-CellSummaryData-01877285-8b8e-5081-8d0c-af66f80061f2-attr-6-type" class="er entityLabel">string</text><rect height="21" width="89.2109375" y="130" x="49.8671875" class="er attributeBoxEven"/><text style="dominant-baseline: middle; font-size: 10.2px;" transform="translate(54.8671875,140.5)" y="0" x="0" id="text-entity-CellSummaryData-01877285-8b8e-5081-8d0c-af66f80061f2-attr-6-name" class="er entityLabel">corridor</text></g><g transform="translate(382.47906494140625,437 )" id="entity-CellSummary-8c926ae0-12f6-5efa-bf9c-bb558c567bb2"><rect height="153" width="207.2215576171875" y="0" x="0" class="er entityBox"/><text style="dominant-baseline: middle; text-anchor: middle; font-size: 12px;" transform="translate(103.61077880859375,12)" y="0" x="0" id="text-entity-CellSummary-8c926ae0-12f6-5efa-bf9c-bb558c567bb2" class="er entityLabel">CellSummary</text><rect height="22" width="76.8309326171875" y="24" x="0" class="er attributeBoxOdd"/><text style="dominant-baseline: middle; font-size: 10.2px;" transform="translate(5,35)" y="0" x="0" id="text-entity-CellSummary-8c926ae0-12f6-5efa-bf9c-bb558c567bb2-attr-1-type" class="er entityLabel">string</text><rect height="22" width="130.390625" y="24" x="76.8309326171875" class="er attributeBoxOdd"/><text style="dominant-baseline: middle; font-size: 10.2px;" transform="translate(81.8309326171875,35)" y="0" x="0" id="text-entity-CellSummary-8c926ae0-12f6-5efa-bf9c-bb558c567bb2-attr-1-name" class="er entityLabel">annotation_method</text><rect height="22" width="76.8309326171875" y="46" x="0" class="er attributeBoxEven"/><text style="dominant-baseline: middle; font-size: 10.2px;" transform="translate(5,57)" y="0" x="0" id="text-entity-CellSummary-8c926ae0-12f6-5efa-bf9c-bb558c567bb2-attr-2-type" class="er entityLabel">uriorcurieList</text><rect height="22" width="130.390625" y="46" x="76.8309326171875" class="er attributeBoxEven"/><text style="dominant-baseline: middle; font-size: 10.2px;" transform="translate(81.8309326171875,57)" y="0" x="0" id="text-entity-CellSummary-8c926ae0-12f6-5efa-bf9c-bb558c567bb2-attr-2-name" class="er entityLabel">aggregated_summaries</text><rect height="21" width="76.8309326171875" y="68" x="0" class="er attributeBoxOdd"/><text style="dominant-baseline: middle; font-size: 10.2px;" transform="translate(5,78.5)" y="0" x="0" id="text-entity-CellSummary-8c926ae0-12f6-5efa-bf9c-bb558c567bb2-attr-3-type" class="er entityLabel">string</text><rect height="21" width="130.390625" y="68" x="76.8309326171875" class="er attributeBoxOdd"/><text style="dominant-baseline: middle; font-size: 10.2px;" transform="translate(81.8309326171875,78.5)" y="0" x="0" id="text-entity-CellSummary-8c926ae0-12f6-5efa-bf9c-bb558c567bb2-attr-3-name" class="er entityLabel">modality</text><rect height="22" width="76.8309326171875" y="89" x="0" class="er attributeBoxEven"/><text style="dominant-baseline: middle; font-size: 10.2px;" transform="translate(5,100)" y="0" x="0" id="text-entity-CellSummary-8c926ae0-12f6-5efa-bf9c-bb558c567bb2-attr-4-type" class="er entityLabel">string</text><rect height="22" width="130.390625" y="89" x="76.8309326171875" class="er attributeBoxEven"/><text style="dominant-baseline: middle; font-size: 10.2px;" transform="translate(81.8309326171875,100)" y="0" x="0" id="text-entity-CellSummary-8c926ae0-12f6-5efa-bf9c-bb558c567bb2-attr-4-name" class="er entityLabel">donor_sex</text><rect height="21" width="76.8309326171875" y="111" x="0" class="er attributeBoxOdd"/><text style="dominant-baseline: middle; font-size: 10.2px;" transform="translate(5,121.5)" y="0" x="0" id="text-entity-CellSummary-8c926ae0-12f6-5efa-bf9c-bb558c567bb2-attr-5-type" class="er entityLabel">uriorcurie</text><rect height="21" width="130.390625" y="111" x="76.8309326171875" class="er attributeBoxOdd"/><text style="dominant-baseline: middle; font-size: 10.2px;" transform="translate(81.8309326171875,121.5)" y="0" x="0" id="text-entity-CellSummary-8c926ae0-12f6-5efa-bf9c-bb558c567bb2-attr-5-name" class="er entityLabel">id</text><rect height="21" width="76.8309326171875" y="132" x="0" class="er attributeBoxEven"/><text style="dominant-baseline: middle; font-size: 10.2px;" transform="translate(5,142.5)" y="0" x="0" id="text-entity-CellSummary-8c926ae0-12f6-5efa-bf9c-bb558c567bb2-attr-6-type" class="er entityLabel">string</text><rect height="21" width="130.390625" y="132" x="76.8309326171875" class="er attributeBoxEven"/><text style="dominant-baseline: middle; font-size: 10.2px;" transform="translate(81.8309326171875,142.5)" y="0" x="0" id="text-entity-CellSummary-8c926ae0-12f6-5efa-bf9c-bb558c567bb2-attr-6-name" class="er entityLabel">label</text></g><g transform="translate(486.08984375,1152 )" id="entity-Named-527792da-945b-57c2-aece-6a504f46f916"><rect height="66" width="100" y="0" x="0" class="er entityBox"/><text style="dominant-baseline: middle; text-anchor: middle; font-size: 12px;" transform="translate(50,12)" y="0" x="0" id="text-entity-Named-527792da-945b-57c2-aece-6a504f46f916" class="er entityLabel">Named</text><rect height="21" width="62.1953125" y="24" x="0" class="er attributeBoxOdd"/><text style="dominant-baseline: middle; font-size: 10.2px;" transform="translate(5,34.5)" y="0" x="0" id="text-entity-Named-527792da-945b-57c2-aece-6a504f46f916-attr-1-type" class="er entityLabel">uriorcurie</text><rect height="21" width="37.8046875" y="24" x="62.1953125" class="er attributeBoxOdd"/><text style="dominant-baseline: middle; font-size: 10.2px;" transform="translate(67.1953125,34.5)" y="0" x="0" id="text-entity-Named-527792da-945b-57c2-aece-6a504f46f916-attr-1-name" class="er entityLabel">id</text><rect height="21" width="62.1953125" y="45" x="0" class="er attributeBoxEven"/><text style="dominant-baseline: middle; font-size: 10.2px;" transform="translate(5,55.5)" y="0" x="0" id="text-entity-Named-527792da-945b-57c2-aece-6a504f46f916-attr-2-type" class="er entityLabel">string</text><rect height="21" width="37.8046875" y="45" x="62.1953125" class="er attributeBoxEven"/><text style="dominant-baseline: middle; font-size: 10.2px;" transform="translate(67.1953125,55.5)" y="0" x="0" id="text-entity-Named-527792da-945b-57c2-aece-6a504f46f916-attr-2-name" class="er entityLabel">label</text></g><g transform="translate(262.9462890625,690 )" id="entity-CellSummaryRow-721c8715-1698-50b5-bf9f-fa26e676b89e"><rect height="130" width="135.560546875" y="0" x="0" class="er entityBox"/><text style="dominant-baseline: middle; text-anchor: middle; font-size: 12px;" transform="translate(67.7802734375,12)" y="0" x="0" id="text-entity-CellSummaryRow-721c8715-1698-50b5-bf9f-fa26e676b89e" class="er entityLabel">CellSummaryRow</text><rect height="22" width="63.2958984375" y="24" x="0" class="er attributeBoxOdd"/><text style="dominant-baseline: middle; font-size: 10.2px;" transform="translate(5,35)" y="0" x="0" id="text-entity-CellSummaryRow-721c8715-1698-50b5-bf9f-fa26e676b89e-attr-1-type" class="er entityLabel">string</text><rect height="22" width="72.2646484375" y="24" x="63.2958984375" class="er attributeBoxOdd"/><text style="dominant-baseline: middle; font-size: 10.2px;" transform="translate(68.2958984375,35)" y="0" x="0" id="text-entity-CellSummaryRow-721c8715-1698-50b5-bf9f-fa26e676b89e-attr-1-name" class="er entityLabel">cell_label</text><rect height="21" width="63.2958984375" y="46" x="0" class="er attributeBoxEven"/><text style="dominant-baseline: middle; font-size: 10.2px;" transform="translate(5,56.5)" y="0" x="0" id="text-entity-CellSummaryRow-721c8715-1698-50b5-bf9f-fa26e676b89e-attr-2-type" class="er entityLabel">integer</text><rect height="21" width="72.2646484375" y="46" x="63.2958984375" class="er attributeBoxEven"/><text style="dominant-baseline: middle; font-size: 10.2px;" transform="translate(68.2958984375,56.5)" y="0" x="0" id="text-entity-CellSummaryRow-721c8715-1698-50b5-bf9f-fa26e676b89e-attr-2-name" class="er entityLabel">count</text><rect height="21" width="63.2958984375" y="67" x="0" class="er attributeBoxOdd"/><text style="dominant-baseline: middle; font-size: 10.2px;" transform="translate(5,77.5)" y="0" x="0" id="text-entity-CellSummaryRow-721c8715-1698-50b5-bf9f-fa26e676b89e-attr-3-type" class="er entityLabel">float</text><rect height="21" width="72.2646484375" y="67" x="63.2958984375" class="er attributeBoxOdd"/><text style="dominant-baseline: middle; font-size: 10.2px;" transform="translate(68.2958984375,77.5)" y="0" x="0" id="text-entity-CellSummaryRow-721c8715-1698-50b5-bf9f-fa26e676b89e-attr-3-name" class="er entityLabel">percentage</text><rect height="21" width="63.2958984375" y="88" x="0" class="er attributeBoxEven"/><text style="dominant-baseline: middle; font-size: 10.2px;" transform="translate(5,98.5)" y="0" x="0" id="text-entity-CellSummaryRow-721c8715-1698-50b5-bf9f-fa26e676b89e-attr-4-type" class="er entityLabel">uriorcurie</text><rect height="21" width="72.2646484375" y="88" x="63.2958984375" class="er attributeBoxEven"/><text style="dominant-baseline: middle; font-size: 10.2px;" transform="translate(68.2958984375,98.5)" y="0" x="0" id="text-entity-CellSummaryRow-721c8715-1698-50b5-bf9f-fa26e676b89e-attr-4-name" class="er entityLabel">id</text><rect height="21" width="63.2958984375" y="109" x="0" class="er attributeBoxOdd"/><text style="dominant-baseline: middle; font-size: 10.2px;" transform="translate(5,119.5)" y="0" x="0" id="text-entity-CellSummaryRow-721c8715-1698-50b5-bf9f-fa26e676b89e-attr-5-type" class="er entityLabel">string</text><rect height="21" width="72.2646484375" y="109" x="63.2958984375" class="er attributeBoxOdd"/><text style="dominant-baseline: middle; font-size: 10.2px;" transform="translate(68.2958984375,119.5)" y="0" x="0" id="text-entity-CellSummaryRow-721c8715-1698-50b5-bf9f-fa26e676b89e-attr-5-name" class="er entityLabel">label</text></g><g transform="translate(220,920 )" id="entity-GeneExpression-6cf021ab-2198-5a58-b397-34a8273c9d2a"><rect height="132" width="221.453125" y="0" x="0" class="er entityBox"/><text style="dominant-baseline: middle; text-anchor: middle; font-size: 12px;" transform="translate(110.7265625,12)" y="0" x="0" id="text-entity-GeneExpression-6cf021ab-2198-5a58-b397-34a8273c9d2a" class="er entityLabel">GeneExpression</text><rect height="22" width="59.03125" y="24" x="0" class="er attributeBoxOdd"/><text style="dominant-baseline: middle; font-size: 10.2px;" transform="translate(5,35)" y="0" x="0" id="text-entity-GeneExpression-6cf021ab-2198-5a58-b397-34a8273c9d2a-attr-1-type" class="er entityLabel">string</text><rect height="22" width="162.421875" y="24" x="59.03125" class="er attributeBoxOdd"/><text style="dominant-baseline: middle; font-size: 10.2px;" transform="translate(64.03125,35)" y="0" x="0" id="text-entity-GeneExpression-6cf021ab-2198-5a58-b397-34a8273c9d2a-attr-1-name" class="er entityLabel">gene_label</text><rect height="22" width="59.03125" y="46" x="0" class="er attributeBoxEven"/><text style="dominant-baseline: middle; font-size: 10.2px;" transform="translate(5,57)" y="0" x="0" id="text-entity-GeneExpression-6cf021ab-2198-5a58-b397-34a8273c9d2a-attr-2-type" class="er entityLabel">string</text><rect height="22" width="162.421875" y="46" x="59.03125" class="er attributeBoxEven"/><text style="dominant-baseline: middle; font-size: 10.2px;" transform="translate(64.03125,57)" y="0" x="0" id="text-entity-GeneExpression-6cf021ab-2198-5a58-b397-34a8273c9d2a-attr-2-name" class="er entityLabel">ensembl_id</text><rect height="22" width="59.03125" y="68" x="0" class="er attributeBoxOdd"/><text style="dominant-baseline: middle; font-size: 10.2px;" transform="translate(5,79)" y="0" x="0" id="text-entity-GeneExpression-6cf021ab-2198-5a58-b397-34a8273c9d2a-attr-3-type" class="er entityLabel">float</text><rect height="22" width="162.421875" y="68" x="59.03125" class="er attributeBoxOdd"/><text style="dominant-baseline: middle; font-size: 10.2px;" transform="translate(64.03125,79)" y="0" x="0" id="text-entity-GeneExpression-6cf021ab-2198-5a58-b397-34a8273c9d2a-attr-3-name" class="er entityLabel">mean_gene_expression_value</text><rect height="21" width="59.03125" y="90" x="0" class="er attributeBoxEven"/><text style="dominant-baseline: middle; font-size: 10.2px;" transform="translate(5,100.5)" y="0" x="0" id="text-entity-GeneExpression-6cf021ab-2198-5a58-b397-34a8273c9d2a-attr-4-type" class="er entityLabel">uriorcurie</text><rect height="21" width="162.421875" y="90" x="59.03125" class="er attributeBoxEven"/><text style="dominant-baseline: middle; font-size: 10.2px;" transform="translate(64.03125,100.5)" y="0" x="0" id="text-entity-GeneExpression-6cf021ab-2198-5a58-b397-34a8273c9d2a-attr-4-name" class="er entityLabel">id</text><rect height="21" width="59.03125" y="111" x="0" class="er attributeBoxOdd"/><text style="dominant-baseline: middle; font-size: 10.2px;" transform="translate(5,121.5)" y="0" x="0" id="text-entity-GeneExpression-6cf021ab-2198-5a58-b397-34a8273c9d2a-attr-5-type" class="er entityLabel">string</text><rect height="21" width="162.421875" y="111" x="59.03125" class="er attributeBoxOdd"/><text style="dominant-baseline: middle; font-size: 10.2px;" transform="translate(64.03125,121.5)" y="0" x="0" id="text-entity-GeneExpression-6cf021ab-2198-5a58-b397-34a8273c9d2a-attr-5-name" class="er entityLabel">label</text></g><g transform="translate(230.7265625,1162.5 )" id="entity-GeneID-e2956baa-3b8b-5243-bd06-e45a77e6815f"><rect height="45" width="100" y="0" x="0" class="er entityBox"/><text style="dominant-baseline: middle; text-anchor: middle; font-size: 12px;" transform="translate(50,12)" y="0" x="0" id="text-entity-GeneID-e2956baa-3b8b-5243-bd06-e45a77e6815f" class="er entityLabel">GeneID</text><rect height="21" width="69.859375" y="24" x="0" class="er attributeBoxOdd"/><text style="dominant-baseline: middle; font-size: 10.2px;" transform="translate(5,34.5)" y="0" x="0" id="text-entity-GeneID-e2956baa-3b8b-5243-bd06-e45a77e6815f-attr-1-type" class="er entityLabel">uriorcurie</text><rect height="21" width="30.140625" y="24" x="69.859375" class="er attributeBoxOdd"/><text style="dominant-baseline: middle; font-size: 10.2px;" transform="translate(74.859375,34.5)" y="0" x="0" id="text-entity-GeneID-e2956baa-3b8b-5243-bd06-e45a77e6815f-attr-1-name" class="er entityLabel">id</text></g><g transform="translate(20,963.5 )" id="entity-CellID-8f8a5318-88a3-5d90-ba07-ef131bf1b910"><rect height="45" width="100" y="0" x="0" class="er entityBox"/><text style="dominant-baseline: middle; text-anchor: middle; font-size: 12px;" transform="translate(50,12)" y="0" x="0" id="text-entity-CellID-8f8a5318-88a3-5d90-ba07-ef131bf1b910" class="er entityLabel">CellID</text><rect height="21" width="69.859375" y="24" x="0" class="er attributeBoxOdd"/><text style="dominant-baseline: middle; font-size: 10.2px;" transform="translate(5,34.5)" y="0" x="0" id="text-entity-CellID-8f8a5318-88a3-5d90-ba07-ef131bf1b910-attr-1-type" class="er entityLabel">uriorcurie</text><rect height="21" width="30.140625" y="24" x="69.859375" class="er attributeBoxOdd"/><text style="dominant-baseline: middle; font-size: 10.2px;" transform="translate(74.859375,34.5)" y="0" x="0" id="text-entity-CellID-8f8a5318-88a3-5d90-ba07-ef131bf1b910-attr-1-name" class="er entityLabel">id</text></g><rect height="14" width="27.03125" y="129" x="472.5743713378906" class="er relationshipLabelBox"/><text style="text-anchor: middle; dominant-baseline: middle; font-size: 12px;" y="136" x="486.0899963378906" id="rel1" class="er relationshipLabel">data</text><rect height="14" width="83.28125" y="380" x="444.4493713378906" class="er relationshipLabelBox"/><text style="text-anchor: middle; dominant-baseline: middle; font-size: 12px;" y="387" x="486.0899963378906" id="rel2" class="er relationshipLabel">cell_summary</text><rect height="14" width="90.703125" y="624.8296508789062" x="301.3861999511719" class="er relationshipLabelBox"/><text style="text-anchor: middle; dominant-baseline: middle; font-size: 12px;" y="631.8296508789062" x="346.7377624511719" id="rel3" class="er relationshipLabel">summary_rows</text><rect height="14" width="45.1484375" y="864.5914306640625" x="618.8787841796875" class="er relationshipLabelBox"/><text style="text-anchor: middle; dominant-baseline: middle; font-size: 12px;" y="871.5914306640625" x="641.4530029296875" id="rel4" class="er relationshipLabel">type_of</text><rect height="14" width="37.609375" y="840.1588134765625" x="116.26933288574219" class="er relationshipLabelBox"/><text style="text-anchor: middle; dominant-baseline: middle; font-size: 12px;" y="847.1588134765625" x="135.0740203857422" id="rel5" class="er relationshipLabel">cell_id</text><rect height="14" width="106.96875" y="863" x="277.24261474609375" class="er relationshipLabelBox"/><text style="text-anchor: middle; dominant-baseline: middle; font-size: 12px;" y="870" x="330.72698974609375" id="rel6" class="er relationshipLabel">gene_expressions</text><rect height="14" width="45.1484375" y="931.377197265625" x="517.1829833984375" class="er relationshipLabelBox"/><text style="text-anchor: middle; dominant-baseline: middle; font-size: 12px;" y="938.377197265625" x="539.7572021484375" id="rel7" class="er relationshipLabel">type_of</text><rect height="14" width="46.953125" y="1098.7454833984375" x="260.4688415527344" class="er relationshipLabelBox"/><text style="text-anchor: middle; dominant-baseline: middle; font-size: 12px;" y="1105.7454833984375" x="283.9454040527344" id="rel8" class="er relationshipLabel">gene_id</text><rect height="14" width="45.1484375" y="1107.9521484375" x="392.0099182128906" class="er relationshipLabelBox"/><text style="text-anchor: middle; dominant-baseline: middle; font-size: 12px;" y="1114.9521484375" x="414.5841369628906" id="rel9" class="er relationshipLabel">type_of</text></svg>