<svg aria-roledescription="er" role="graphics-document document" viewBox="-143.87967681884766 0 707.11962890625 1169" style="max-width: 707.12px; background-color: white;" xmlns:xlink="http://www.w3.org/1999/xlink" xmlns="http://www.w3.org/2000/svg" width="100%" id="my-svg"><style>#my-svg{font-family:"trebuchet ms",verdana,arial,sans-serif;font-size:16px;fill:#333;}#my-svg .error-icon{fill:#552222;}#my-svg .error-text{fill:#552222;stroke:#552222;}#my-svg .edge-thickness-normal{stroke-width:2px;}#my-svg .edge-thickness-thick{stroke-width:3.5px;}#my-svg .edge-pattern-solid{stroke-dasharray:0;}#my-svg .edge-pattern-dashed{stroke-dasharray:3;}#my-svg .edge-pattern-dotted{stroke-dasharray:2;}#my-svg .marker{fill:#333333;stroke:#333333;}#my-svg .marker.cross{stroke:#333333;}#my-svg svg{font-family:"trebuchet ms",verdana,arial,sans-serif;font-size:16px;}#my-svg .entityBox{fill:#ECECFF;stroke:#9370DB;}#my-svg .attributeBoxOdd{fill:#ffffff;stroke:#9370DB;}#my-svg .attributeBoxEven{fill:#f2f2f2;stroke:#9370DB;}#my-svg .relationshipLabelBox{fill:hsl(80, 100%, 96.2745098039%);opacity:0.7;background-color:hsl(80, 100%, 96.2745098039%);}#my-svg .relationshipLabelBox rect{opacity:0.5;}#my-svg .relationshipLine{stroke:#333333;}#my-svg .entityTitleText{text-anchor:middle;font-size:18px;fill:#333;}#my-svg #MD_PARENT_START{fill:#f5f5f5!important;stroke:#333333!important;stroke-width:1;}#my-svg #MD_PARENT_END{fill:#f5f5f5!important;stroke:#333333!important;stroke-width:1;}#my-svg :root{--mermaid-font-family:"trebuchet ms",verdana,arial,sans-serif;}</style><g/><defs><marker orient="auto" markerHeight="240" markerWidth="190" refY="7" refX="0" id="MD_PARENT_START"><path d="M 18,7 L9,13 L1,7 L9,1 Z"/></marker></defs><defs><marker orient="auto" markerHeight="28" markerWidth="20" refY="7" refX="19" id="MD_PARENT_END"><path d="M 18,7 L9,13 L1,7 L9,1 Z"/></marker></defs><defs><marker orient="auto" markerHeight="18" markerWidth="18" refY="9" refX="0" id="ONLY_ONE_START"><path d="M9,0 L9,18 M15,0 L15,18" fill="none" stroke="gray"/></marker></defs><defs><marker orient="auto" markerHeight="18" markerWidth="18" refY="9" refX="18" id="ONLY_ONE_END"><path d="M3,0 L3,18 M9,0 L9,18" fill="none" stroke="gray"/></marker></defs><defs><marker orient="auto" markerHeight="18" markerWidth="30" refY="9" refX="0" id="ZERO_OR_ONE_START"><circle r="6" cy="9" cx="21" fill="white" stroke="gray"/><path d="M9,0 L9,18" fill="none" stroke="gray"/></marker></defs><defs><marker orient="auto" markerHeight="18" markerWidth="30" refY="9" refX="30" id="ZERO_OR_ONE_END"><circle r="6" cy="9" cx="9" fill="white" stroke="gray"/><path d="M21,0 L21,18" fill="none" stroke="gray"/></marker></defs><defs><marker orient="auto" markerHeight="36" markerWidth="45" refY="18" refX="18" id="ONE_OR_MORE_START"><path d="M0,18 Q 18,0 36,18 Q 18,36 0,18 M42,9 L42,27" fill="none" stroke="gray"/></marker></defs><defs><marker orient="auto" markerHeight="36" markerWidth="45" refY="18" refX="27" id="ONE_OR_MORE_END"><path d="M3,9 L3,27 M9,18 Q27,0 45,18 Q27,36 9,18" fill="none" stroke="gray"/></marker></defs><defs><marker orient="auto" markerHeight="36" markerWidth="57" refY="18" refX="18" id="ZERO_OR_MORE_START"><circle r="6" cy="18" cx="48" fill="white" stroke="gray"/><path d="M0,18 Q18,0 36,18 Q18,36 0,18" fill="none" stroke="gray"/></marker></defs><defs><marker orient="auto" markerHeight="36" markerWidth="57" refY="18" refX="39" id="ZERO_OR_MORE_END"><circle r="6" cy="18" cx="9" fill="white" stroke="gray"/><path d="M21,18 Q39,0 57,18 Q39,36 21,18" fill="none" stroke="gray"/></marker></defs><path style="stroke: gray; fill: none;" marker-start="url(#ONLY_ONE_START)" marker-end="url(#ZERO_OR_ONE_END)" d="M201.008,65L219.067,73.333C237.126,81.667,273.245,98.333,291.304,115C309.363,131.667,309.363,148.333,309.363,156.667L309.363,165" class="er relationshipLine"/><path style="stroke: gray; fill: none;" marker-start="url(#ONLY_ONE_START)" marker-end="url(#ZERO_OR_ONE_END)" d="M132.33,65L124.954,73.333C117.577,81.667,102.823,98.333,95.446,126.5C88.069,154.667,88.069,194.333,88.069,214.167L88.069,234" class="er relationshipLine"/><path style="stroke: gray; fill: none;" marker-start="url(#ONLY_ONE_START)" marker-end="url(#ZERO_OR_MORE_END)" d="M76.935,309L71.046,328.833C65.157,348.667,53.379,388.333,47.49,429C41.601,469.667,41.601,511.333,41.601,553C41.601,594.667,41.601,636.333,44.934,665.5C48.267,694.667,54.934,711.333,58.267,719.667L61.601,728" class="er relationshipLine"/><path style="stroke: gray; fill: none;" marker-start="url(#ONLY_ONE_START)" marker-end="url(#ZERO_OR_MORE_END)" d="M139.086,302.518L173.483,323.432C207.881,344.345,276.676,386.173,311.073,415.42C345.47,444.667,345.47,461.333,345.47,469.667L345.47,478" class="er relationshipLine"/><path style="stroke: gray; fill: none;" marker-start="url(#ONLY_ONE_START)" marker-end="url(#ZERO_OR_MORE_END)" d="M44.395,309L21.296,328.833C-1.803,348.667,-48.002,388.333,-71.101,429C-94.2,469.667,-94.2,511.333,-94.2,553C-94.2,594.667,-94.2,636.333,-94.2,678C-94.2,719.667,-94.2,761.333,-94.2,803C-94.2,844.667,-94.2,886.333,-65.915,922.764C-37.63,959.195,18.94,990.389,47.225,1005.986L75.51,1021.584" class="er relationshipLine"/><path style="stroke: gray; fill: none;" marker-start="url(#ONLY_ONE_START)" marker-end="url(#ZERO_OR_MORE_END)" d="M417.071,515.076L428.738,508.897C440.405,502.717,463.738,490.359,478.321,484.179C492.905,478,498.738,478,504.571,490.5C510.405,503,516.238,528,516.238,553C516.238,578,510.405,603,504.571,615.5C498.738,628,492.905,628,478.321,621.821C463.738,615.641,440.405,603.283,428.738,597.103L417.071,590.924" class="er relationshipLine"/><path style="stroke: gray; fill: none;" marker-start="url(#ONLY_ONE_START)" marker-end="url(#ZERO_OR_MORE_END)" d="M273.87,606.252L257.792,618.21C241.713,630.168,209.557,654.084,187.759,674.375C165.961,694.667,154.521,711.333,148.801,719.667L143.081,728" class="er relationshipLine"/><path style="stroke: gray; fill: none;" marker-start="url(#ONLY_ONE_START)" marker-end="url(#ZERO_OR_MORE_END)" d="M394.832,628L400.316,636.333C405.801,644.667,416.77,661.333,422.255,686.75C427.739,712.167,427.739,746.333,427.739,763.417L427.739,780.5" class="er relationshipLine"/><path style="stroke: gray; fill: none;" marker-start="url(#ONLY_ONE_START)" marker-end="url(#ZERO_OR_MORE_END)" d="M427.739,825.5L427.739,842.583C427.739,859.667,427.739,893.833,394.372,927.285C361.005,960.737,294.271,993.474,260.903,1009.843L227.536,1026.211" class="er relationshipLine"/><path style="stroke: gray; fill: none;" marker-start="url(#ONLY_ONE_START)" marker-end="url(#ZERO_OR_MORE_END)" d="M163.202,765.076L174.868,758.897C186.535,752.717,209.868,740.359,224.452,734.179C239.035,728,244.868,728,250.702,740.5C256.535,753,262.368,778,262.368,803C262.368,828,256.535,853,250.702,865.5C244.868,878,239.035,878,224.452,871.821C209.868,865.641,186.535,853.283,174.868,847.103L163.202,840.924" class="er relationshipLine"/><g transform="translate(102.24789428710938,20 )" id="entity-Container-bc34fb32-8a75-5b81-936b-92374bf40296"><rect height="45" width="100" y="0" x="0" class="er entityBox"/><text style="dominant-baseline: middle; text-anchor: middle; font-size: 12px;" transform="translate(50,12)" y="0" x="0" id="text-entity-Container-bc34fb32-8a75-5b81-936b-92374bf40296" class="er entityLabel">Container</text><rect height="21" width="67.43675231933594" y="24" x="0" class="er attributeBoxOdd"/><text style="dominant-baseline: middle; font-size: 10.2px;" transform="translate(5,34.5)" y="0" x="0" id="text-entity-Container-bc34fb32-8a75-5b81-936b-92374bf40296-attr-1-type" class="er entityLabel">uriorcurie</text><rect height="21" width="32.56324768066406" y="24" x="67.43675231933594" class="er attributeBoxOdd"/><text style="dominant-baseline: middle; font-size: 10.2px;" transform="translate(72.43675231933594,34.5)" y="0" x="0" id="text-entity-Container-bc34fb32-8a75-5b81-936b-92374bf40296-attr-1-name" class="er entityLabel">iri</text></g><g transform="translate(37.052589416503906,234 )" id="entity-AsctbDataset-230acd95-c97c-5338-9537-4257f5f2eb0d"><rect height="75" width="102.033203125" y="0" x="0" class="er entityBox"/><text style="dominant-baseline: middle; text-anchor: middle; font-size: 12px;" transform="translate(51.0166015625,37.5)" y="0" x="0" id="text-entity-AsctbDataset-230acd95-c97c-5338-9537-4257f5f2eb0d" class="er entityLabel">AsctbDataset</text></g><g transform="translate(75.50969696044922,978 )" id="entity-Biomarker-1f39077e-8b93-589b-8787-5c1af5a7b3fe"><rect height="171" width="152.02645874023438" y="0" x="0" class="er entityBox"/><text style="dominant-baseline: middle; text-anchor: middle; font-size: 12px;" transform="translate(76.01322937011719,12)" y="0" x="0" id="text-entity-Biomarker-1f39077e-8b93-589b-8787-5c1af5a7b3fe" class="er entityLabel">Biomarker</text><rect height="21" width="52.795379638671875" y="24" x="0" class="er attributeBoxOdd"/><text style="dominant-baseline: middle; font-size: 10.2px;" transform="translate(5,34.5)" y="0" x="0" id="text-entity-Biomarker-1f39077e-8b93-589b-8787-5c1af5a7b3fe-attr-1-type" class="er entityLabel">string</text><rect height="21" width="99.2310791015625" y="24" x="52.795379638671875" class="er attributeBoxOdd"/><text style="dominant-baseline: middle; font-size: 10.2px;" transform="translate(57.795379638671875,34.5)" y="0" x="0" id="text-entity-Biomarker-1f39077e-8b93-589b-8787-5c1af5a7b3fe-attr-1-name" class="er entityLabel">ccf_biomarker_type</text><rect height="21" width="52.795379638671875" y="45" x="0" class="er attributeBoxEven"/><text style="dominant-baseline: middle; font-size: 10.2px;" transform="translate(5,55.5)" y="0" x="0" id="text-entity-Biomarker-1f39077e-8b93-589b-8787-5c1af5a7b3fe-attr-2-type" class="er entityLabel">uriorcurie</text><rect height="21" width="99.2310791015625" y="45" x="52.795379638671875" class="er attributeBoxEven"/><text style="dominant-baseline: middle; font-size: 10.2px;" transform="translate(57.795379638671875,55.5)" y="0" x="0" id="text-entity-Biomarker-1f39077e-8b93-589b-8787-5c1af5a7b3fe-attr-2-name" class="er entityLabel">id</text><rect height="21" width="52.795379638671875" y="66" x="0" class="er attributeBoxOdd"/><text style="dominant-baseline: middle; font-size: 10.2px;" transform="translate(5,76.5)" y="0" x="0" id="text-entity-Biomarker-1f39077e-8b93-589b-8787-5c1af5a7b3fe-attr-3-type" class="er entityLabel">string</text><rect height="21" width="99.2310791015625" y="66" x="52.795379638671875" class="er attributeBoxOdd"/><text style="dominant-baseline: middle; font-size: 10.2px;" transform="translate(57.795379638671875,76.5)" y="0" x="0" id="text-entity-Biomarker-1f39077e-8b93-589b-8787-5c1af5a7b3fe-attr-3-name" class="er entityLabel">conforms_to</text><rect height="21" width="52.795379638671875" y="87" x="0" class="er attributeBoxEven"/><text style="dominant-baseline: middle; font-size: 10.2px;" transform="translate(5,97.5)" y="0" x="0" id="text-entity-Biomarker-1f39077e-8b93-589b-8787-5c1af5a7b3fe-attr-4-type" class="er entityLabel">uriorcurie</text><rect height="21" width="99.2310791015625" y="87" x="52.795379638671875" class="er attributeBoxEven"/><text style="dominant-baseline: middle; font-size: 10.2px;" transform="translate(57.795379638671875,97.5)" y="0" x="0" id="text-entity-Biomarker-1f39077e-8b93-589b-8787-5c1af5a7b3fe-attr-4-name" class="er entityLabel">parent_class</text><rect height="21" width="52.795379638671875" y="108" x="0" class="er attributeBoxOdd"/><text style="dominant-baseline: middle; font-size: 10.2px;" transform="translate(5,118.5)" y="0" x="0" id="text-entity-Biomarker-1f39077e-8b93-589b-8787-5c1af5a7b3fe-attr-5-type" class="er entityLabel">string</text><rect height="21" width="99.2310791015625" y="108" x="52.795379638671875" class="er attributeBoxOdd"/><text style="dominant-baseline: middle; font-size: 10.2px;" transform="translate(57.795379638671875,118.5)" y="0" x="0" id="text-entity-Biomarker-1f39077e-8b93-589b-8787-5c1af5a7b3fe-attr-5-name" class="er entityLabel">ccf_pref_label</text><rect height="21" width="52.795379638671875" y="129" x="0" class="er attributeBoxEven"/><text style="dominant-baseline: middle; font-size: 10.2px;" transform="translate(5,139.5)" y="0" x="0" id="text-entity-Biomarker-1f39077e-8b93-589b-8787-5c1af5a7b3fe-attr-6-type" class="er entityLabel">string</text><rect height="21" width="99.2310791015625" y="129" x="52.795379638671875" class="er attributeBoxEven"/><text style="dominant-baseline: middle; font-size: 10.2px;" transform="translate(57.795379638671875,139.5)" y="0" x="0" id="text-entity-Biomarker-1f39077e-8b93-589b-8787-5c1af5a7b3fe-attr-6-name" class="er entityLabel">ccf_asctb_type</text><rect height="21" width="52.795379638671875" y="150" x="0" class="er attributeBoxOdd"/><text style="dominant-baseline: middle; font-size: 10.2px;" transform="translate(5,160.5)" y="0" x="0" id="text-entity-Biomarker-1f39077e-8b93-589b-8787-5c1af5a7b3fe-attr-7-type" class="er entityLabel">boolean</text><rect height="21" width="99.2310791015625" y="150" x="52.795379638671875" class="er attributeBoxOdd"/><text style="dominant-baseline: middle; font-size: 10.2px;" transform="translate(57.795379638671875,160.5)" y="0" x="0" id="text-entity-Biomarker-1f39077e-8b93-589b-8787-5c1af5a7b3fe-attr-7-name" class="er entityLabel">ccf_is_provisional</text></g><g transform="translate(273.8695983886719,478 )" id="entity-CellType-284b34d0-b0fc-5279-a0ad-3404612e5340"><rect height="150" width="143.20162963867188" y="0" x="0" class="er entityBox"/><text style="dominant-baseline: middle; text-anchor: middle; font-size: 12px;" transform="translate(71.60081481933594,12)" y="0" x="0" id="text-entity-CellType-284b34d0-b0fc-5279-a0ad-3404612e5340" class="er entityLabel">CellType</text><rect height="21" width="52.795379638671875" y="24" x="0" class="er attributeBoxOdd"/><text style="dominant-baseline: middle; font-size: 10.2px;" transform="translate(5,34.5)" y="0" x="0" id="text-entity-CellType-284b34d0-b0fc-5279-a0ad-3404612e5340-attr-1-type" class="er entityLabel">uriorcurie</text><rect height="21" width="90.40625" y="24" x="52.795379638671875" class="er attributeBoxOdd"/><text style="dominant-baseline: middle; font-size: 10.2px;" transform="translate(57.795379638671875,34.5)" y="0" x="0" id="text-entity-CellType-284b34d0-b0fc-5279-a0ad-3404612e5340-attr-1-name" class="er entityLabel">id</text><rect height="21" width="52.795379638671875" y="45" x="0" class="er attributeBoxEven"/><text style="dominant-baseline: middle; font-size: 10.2px;" transform="translate(5,55.5)" y="0" x="0" id="text-entity-CellType-284b34d0-b0fc-5279-a0ad-3404612e5340-attr-2-type" class="er entityLabel">string</text><rect height="21" width="90.40625" y="45" x="52.795379638671875" class="er attributeBoxEven"/><text style="dominant-baseline: middle; font-size: 10.2px;" transform="translate(57.795379638671875,55.5)" y="0" x="0" id="text-entity-CellType-284b34d0-b0fc-5279-a0ad-3404612e5340-attr-2-name" class="er entityLabel">conforms_to</text><rect height="21" width="52.795379638671875" y="66" x="0" class="er attributeBoxOdd"/><text style="dominant-baseline: middle; font-size: 10.2px;" transform="translate(5,76.5)" y="0" x="0" id="text-entity-CellType-284b34d0-b0fc-5279-a0ad-3404612e5340-attr-3-type" class="er entityLabel">uriorcurie</text><rect height="21" width="90.40625" y="66" x="52.795379638671875" class="er attributeBoxOdd"/><text style="dominant-baseline: middle; font-size: 10.2px;" transform="translate(57.795379638671875,76.5)" y="0" x="0" id="text-entity-CellType-284b34d0-b0fc-5279-a0ad-3404612e5340-attr-3-name" class="er entityLabel">parent_class</text><rect height="21" width="52.795379638671875" y="87" x="0" class="er attributeBoxEven"/><text style="dominant-baseline: middle; font-size: 10.2px;" transform="translate(5,97.5)" y="0" x="0" id="text-entity-CellType-284b34d0-b0fc-5279-a0ad-3404612e5340-attr-4-type" class="er entityLabel">string</text><rect height="21" width="90.40625" y="87" x="52.795379638671875" class="er attributeBoxEven"/><text style="dominant-baseline: middle; font-size: 10.2px;" transform="translate(57.795379638671875,97.5)" y="0" x="0" id="text-entity-CellType-284b34d0-b0fc-5279-a0ad-3404612e5340-attr-4-name" class="er entityLabel">ccf_pref_label</text><rect height="21" width="52.795379638671875" y="108" x="0" class="er attributeBoxOdd"/><text style="dominant-baseline: middle; font-size: 10.2px;" transform="translate(5,118.5)" y="0" x="0" id="text-entity-CellType-284b34d0-b0fc-5279-a0ad-3404612e5340-attr-5-type" class="er entityLabel">string</text><rect height="21" width="90.40625" y="108" x="52.795379638671875" class="er attributeBoxOdd"/><text style="dominant-baseline: middle; font-size: 10.2px;" transform="translate(57.795379638671875,118.5)" y="0" x="0" id="text-entity-CellType-284b34d0-b0fc-5279-a0ad-3404612e5340-attr-5-name" class="er entityLabel">ccf_asctb_type</text><rect height="21" width="52.795379638671875" y="129" x="0" class="er attributeBoxEven"/><text style="dominant-baseline: middle; font-size: 10.2px;" transform="translate(5,139.5)" y="0" x="0" id="text-entity-CellType-284b34d0-b0fc-5279-a0ad-3404612e5340-attr-6-type" class="er entityLabel">boolean</text><rect height="21" width="90.40625" y="129" x="52.795379638671875" class="er attributeBoxEven"/><text style="dominant-baseline: middle; font-size: 10.2px;" transform="translate(57.795379638671875,139.5)" y="0" x="0" id="text-entity-CellType-284b34d0-b0fc-5279-a0ad-3404612e5340-attr-6-name" class="er entityLabel">ccf_is_provisional</text></g><g transform="translate(373.2016296386719,780.5 )" id="entity-BiomarkerSet-0521ef24-c2b8-5690-9f1d-14ceefcfdaef"><rect height="45" width="109.07513427734375" y="0" x="0" class="er entityBox"/><text style="dominant-baseline: middle; text-anchor: middle; font-size: 12px;" transform="translate(54.537567138671875,12)" y="0" x="0" id="text-entity-BiomarkerSet-0521ef24-c2b8-5690-9f1d-14ceefcfdaef" class="er entityLabel">BiomarkerSet</text><rect height="21" width="50.93450927734375" y="24" x="0" class="er attributeBoxOdd"/><text style="dominant-baseline: middle; font-size: 10.2px;" transform="translate(5,34.5)" y="0" x="0" id="text-entity-BiomarkerSet-0521ef24-c2b8-5690-9f1d-14ceefcfdaef-attr-1-type" class="er entityLabel">stringList</text><rect height="21" width="58.140625" y="24" x="50.93450927734375" class="er attributeBoxOdd"/><text style="dominant-baseline: middle; font-size: 10.2px;" transform="translate(55.93450927734375,34.5)" y="0" x="0" id="text-entity-BiomarkerSet-0521ef24-c2b8-5690-9f1d-14ceefcfdaef-attr-1-name" class="er entityLabel">references</text></g><g transform="translate(20,728 )" id="entity-AnatomicalStructure-3c5e0f00-f4ad-5ab6-89b3-e0fa067e5e05"><rect height="150" width="143.20162963867188" y="0" x="0" class="er entityBox"/><text style="dominant-baseline: middle; text-anchor: middle; font-size: 12px;" transform="translate(71.60081481933594,12)" y="0" x="0" id="text-entity-AnatomicalStructure-3c5e0f00-f4ad-5ab6-89b3-e0fa067e5e05" class="er entityLabel">AnatomicalStructure</text><rect height="21" width="52.795379638671875" y="24" x="0" class="er attributeBoxOdd"/><text style="dominant-baseline: middle; font-size: 10.2px;" transform="translate(5,34.5)" y="0" x="0" id="text-entity-AnatomicalStructure-3c5e0f00-f4ad-5ab6-89b3-e0fa067e5e05-attr-1-type" class="er entityLabel">uriorcurie</text><rect height="21" width="90.40625" y="24" x="52.795379638671875" class="er attributeBoxOdd"/><text style="dominant-baseline: middle; font-size: 10.2px;" transform="translate(57.795379638671875,34.5)" y="0" x="0" id="text-entity-AnatomicalStructure-3c5e0f00-f4ad-5ab6-89b3-e0fa067e5e05-attr-1-name" class="er entityLabel">id</text><rect height="21" width="52.795379638671875" y="45" x="0" class="er attributeBoxEven"/><text style="dominant-baseline: middle; font-size: 10.2px;" transform="translate(5,55.5)" y="0" x="0" id="text-entity-AnatomicalStructure-3c5e0f00-f4ad-5ab6-89b3-e0fa067e5e05-attr-2-type" class="er entityLabel">string</text><rect height="21" width="90.40625" y="45" x="52.795379638671875" class="er attributeBoxEven"/><text style="dominant-baseline: middle; font-size: 10.2px;" transform="translate(57.795379638671875,55.5)" y="0" x="0" id="text-entity-AnatomicalStructure-3c5e0f00-f4ad-5ab6-89b3-e0fa067e5e05-attr-2-name" class="er entityLabel">conforms_to</text><rect height="21" width="52.795379638671875" y="66" x="0" class="er attributeBoxOdd"/><text style="dominant-baseline: middle; font-size: 10.2px;" transform="translate(5,76.5)" y="0" x="0" id="text-entity-AnatomicalStructure-3c5e0f00-f4ad-5ab6-89b3-e0fa067e5e05-attr-3-type" class="er entityLabel">uriorcurie</text><rect height="21" width="90.40625" y="66" x="52.795379638671875" class="er attributeBoxOdd"/><text style="dominant-baseline: middle; font-size: 10.2px;" transform="translate(57.795379638671875,76.5)" y="0" x="0" id="text-entity-AnatomicalStructure-3c5e0f00-f4ad-5ab6-89b3-e0fa067e5e05-attr-3-name" class="er entityLabel">parent_class</text><rect height="21" width="52.795379638671875" y="87" x="0" class="er attributeBoxEven"/><text style="dominant-baseline: middle; font-size: 10.2px;" transform="translate(5,97.5)" y="0" x="0" id="text-entity-AnatomicalStructure-3c5e0f00-f4ad-5ab6-89b3-e0fa067e5e05-attr-4-type" class="er entityLabel">string</text><rect height="21" width="90.40625" y="87" x="52.795379638671875" class="er attributeBoxEven"/><text style="dominant-baseline: middle; font-size: 10.2px;" transform="translate(57.795379638671875,97.5)" y="0" x="0" id="text-entity-AnatomicalStructure-3c5e0f00-f4ad-5ab6-89b3-e0fa067e5e05-attr-4-name" class="er entityLabel">ccf_pref_label</text><rect height="21" width="52.795379638671875" y="108" x="0" class="er attributeBoxOdd"/><text style="dominant-baseline: middle; font-size: 10.2px;" transform="translate(5,118.5)" y="0" x="0" id="text-entity-AnatomicalStructure-3c5e0f00-f4ad-5ab6-89b3-e0fa067e5e05-attr-5-type" class="er entityLabel">string</text><rect height="21" width="90.40625" y="108" x="52.795379638671875" class="er attributeBoxOdd"/><text style="dominant-baseline: middle; font-size: 10.2px;" transform="translate(57.795379638671875,118.5)" y="0" x="0" id="text-entity-AnatomicalStructure-3c5e0f00-f4ad-5ab6-89b3-e0fa067e5e05-attr-5-name" class="er entityLabel">ccf_asctb_type</text><rect height="21" width="52.795379638671875" y="129" x="0" class="er attributeBoxEven"/><text style="dominant-baseline: middle; font-size: 10.2px;" transform="translate(5,139.5)" y="0" x="0" id="text-entity-AnatomicalStructure-3c5e0f00-f4ad-5ab6-89b3-e0fa067e5e05-attr-6-type" class="er entityLabel">boolean</text><rect height="21" width="90.40625" y="129" x="52.795379638671875" class="er attributeBoxEven"/><text style="dominant-baseline: middle; font-size: 10.2px;" transform="translate(57.795379638671875,139.5)" y="0" x="0" id="text-entity-AnatomicalStructure-3c5e0f00-f4ad-5ab6-89b3-e0fa067e5e05-attr-6-name" class="er entityLabel">ccf_is_provisional</text></g><g transform="translate(239.0857925415039,165 )" id="entity-AsctbMetadata-e2621e66-2e79-5158-bfea-7525c8e77930"><rect height="213" width="140.55511474609375" y="0" x="0" class="er entityBox"/><text style="dominant-baseline: middle; text-anchor: middle; font-size: 12px;" transform="translate(70.27755737304688,12)" y="0" x="0" id="text-entity-AsctbMetadata-e2621e66-2e79-5158-bfea-7525c8e77930" class="er entityLabel">AsctbMetadata</text><rect height="21" width="68.48406982421875" y="24" x="0" class="er attributeBoxOdd"/><text style="dominant-baseline: middle; font-size: 10.2px;" transform="translate(5,34.5)" y="0" x="0" id="text-entity-AsctbMetadata-e2621e66-2e79-5158-bfea-7525c8e77930-attr-1-type" class="er entityLabel">string</text><rect height="21" width="72.071044921875" y="24" x="68.48406982421875" class="er attributeBoxOdd"/><text style="dominant-baseline: middle; font-size: 10.2px;" transform="translate(73.48406982421875,34.5)" y="0" x="0" id="text-entity-AsctbMetadata-e2621e66-2e79-5158-bfea-7525c8e77930-attr-1-name" class="er entityLabel">title</text><rect height="21" width="68.48406982421875" y="45" x="0" class="er attributeBoxEven"/><text style="dominant-baseline: middle; font-size: 10.2px;" transform="translate(5,55.5)" y="0" x="0" id="text-entity-AsctbMetadata-e2621e66-2e79-5158-bfea-7525c8e77930-attr-2-type" class="er entityLabel">string</text><rect height="21" width="72.071044921875" y="45" x="68.48406982421875" class="er attributeBoxEven"/><text style="dominant-baseline: middle; font-size: 10.2px;" transform="translate(73.48406982421875,55.5)" y="0" x="0" id="text-entity-AsctbMetadata-e2621e66-2e79-5158-bfea-7525c8e77930-attr-2-name" class="er entityLabel">description</text><rect height="21" width="68.48406982421875" y="66" x="0" class="er attributeBoxOdd"/><text style="dominant-baseline: middle; font-size: 10.2px;" transform="translate(5,76.5)" y="0" x="0" id="text-entity-AsctbMetadata-e2621e66-2e79-5158-bfea-7525c8e77930-attr-3-type" class="er entityLabel">uriorcurieList</text><rect height="21" width="72.071044921875" y="66" x="68.48406982421875" class="er attributeBoxOdd"/><text style="dominant-baseline: middle; font-size: 10.2px;" transform="translate(73.48406982421875,76.5)" y="0" x="0" id="text-entity-AsctbMetadata-e2621e66-2e79-5158-bfea-7525c8e77930-attr-3-name" class="er entityLabel">created_by</text><rect height="21" width="68.48406982421875" y="87" x="0" class="er attributeBoxEven"/><text style="dominant-baseline: middle; font-size: 10.2px;" transform="translate(5,97.5)" y="0" x="0" id="text-entity-AsctbMetadata-e2621e66-2e79-5158-bfea-7525c8e77930-attr-4-type" class="er entityLabel">string</text><rect height="21" width="72.071044921875" y="87" x="68.48406982421875" class="er attributeBoxEven"/><text style="dominant-baseline: middle; font-size: 10.2px;" transform="translate(73.48406982421875,97.5)" y="0" x="0" id="text-entity-AsctbMetadata-e2621e66-2e79-5158-bfea-7525c8e77930-attr-4-name" class="er entityLabel">creation_date</text><rect height="21" width="68.48406982421875" y="108" x="0" class="er attributeBoxOdd"/><text style="dominant-baseline: middle; font-size: 10.2px;" transform="translate(5,118.5)" y="0" x="0" id="text-entity-AsctbMetadata-e2621e66-2e79-5158-bfea-7525c8e77930-attr-5-type" class="er entityLabel">string</text><rect height="21" width="72.071044921875" y="108" x="68.48406982421875" class="er attributeBoxOdd"/><text style="dominant-baseline: middle; font-size: 10.2px;" transform="translate(73.48406982421875,118.5)" y="0" x="0" id="text-entity-AsctbMetadata-e2621e66-2e79-5158-bfea-7525c8e77930-attr-5-name" class="er entityLabel">version</text><rect height="21" width="68.48406982421875" y="129" x="0" class="er attributeBoxEven"/><text style="dominant-baseline: middle; font-size: 10.2px;" transform="translate(5,139.5)" y="0" x="0" id="text-entity-AsctbMetadata-e2621e66-2e79-5158-bfea-7525c8e77930-attr-6-type" class="er entityLabel">string</text><rect height="21" width="72.071044921875" y="129" x="68.48406982421875" class="er attributeBoxEven"/><text style="dominant-baseline: middle; font-size: 10.2px;" transform="translate(73.48406982421875,139.5)" y="0" x="0" id="text-entity-AsctbMetadata-e2621e66-2e79-5158-bfea-7525c8e77930-attr-6-name" class="er entityLabel">license</text><rect height="21" width="68.48406982421875" y="150" x="0" class="er attributeBoxOdd"/><text style="dominant-baseline: middle; font-size: 10.2px;" transform="translate(5,160.5)" y="0" x="0" id="text-entity-AsctbMetadata-e2621e66-2e79-5158-bfea-7525c8e77930-attr-7-type" class="er entityLabel">string</text><rect height="21" width="72.071044921875" y="150" x="68.48406982421875" class="er attributeBoxOdd"/><text style="dominant-baseline: middle; font-size: 10.2px;" transform="translate(73.48406982421875,160.5)" y="0" x="0" id="text-entity-AsctbMetadata-e2621e66-2e79-5158-bfea-7525c8e77930-attr-7-name" class="er entityLabel">publisher</text><rect height="21" width="68.48406982421875" y="171" x="0" class="er attributeBoxEven"/><text style="dominant-baseline: middle; font-size: 10.2px;" transform="translate(5,181.5)" y="0" x="0" id="text-entity-AsctbMetadata-e2621e66-2e79-5158-bfea-7525c8e77930-attr-8-type" class="er entityLabel">uriorcurie</text><rect height="21" width="72.071044921875" y="171" x="68.48406982421875" class="er attributeBoxEven"/><text style="dominant-baseline: middle; font-size: 10.2px;" transform="translate(73.48406982421875,181.5)" y="0" x="0" id="text-entity-AsctbMetadata-e2621e66-2e79-5158-bfea-7525c8e77930-attr-8-name" class="er entityLabel">see_also</text><rect height="21" width="68.48406982421875" y="192" x="0" class="er attributeBoxOdd"/><text style="dominant-baseline: middle; font-size: 10.2px;" transform="translate(5,202.5)" y="0" x="0" id="text-entity-AsctbMetadata-e2621e66-2e79-5158-bfea-7525c8e77930-attr-9-type" class="er entityLabel">uriorcurie</text><rect height="21" width="72.071044921875" y="192" x="68.48406982421875" class="er attributeBoxOdd"/><text style="dominant-baseline: middle; font-size: 10.2px;" transform="translate(73.48406982421875,202.5)" y="0" x="0" id="text-entity-AsctbMetadata-e2621e66-2e79-5158-bfea-7525c8e77930-attr-9-name" class="er entityLabel">derived_from</text></g><rect height="14" width="50.359375" y="93.6969223022461" x="246.7271728515625" class="er relationshipLabelBox"/><text style="text-anchor: middle; dominant-baseline: middle; font-size: 12px;" y="100.6969223022461" x="271.9068603515625" id="rel1" class="er relationshipLabel">metadata</text><rect height="14" width="23.681640625" y="136.87840270996094" x="80.10394287109375" class="er relationshipLabelBox"/><text style="text-anchor: middle; dominant-baseline: middle; font-size: 12px;" y="143.87840270996094" x="91.94476318359375" id="rel2" class="er relationshipLabel">data</text><rect height="14" width="117.390625" y="510.80572509765625" x="-16.962547302246094" class="er relationshipLabelBox"/><text style="text-anchor: middle; dominant-baseline: middle; font-size: 12px;" y="517.8057250976562" x="41.732765197753906" id="rel3" class="er relationshipLabel">anatomical_structures</text><rect height="14" width="53.375" y="369.73883056640625" x="231.46463012695312" class="er relationshipLabelBox"/><text style="text-anchor: middle; dominant-baseline: middle; font-size: 12px;" y="376.73883056640625" x="258.1521301269531" id="rel4" class="er relationshipLabel">cell_types</text><rect height="14" width="59.359375" y="673.09912109375" x="-123.87967681884766" class="er relationshipLabelBox"/><text style="text-anchor: middle; dominant-baseline: middle; font-size: 12px;" y="680.09912109375" x="-94.19998931884766" id="rel5" class="er relationshipLabel">biomarkers</text><rect height="14" width="53.681640625" y="546" x="489.39715576171875" class="er relationshipLabelBox"/><text style="text-anchor: middle; dominant-baseline: middle; font-size: 12px;" y="553" x="516.2379760742188" id="rel6" class="er relationshipLabel">ccf_ct_isa</text><rect height="14" width="76.71875" y="654.1844482421875" x="164.34373474121094" class="er relationshipLabelBox"/><text style="text-anchor: middle; dominant-baseline: middle; font-size: 12px;" y="661.1844482421875" x="202.70310974121094" id="rel7" class="er relationshipLabel">ccf_located_in</text><rect height="14" width="124.7265625" y="693.9271850585938" x="362.3180847167969" class="er relationshipLabelBox"/><text style="text-anchor: middle; dominant-baseline: middle; font-size: 12px;" y="700.9271850585938" x="424.6813659667969" id="rel8" class="er relationshipLabel">ccf_has_biomarker_set</text><rect height="14" width="50.015625" y="946.5969848632812" x="336.8175964355469" class="er relationshipLabelBox"/><text style="text-anchor: middle; dominant-baseline: middle; font-size: 12px;" y="953.5969848632812" x="361.8254089355469" id="rel9" class="er relationshipLabel">members</text><rect height="14" width="60.033203125" y="796" x="232.35140991210938" class="er relationshipLabelBox"/><text style="text-anchor: middle; dominant-baseline: middle; font-size: 12px;" y="803" x="262.3680114746094" id="rel10" class="er relationshipLabel">ccf_part_of</text></svg>