<svg aria-roledescription="er" role="graphics-document document" viewBox="-39.132530212402344 0 1106.427490234375 1782" style="max-width: 1106.43px; background-color: white;" xmlns:xlink="http://www.w3.org/1999/xlink" xmlns="http://www.w3.org/2000/svg" width="100%" id="my-svg"><style>#my-svg{font-family:"trebuchet ms",verdana,arial,sans-serif;font-size:16px;fill:#333;}#my-svg .error-icon{fill:#552222;}#my-svg .error-text{fill:#552222;stroke:#552222;}#my-svg .edge-thickness-normal{stroke-width:1px;}#my-svg .edge-thickness-thick{stroke-width:3.5px;}#my-svg .edge-pattern-solid{stroke-dasharray:0;}#my-svg .edge-thickness-invisible{stroke-width:0;fill:none;}#my-svg .edge-pattern-dashed{stroke-dasharray:3;}#my-svg .edge-pattern-dotted{stroke-dasharray:2;}#my-svg .marker{fill:#333333;stroke:#333333;}#my-svg .marker.cross{stroke:#333333;}#my-svg svg{font-family:"trebuchet ms",verdana,arial,sans-serif;font-size:16px;}#my-svg p{margin:0;}#my-svg .entityBox{fill:#ECECFF;stroke:#9370DB;}#my-svg .attributeBoxOdd{fill:#ffffff;stroke:#9370DB;}#my-svg .attributeBoxEven{fill:#f2f2f2;stroke:#9370DB;}#my-svg .relationshipLabelBox{fill:hsl(80, 100%, 96.2745098039%);opacity:0.7;background-color:hsl(80, 100%, 96.2745098039%);}#my-svg .relationshipLabelBox rect{opacity:0.5;}#my-svg .relationshipLine{stroke:#333333;}#my-svg .entityTitleText{text-anchor:middle;font-size:18px;fill:#333;}#my-svg #MD_PARENT_START{fill:#f5f5f5!important;stroke:#333333!important;stroke-width:1;}#my-svg #MD_PARENT_END{fill:#f5f5f5!important;stroke:#333333!important;stroke-width:1;}#my-svg :root{--mermaid-font-family:"trebuchet ms",verdana,arial,sans-serif;}</style><g/><defs><marker orient="auto" markerHeight="240" markerWidth="190" refY="7" refX="0" id="MD_PARENT_START"><path d="M 18,7 L9,13 L1,7 L9,1 Z"/></marker></defs><defs><marker orient="auto" markerHeight="28" markerWidth="20" refY="7" refX="19" id="MD_PARENT_END"><path d="M 18,7 L9,13 L1,7 L9,1 Z"/></marker></defs><defs><marker orient="auto" markerHeight="18" markerWidth="18" refY="9" refX="0" id="ONLY_ONE_START"><path d="M9,0 L9,18 M15,0 L15,18" fill="none" stroke="gray"/></marker></defs><defs><marker orient="auto" markerHeight="18" markerWidth="18" refY="9" refX="18" id="ONLY_ONE_END"><path d="M3,0 L3,18 M9,0 L9,18" fill="none" stroke="gray"/></marker></defs><defs><marker orient="auto" markerHeight="18" markerWidth="30" refY="9" refX="0" id="ZERO_OR_ONE_START"><circle r="6" cy="9" cx="21" fill="white" stroke="gray"/><path d="M9,0 L9,18" fill="none" stroke="gray"/></marker></defs><defs><marker orient="auto" markerHeight="18" markerWidth="30" refY="9" refX="30" id="ZERO_OR_ONE_END"><circle r="6" cy="9" cx="9" fill="white" stroke="gray"/><path d="M21,0 L21,18" fill="none" stroke="gray"/></marker></defs><defs><marker orient="auto" markerHeight="36" markerWidth="45" refY="18" refX="18" id="ONE_OR_MORE_START"><path d="M0,18 Q 18,0 36,18 Q 18,36 0,18 M42,9 L42,27" fill="none" stroke="gray"/></marker></defs><defs><marker orient="auto" markerHeight="36" markerWidth="45" refY="18" refX="27" id="ONE_OR_MORE_END"><path d="M3,9 L3,27 M9,18 Q27,0 45,18 Q27,36 9,18" fill="none" stroke="gray"/></marker></defs><defs><marker orient="auto" markerHeight="36" markerWidth="57" refY="18" refX="18" id="ZERO_OR_MORE_START"><circle r="6" cy="18" cx="48" fill="white" stroke="gray"/><path d="M0,18 Q18,0 36,18 Q18,36 0,18" fill="none" stroke="gray"/></marker></defs><defs><marker orient="auto" markerHeight="36" markerWidth="57" refY="18" refX="39" id="ZERO_OR_MORE_END"><circle r="6" cy="18" cx="9" fill="white" stroke="gray"/><path d="M21,18 Q39,0 57,18 Q39,36 21,18" fill="none" stroke="gray"/></marker></defs><path style="stroke: gray; fill: none;" marker-start="url(#ONLY_ONE_START)" marker-end="url(#ZERO_OR_ONE_END)" d="M243.416,65L229.757,73.333C216.098,81.667,188.781,98.333,175.122,115C161.463,131.667,161.463,148.333,161.463,156.667L161.463,165" class="er relationshipLine"/><path style="stroke: gray; fill: none;" marker-start="url(#ONLY_ONE_START)" marker-end="url(#ZERO_OR_ONE_END)" d="M317.175,65L330.834,73.333C344.492,81.667,371.81,98.333,385.469,126.833C399.128,155.333,399.128,195.667,399.128,215.833L399.128,236" class="er relationshipLine"/><path style="stroke: gray; fill: none;" marker-start="url(#ONLY_ONE_START)" marker-end="url(#ONE_OR_MORE_END)" d="M339.706,302.97L296.344,324.475C252.981,345.98,166.256,388.99,122.894,418.828C79.531,448.667,79.531,465.333,79.531,473.667L79.531,482" class="er relationshipLine"/><path style="stroke: gray; fill: none;" marker-start="url(#ONLY_ONE_START)" marker-end="url(#ONE_OR_MORE_END)" d="M458.55,297.3L514.6,319.75C570.65,342.2,682.751,387.1,738.801,427.05C794.851,467,794.851,502,794.851,537C794.851,572,794.851,607,791.725,632.833C788.599,658.667,782.347,675.333,779.221,683.667L776.095,692" class="er relationshipLine"/><path style="stroke: gray; fill: none;" marker-start="url(#ONLY_ONE_START)" marker-end="url(#ZERO_OR_MORE_END)" d="M665.639,810.425L584.124,832.021C502.609,853.617,339.58,896.808,258.065,932.238C176.55,967.667,176.55,995.333,176.55,1009.167L176.55,1023" class="er relationshipLine"/><path style="stroke: gray; fill: none;" marker-start="url(#ONLY_ONE_START)" marker-end="url(#ZERO_OR_ONE_END)" d="M665.639,826.112L626.001,845.093C586.364,864.075,507.09,902.037,467.453,929.352C427.816,956.667,427.816,973.333,427.816,981.667L427.816,990" class="er relationshipLine"/><path style="stroke: gray; fill: none;" marker-start="url(#ONLY_ONE_START)" marker-end="url(#ZERO_OR_MORE_END)" d="M684.96,890L680.414,898.333C675.869,906.667,666.778,923.333,662.232,952.833C657.687,982.333,657.687,1024.667,657.687,1067C657.687,1109.333,657.687,1151.667,657.687,1181.167C657.687,1210.667,657.687,1227.333,657.687,1235.667L657.687,1244" class="er relationshipLine"/><path style="stroke: gray; fill: none;" marker-start="url(#ONLY_ONE_START)" marker-end="url(#ONLY_ONE_END)" d="M665.639,731.281L647.369,716.401C629.1,701.521,592.562,671.76,504.799,641.567C417.036,611.373,278.049,580.746,208.556,565.432L139.063,550.118" class="er relationshipLine"/><path style="stroke: gray; fill: none;" marker-start="url(#ONLY_ONE_START)" marker-end="url(#ZERO_OR_MORE_END)" d="M800.788,890L805.993,898.333C811.197,906.667,821.606,923.333,826.81,952.833C832.015,982.333,832.015,1024.667,832.015,1067C832.015,1109.333,832.015,1151.667,832.015,1210.5C832.015,1269.333,832.015,1344.667,832.015,1420C832.015,1495.333,832.015,1570.667,792.428,1619.761C752.841,1668.855,673.666,1691.711,634.079,1703.139L594.492,1714.566" class="er relationshipLine"/><path style="stroke: gray; fill: none;" marker-start="url(#ONLY_ONE_START)" marker-end="url(#ONLY_ONE_END)" d="M20,574.024L1.783,585.353C-16.434,596.682,-52.868,619.341,54.739,653.306C162.345,687.27,413.992,732.54,539.815,755.175L665.639,777.81" class="er relationshipLine"/><path style="stroke: gray; fill: none;" marker-start="url(#ONLY_ONE_START)" marker-end="url(#ZERO_OR_MORE_END)" d="M43.476,592L38.013,600.333C32.55,608.667,21.624,625.333,16.161,658.5C10.699,691.667,10.699,741.333,10.699,791C10.699,840.667,10.699,890.333,10.699,936.333C10.699,982.333,10.699,1024.667,10.699,1067C10.699,1109.333,10.699,1151.667,10.699,1210.5C10.699,1269.333,10.699,1344.667,10.699,1420C10.699,1495.333,10.699,1570.667,91.331,1620.871C171.963,1671.075,333.227,1696.15,413.86,1708.688L494.492,1721.225" class="er relationshipLine"/><path style="stroke: gray; fill: none;" marker-start="url(#ONLY_ONE_START)" marker-end="url(#ZERO_OR_ONE_END)" d="M732.015,1358.766L765.348,1331.305C798.682,1303.844,865.348,1248.922,898.682,1200.294C932.015,1151.667,932.015,1109.333,932.015,1067C932.015,1024.667,932.015,982.333,912.059,945.765C892.103,909.196,852.192,878.393,832.236,862.991L812.28,847.589" class="er relationshipLine"/><path style="stroke: gray; fill: none;" marker-start="url(#ONLY_ONE_START)" marker-end="url(#ONLY_ONE_END)" d="M732.015,1375.125L782.015,1344.937C832.015,1314.75,932.015,1254.375,982.015,1203.021C1032.015,1151.667,1032.015,1109.333,1032.015,1067C1032.015,1024.667,1032.015,982.333,995.393,942.547C958.77,902.76,885.525,865.519,848.903,846.899L812.28,828.279" class="er relationshipLine"/><path style="stroke: gray; fill: none;" marker-start="url(#ONLY_ONE_START)" marker-end="url(#ZERO_OR_MORE_END)" d="M657.687,1596L657.687,1604.333C657.687,1612.667,657.687,1629.333,646.322,1646C634.957,1662.667,612.227,1679.333,600.862,1687.667L589.497,1696" class="er relationshipLine"/><path style="stroke: gray; fill: none;" marker-start="url(#ONLY_ONE_START)" marker-end="url(#ONLY_ONE_END)" d="M342.402,1135.414L330.211,1145.178C318.02,1154.942,293.639,1174.471,333.798,1214.695C373.958,1254.918,478.658,1315.836,531.008,1346.295L583.359,1376.754" class="er relationshipLine"/><path style="stroke: gray; fill: none;" marker-start="url(#ONLY_ONE_START)" marker-end="url(#ZERO_OR_MORE_END)" d="M458.131,1144L461.412,1152.333C464.692,1160.667,471.254,1177.333,474.535,1223.333C477.816,1269.333,477.816,1344.667,477.816,1420C477.816,1495.333,477.816,1570.667,484.51,1616.667C491.204,1662.667,504.593,1679.333,511.288,1687.667L517.982,1696" class="er relationshipLine"/><g transform="translate(230.29547119140625,20 )" id="entity-Container-bc34fb32-8a75-5b81-936b-92374bf40296"><rect height="45" width="100" y="0" x="0" class="er entityBox"/><text style="dominant-baseline: middle; text-anchor: middle; font-size: 12px;" transform="translate(50,12)" y="0" x="0" id="text-entity-Container-bc34fb32-8a75-5b81-936b-92374bf40296" class="er entityLabel">Container</text><rect height="21" width="69.5859375" y="24" x="0" class="er attributeBoxOdd"/><text style="dominant-baseline: middle; font-size: 10.2px;" transform="translate(5,34.5)" y="0" x="0" id="text-entity-Container-bc34fb32-8a75-5b81-936b-92374bf40296-attr-1-type" class="er entityLabel">uriorcurie</text><rect height="21" width="30.4140625" y="24" x="69.5859375" class="er attributeBoxOdd"/><text style="dominant-baseline: middle; font-size: 10.2px;" transform="translate(74.5859375,34.5)" y="0" x="0" id="text-entity-Container-bc34fb32-8a75-5b81-936b-92374bf40296-attr-1-name" class="er entityLabel">iri</text></g><g transform="translate(339.7063293457031,236 )" id="entity-LandmarkData-f9afa573-fd43-576b-aaf0-87a01ccedbc7"><rect height="75" width="118.84375" y="0" x="0" class="er entityBox"/><text style="dominant-baseline: middle; text-anchor: middle; font-size: 12px;" transform="translate(59.421875,37.5)" y="0" x="0" id="text-entity-LandmarkData-f9afa573-fd43-576b-aaf0-87a01ccedbc7" class="er entityLabel">LandmarkData</text></g><g transform="translate(665.6385803222656,692 )" id="entity-SpatialEntity-d1db85b5-1d94-5840-8e44-d9029b3ecf4a"><rect height="198" width="146.64190673828125" y="0" x="0" class="er entityBox"/><text style="dominant-baseline: middle; text-anchor: middle; font-size: 12px;" transform="translate(73.32095336914062,12)" y="0" x="0" id="text-entity-SpatialEntity-d1db85b5-1d94-5840-8e44-d9029b3ecf4a" class="er entityLabel">SpatialEntity</text><rect height="22" width="59.03125" y="24" x="0" class="er attributeBoxOdd"/><text style="dominant-baseline: middle; font-size: 10.2px;" transform="translate(5,35)" y="0" x="0" id="text-entity-SpatialEntity-d1db85b5-1d94-5840-8e44-d9029b3ecf4a-attr-1-type" class="er entityLabel">string</text><rect height="22" width="87.61065673828125" y="24" x="59.03125" class="er attributeBoxOdd"/><text style="dominant-baseline: middle; font-size: 10.2px;" transform="translate(64.03125,35)" y="0" x="0" id="text-entity-SpatialEntity-d1db85b5-1d94-5840-8e44-d9029b3ecf4a-attr-1-name" class="er entityLabel">pref_label</text><rect height="22" width="59.03125" y="46" x="0" class="er attributeBoxEven"/><text style="dominant-baseline: middle; font-size: 10.2px;" transform="translate(5,57)" y="0" x="0" id="text-entity-SpatialEntity-d1db85b5-1d94-5840-8e44-d9029b3ecf4a-attr-2-type" class="er entityLabel">float</text><rect height="22" width="87.61065673828125" y="46" x="59.03125" class="er attributeBoxEven"/><text style="dominant-baseline: middle; font-size: 10.2px;" transform="translate(64.03125,57)" y="0" x="0" id="text-entity-SpatialEntity-d1db85b5-1d94-5840-8e44-d9029b3ecf4a-attr-2-name" class="er entityLabel">x_dimension</text><rect height="22" width="59.03125" y="68" x="0" class="er attributeBoxOdd"/><text style="dominant-baseline: middle; font-size: 10.2px;" transform="translate(5,79)" y="0" x="0" id="text-entity-SpatialEntity-d1db85b5-1d94-5840-8e44-d9029b3ecf4a-attr-3-type" class="er entityLabel">float</text><rect height="22" width="87.61065673828125" y="68" x="59.03125" class="er attributeBoxOdd"/><text style="dominant-baseline: middle; font-size: 10.2px;" transform="translate(64.03125,79)" y="0" x="0" id="text-entity-SpatialEntity-d1db85b5-1d94-5840-8e44-d9029b3ecf4a-attr-3-name" class="er entityLabel">y_dimension</text><rect height="22" width="59.03125" y="90" x="0" class="er attributeBoxEven"/><text style="dominant-baseline: middle; font-size: 10.2px;" transform="translate(5,101)" y="0" x="0" id="text-entity-SpatialEntity-d1db85b5-1d94-5840-8e44-d9029b3ecf4a-attr-4-type" class="er entityLabel">float</text><rect height="22" width="87.61065673828125" y="90" x="59.03125" class="er attributeBoxEven"/><text style="dominant-baseline: middle; font-size: 10.2px;" transform="translate(64.03125,101)" y="0" x="0" id="text-entity-SpatialEntity-d1db85b5-1d94-5840-8e44-d9029b3ecf4a-attr-4-name" class="er entityLabel">z_dimension</text><rect height="22" width="59.03125" y="112" x="0" class="er attributeBoxOdd"/><text style="dominant-baseline: middle; font-size: 10.2px;" transform="translate(5,123)" y="0" x="0" id="text-entity-SpatialEntity-d1db85b5-1d94-5840-8e44-d9029b3ecf4a-attr-5-type" class="er entityLabel">string</text><rect height="22" width="87.61065673828125" y="112" x="59.03125" class="er attributeBoxOdd"/><text style="dominant-baseline: middle; font-size: 10.2px;" transform="translate(64.03125,123)" y="0" x="0" id="text-entity-SpatialEntity-d1db85b5-1d94-5840-8e44-d9029b3ecf4a-attr-5-name" class="er entityLabel">dimension_unit</text><rect height="22" width="59.03125" y="134" x="0" class="er attributeBoxEven"/><text style="dominant-baseline: middle; font-size: 10.2px;" transform="translate(5,145)" y="0" x="0" id="text-entity-SpatialEntity-d1db85b5-1d94-5840-8e44-d9029b3ecf4a-attr-6-type" class="er entityLabel">integer</text><rect height="22" width="87.61065673828125" y="134" x="59.03125" class="er attributeBoxEven"/><text style="dominant-baseline: middle; font-size: 10.2px;" transform="translate(64.03125,145)" y="0" x="0" id="text-entity-SpatialEntity-d1db85b5-1d94-5840-8e44-d9029b3ecf4a-attr-6-name" class="er entityLabel">rui_rank</text><rect height="21" width="59.03125" y="156" x="0" class="er attributeBoxOdd"/><text style="dominant-baseline: middle; font-size: 10.2px;" transform="translate(5,166.5)" y="0" x="0" id="text-entity-SpatialEntity-d1db85b5-1d94-5840-8e44-d9029b3ecf4a-attr-7-type" class="er entityLabel">uriorcurie</text><rect height="21" width="87.61065673828125" y="156" x="59.03125" class="er attributeBoxOdd"/><text style="dominant-baseline: middle; font-size: 10.2px;" transform="translate(64.03125,166.5)" y="0" x="0" id="text-entity-SpatialEntity-d1db85b5-1d94-5840-8e44-d9029b3ecf4a-attr-7-name" class="er entityLabel">id</text><rect height="21" width="59.03125" y="177" x="0" class="er attributeBoxEven"/><text style="dominant-baseline: middle; font-size: 10.2px;" transform="translate(5,187.5)" y="0" x="0" id="text-entity-SpatialEntity-d1db85b5-1d94-5840-8e44-d9029b3ecf4a-attr-8-type" class="er entityLabel">string</text><rect height="21" width="87.61065673828125" y="177" x="59.03125" class="er attributeBoxEven"/><text style="dominant-baseline: middle; font-size: 10.2px;" transform="translate(64.03125,187.5)" y="0" x="0" id="text-entity-SpatialEntity-d1db85b5-1d94-5840-8e44-d9029b3ecf4a-attr-8-name" class="er entityLabel">label</text></g><g transform="translate(494.49180603027344,1696 )" id="entity-Named-527792da-945b-57c2-aece-6a504f46f916"><rect height="66" width="100" y="0" x="0" class="er entityBox"/><text style="dominant-baseline: middle; text-anchor: middle; font-size: 12px;" transform="translate(50,12)" y="0" x="0" id="text-entity-Named-527792da-945b-57c2-aece-6a504f46f916" class="er entityLabel">Named</text><rect height="21" width="62.1953125" y="24" x="0" class="er attributeBoxOdd"/><text style="dominant-baseline: middle; font-size: 10.2px;" transform="translate(5,34.5)" y="0" x="0" id="text-entity-Named-527792da-945b-57c2-aece-6a504f46f916-attr-1-type" class="er entityLabel">uriorcurie</text><rect height="21" width="37.8046875" y="24" x="62.1953125" class="er attributeBoxOdd"/><text style="dominant-baseline: middle; font-size: 10.2px;" transform="translate(67.1953125,34.5)" y="0" x="0" id="text-entity-Named-527792da-945b-57c2-aece-6a504f46f916-attr-1-name" class="er entityLabel">id</text><rect height="21" width="62.1953125" y="45" x="0" class="er attributeBoxEven"/><text style="dominant-baseline: middle; font-size: 10.2px;" transform="translate(5,55.5)" y="0" x="0" id="text-entity-Named-527792da-945b-57c2-aece-6a504f46f916-attr-2-type" class="er entityLabel">string</text><rect height="21" width="37.8046875" y="45" x="62.1953125" class="er attributeBoxEven"/><text style="dominant-baseline: middle; font-size: 10.2px;" transform="translate(67.1953125,55.5)" y="0" x="0" id="text-entity-Named-527792da-945b-57c2-aece-6a504f46f916-attr-2-name" class="er entityLabel">label</text></g><g transform="translate(20,482 )" id="entity-ExtractionSet-36c25d42-40a1-50db-ad03-0979e3be5d88"><rect height="110" width="119.0625" y="0" x="0" class="er entityBox"/><text style="dominant-baseline: middle; text-anchor: middle; font-size: 12px;" transform="translate(59.53125,12)" y="0" x="0" id="text-entity-ExtractionSet-36c25d42-40a1-50db-ad03-0979e3be5d88" class="er entityLabel">ExtractionSet</text><rect height="22" width="59.03125" y="24" x="0" class="er attributeBoxOdd"/><text style="dominant-baseline: middle; font-size: 10.2px;" transform="translate(5,35)" y="0" x="0" id="text-entity-ExtractionSet-36c25d42-40a1-50db-ad03-0979e3be5d88-attr-1-type" class="er entityLabel">string</text><rect height="22" width="60.03125" y="24" x="59.03125" class="er attributeBoxOdd"/><text style="dominant-baseline: middle; font-size: 10.2px;" transform="translate(64.03125,35)" y="0" x="0" id="text-entity-ExtractionSet-36c25d42-40a1-50db-ad03-0979e3be5d88-attr-1-name" class="er entityLabel">pref_label</text><rect height="22" width="59.03125" y="46" x="0" class="er attributeBoxEven"/><text style="dominant-baseline: middle; font-size: 10.2px;" transform="translate(5,57)" y="0" x="0" id="text-entity-ExtractionSet-36c25d42-40a1-50db-ad03-0979e3be5d88-attr-2-type" class="er entityLabel">integer</text><rect height="22" width="60.03125" y="46" x="59.03125" class="er attributeBoxEven"/><text style="dominant-baseline: middle; font-size: 10.2px;" transform="translate(64.03125,57)" y="0" x="0" id="text-entity-ExtractionSet-36c25d42-40a1-50db-ad03-0979e3be5d88-attr-2-name" class="er entityLabel">rui_rank</text><rect height="21" width="59.03125" y="68" x="0" class="er attributeBoxOdd"/><text style="dominant-baseline: middle; font-size: 10.2px;" transform="translate(5,78.5)" y="0" x="0" id="text-entity-ExtractionSet-36c25d42-40a1-50db-ad03-0979e3be5d88-attr-3-type" class="er entityLabel">uriorcurie</text><rect height="21" width="60.03125" y="68" x="59.03125" class="er attributeBoxOdd"/><text style="dominant-baseline: middle; font-size: 10.2px;" transform="translate(64.03125,78.5)" y="0" x="0" id="text-entity-ExtractionSet-36c25d42-40a1-50db-ad03-0979e3be5d88-attr-3-name" class="er entityLabel">id</text><rect height="21" width="59.03125" y="89" x="0" class="er attributeBoxEven"/><text style="dominant-baseline: middle; font-size: 10.2px;" transform="translate(5,99.5)" y="0" x="0" id="text-entity-ExtractionSet-36c25d42-40a1-50db-ad03-0979e3be5d88-attr-4-type" class="er entityLabel">string</text><rect height="21" width="60.03125" y="89" x="59.03125" class="er attributeBoxEven"/><text style="dominant-baseline: middle; font-size: 10.2px;" transform="translate(64.03125,99.5)" y="0" x="0" id="text-entity-ExtractionSet-36c25d42-40a1-50db-ad03-0979e3be5d88-attr-4-name" class="er entityLabel">label</text></g><g transform="translate(583.3586730957031,1244 )" id="entity-SpatialPlacement-346e1bb7-3014-5df7-8b75-dd9bd5f12664"><rect height="352" width="148.65625" y="0" x="0" class="er entityBox"/><text style="dominant-baseline: middle; text-anchor: middle; font-size: 12px;" transform="translate(74.328125,12)" y="0" x="0" id="text-entity-SpatialPlacement-346e1bb7-3014-5df7-8b75-dd9bd5f12664" class="er entityLabel">SpatialPlacement</text><rect height="22" width="59.03125" y="24" x="0" class="er attributeBoxOdd"/><text style="dominant-baseline: middle; font-size: 10.2px;" transform="translate(5,35)" y="0" x="0" id="text-entity-SpatialPlacement-346e1bb7-3014-5df7-8b75-dd9bd5f12664-attr-1-type" class="er entityLabel">float</text><rect height="22" width="89.625" y="24" x="59.03125" class="er attributeBoxOdd"/><text style="dominant-baseline: middle; font-size: 10.2px;" transform="translate(64.03125,35)" y="0" x="0" id="text-entity-SpatialPlacement-346e1bb7-3014-5df7-8b75-dd9bd5f12664-attr-1-name" class="er entityLabel">x_scaling</text><rect height="22" width="59.03125" y="46" x="0" class="er attributeBoxEven"/><text style="dominant-baseline: middle; font-size: 10.2px;" transform="translate(5,57)" y="0" x="0" id="text-entity-SpatialPlacement-346e1bb7-3014-5df7-8b75-dd9bd5f12664-attr-2-type" class="er entityLabel">float</text><rect height="22" width="89.625" y="46" x="59.03125" class="er attributeBoxEven"/><text style="dominant-baseline: middle; font-size: 10.2px;" transform="translate(64.03125,57)" y="0" x="0" id="text-entity-SpatialPlacement-346e1bb7-3014-5df7-8b75-dd9bd5f12664-attr-2-name" class="er entityLabel">y_scaling</text><rect height="22" width="59.03125" y="68" x="0" class="er attributeBoxOdd"/><text style="dominant-baseline: middle; font-size: 10.2px;" transform="translate(5,79)" y="0" x="0" id="text-entity-SpatialPlacement-346e1bb7-3014-5df7-8b75-dd9bd5f12664-attr-3-type" class="er entityLabel">float</text><rect height="22" width="89.625" y="68" x="59.03125" class="er attributeBoxOdd"/><text style="dominant-baseline: middle; font-size: 10.2px;" transform="translate(64.03125,79)" y="0" x="0" id="text-entity-SpatialPlacement-346e1bb7-3014-5df7-8b75-dd9bd5f12664-attr-3-name" class="er entityLabel">z_scaling</text><rect height="22" width="59.03125" y="90" x="0" class="er attributeBoxEven"/><text style="dominant-baseline: middle; font-size: 10.2px;" transform="translate(5,101)" y="0" x="0" id="text-entity-SpatialPlacement-346e1bb7-3014-5df7-8b75-dd9bd5f12664-attr-4-type" class="er entityLabel">string</text><rect height="22" width="89.625" y="90" x="59.03125" class="er attributeBoxEven"/><text style="dominant-baseline: middle; font-size: 10.2px;" transform="translate(64.03125,101)" y="0" x="0" id="text-entity-SpatialPlacement-346e1bb7-3014-5df7-8b75-dd9bd5f12664-attr-4-name" class="er entityLabel">scaling_unit</text><rect height="22" width="59.03125" y="112" x="0" class="er attributeBoxOdd"/><text style="dominant-baseline: middle; font-size: 10.2px;" transform="translate(5,123)" y="0" x="0" id="text-entity-SpatialPlacement-346e1bb7-3014-5df7-8b75-dd9bd5f12664-attr-5-type" class="er entityLabel">float</text><rect height="22" width="89.625" y="112" x="59.03125" class="er attributeBoxOdd"/><text style="dominant-baseline: middle; font-size: 10.2px;" transform="translate(64.03125,123)" y="0" x="0" id="text-entity-SpatialPlacement-346e1bb7-3014-5df7-8b75-dd9bd5f12664-attr-5-name" class="er entityLabel">x_rotation</text><rect height="22" width="59.03125" y="134" x="0" class="er attributeBoxEven"/><text style="dominant-baseline: middle; font-size: 10.2px;" transform="translate(5,145)" y="0" x="0" id="text-entity-SpatialPlacement-346e1bb7-3014-5df7-8b75-dd9bd5f12664-attr-6-type" class="er entityLabel">float</text><rect height="22" width="89.625" y="134" x="59.03125" class="er attributeBoxEven"/><text style="dominant-baseline: middle; font-size: 10.2px;" transform="translate(64.03125,145)" y="0" x="0" id="text-entity-SpatialPlacement-346e1bb7-3014-5df7-8b75-dd9bd5f12664-attr-6-name" class="er entityLabel">y_rotation</text><rect height="22" width="59.03125" y="156" x="0" class="er attributeBoxOdd"/><text style="dominant-baseline: middle; font-size: 10.2px;" transform="translate(5,167)" y="0" x="0" id="text-entity-SpatialPlacement-346e1bb7-3014-5df7-8b75-dd9bd5f12664-attr-7-type" class="er entityLabel">float</text><rect height="22" width="89.625" y="156" x="59.03125" class="er attributeBoxOdd"/><text style="dominant-baseline: middle; font-size: 10.2px;" transform="translate(64.03125,167)" y="0" x="0" id="text-entity-SpatialPlacement-346e1bb7-3014-5df7-8b75-dd9bd5f12664-attr-7-name" class="er entityLabel">z_rotation</text><rect height="22" width="59.03125" y="178" x="0" class="er attributeBoxEven"/><text style="dominant-baseline: middle; font-size: 10.2px;" transform="translate(5,189)" y="0" x="0" id="text-entity-SpatialPlacement-346e1bb7-3014-5df7-8b75-dd9bd5f12664-attr-8-type" class="er entityLabel">string</text><rect height="22" width="89.625" y="178" x="59.03125" class="er attributeBoxEven"/><text style="dominant-baseline: middle; font-size: 10.2px;" transform="translate(64.03125,189)" y="0" x="0" id="text-entity-SpatialPlacement-346e1bb7-3014-5df7-8b75-dd9bd5f12664-attr-8-name" class="er entityLabel">rotation_unit</text><rect height="22" width="59.03125" y="200" x="0" class="er attributeBoxOdd"/><text style="dominant-baseline: middle; font-size: 10.2px;" transform="translate(5,211)" y="0" x="0" id="text-entity-SpatialPlacement-346e1bb7-3014-5df7-8b75-dd9bd5f12664-attr-9-type" class="er entityLabel">string</text><rect height="22" width="89.625" y="200" x="59.03125" class="er attributeBoxOdd"/><text style="dominant-baseline: middle; font-size: 10.2px;" transform="translate(64.03125,211)" y="0" x="0" id="text-entity-SpatialPlacement-346e1bb7-3014-5df7-8b75-dd9bd5f12664-attr-9-name" class="er entityLabel">rotation_order</text><rect height="22" width="59.03125" y="222" x="0" class="er attributeBoxEven"/><text style="dominant-baseline: middle; font-size: 10.2px;" transform="translate(5,233)" y="0" x="0" id="text-entity-SpatialPlacement-346e1bb7-3014-5df7-8b75-dd9bd5f12664-attr-10-type" class="er entityLabel">float</text><rect height="22" width="89.625" y="222" x="59.03125" class="er attributeBoxEven"/><text style="dominant-baseline: middle; font-size: 10.2px;" transform="translate(64.03125,233)" y="0" x="0" id="text-entity-SpatialPlacement-346e1bb7-3014-5df7-8b75-dd9bd5f12664-attr-10-name" class="er entityLabel">x_translation</text><rect height="22" width="59.03125" y="244" x="0" class="er attributeBoxOdd"/><text style="dominant-baseline: middle; font-size: 10.2px;" transform="translate(5,255)" y="0" x="0" id="text-entity-SpatialPlacement-346e1bb7-3014-5df7-8b75-dd9bd5f12664-attr-11-type" class="er entityLabel">float</text><rect height="22" width="89.625" y="244" x="59.03125" class="er attributeBoxOdd"/><text style="dominant-baseline: middle; font-size: 10.2px;" transform="translate(64.03125,255)" y="0" x="0" id="text-entity-SpatialPlacement-346e1bb7-3014-5df7-8b75-dd9bd5f12664-attr-11-name" class="er entityLabel">y_translation</text><rect height="22" width="59.03125" y="266" x="0" class="er attributeBoxEven"/><text style="dominant-baseline: middle; font-size: 10.2px;" transform="translate(5,277)" y="0" x="0" id="text-entity-SpatialPlacement-346e1bb7-3014-5df7-8b75-dd9bd5f12664-attr-12-type" class="er entityLabel">float</text><rect height="22" width="89.625" y="266" x="59.03125" class="er attributeBoxEven"/><text style="dominant-baseline: middle; font-size: 10.2px;" transform="translate(64.03125,277)" y="0" x="0" id="text-entity-SpatialPlacement-346e1bb7-3014-5df7-8b75-dd9bd5f12664-attr-12-name" class="er entityLabel">z_translation</text><rect height="22" width="59.03125" y="288" x="0" class="er attributeBoxOdd"/><text style="dominant-baseline: middle; font-size: 10.2px;" transform="translate(5,299)" y="0" x="0" id="text-entity-SpatialPlacement-346e1bb7-3014-5df7-8b75-dd9bd5f12664-attr-13-type" class="er entityLabel">string</text><rect height="22" width="89.625" y="288" x="59.03125" class="er attributeBoxOdd"/><text style="dominant-baseline: middle; font-size: 10.2px;" transform="translate(64.03125,299)" y="0" x="0" id="text-entity-SpatialPlacement-346e1bb7-3014-5df7-8b75-dd9bd5f12664-attr-13-name" class="er entityLabel">translation_unit</text><rect height="21" width="59.03125" y="310" x="0" class="er attributeBoxEven"/><text style="dominant-baseline: middle; font-size: 10.2px;" transform="translate(5,320.5)" y="0" x="0" id="text-entity-SpatialPlacement-346e1bb7-3014-5df7-8b75-dd9bd5f12664-attr-14-type" class="er entityLabel">uriorcurie</text><rect height="21" width="89.625" y="310" x="59.03125" class="er attributeBoxEven"/><text style="dominant-baseline: middle; font-size: 10.2px;" transform="translate(64.03125,320.5)" y="0" x="0" id="text-entity-SpatialPlacement-346e1bb7-3014-5df7-8b75-dd9bd5f12664-attr-14-name" class="er entityLabel">id</text><rect height="21" width="59.03125" y="331" x="0" class="er attributeBoxOdd"/><text style="dominant-baseline: middle; font-size: 10.2px;" transform="translate(5,341.5)" y="0" x="0" id="text-entity-SpatialPlacement-346e1bb7-3014-5df7-8b75-dd9bd5f12664-attr-15-type" class="er entityLabel">string</text><rect height="21" width="89.625" y="331" x="59.03125" class="er attributeBoxOdd"/><text style="dominant-baseline: middle; font-size: 10.2px;" transform="translate(64.03125,341.5)" y="0" x="0" id="text-entity-SpatialPlacement-346e1bb7-3014-5df7-8b75-dd9bd5f12664-attr-15-name" class="er entityLabel">label</text></g><g transform="translate(342.4016418457031,990 )" id="entity-SpatialObjectReference-d20666d8-ec01-5119-8567-c67f55a6b2e7"><rect height="154" width="170.828125" y="0" x="0" class="er entityBox"/><text style="dominant-baseline: middle; text-anchor: middle; font-size: 12px;" transform="translate(85.4140625,12)" y="0" x="0" id="text-entity-SpatialObjectReference-d20666d8-ec01-5119-8567-c67f55a6b2e7" class="er entityLabel">SpatialObjectReference</text><rect height="22" width="78.921875" y="24" x="0" class="er attributeBoxOdd"/><text style="dominant-baseline: middle; font-size: 10.2px;" transform="translate(5,35)" y="0" x="0" id="text-entity-SpatialObjectReference-d20666d8-ec01-5119-8567-c67f55a6b2e7-attr-1-type" class="er entityLabel">string</text><rect height="22" width="91.90625" y="24" x="78.921875" class="er attributeBoxOdd"/><text style="dominant-baseline: middle; font-size: 10.2px;" transform="translate(83.921875,35)" y="0" x="0" id="text-entity-SpatialObjectReference-d20666d8-ec01-5119-8567-c67f55a6b2e7-attr-1-name" class="er entityLabel">file_name</text><rect height="22" width="78.921875" y="46" x="0" class="er attributeBoxEven"/><text style="dominant-baseline: middle; font-size: 10.2px;" transform="translate(5,57)" y="0" x="0" id="text-entity-SpatialObjectReference-d20666d8-ec01-5119-8567-c67f55a6b2e7-attr-2-type" class="er entityLabel">string</text><rect height="22" width="91.90625" y="46" x="78.921875" class="er attributeBoxEven"/><text style="dominant-baseline: middle; font-size: 10.2px;" transform="translate(83.921875,57)" y="0" x="0" id="text-entity-SpatialObjectReference-d20666d8-ec01-5119-8567-c67f55a6b2e7-attr-2-name" class="er entityLabel">file_url</text><rect height="22" width="78.921875" y="68" x="0" class="er attributeBoxOdd"/><text style="dominant-baseline: middle; font-size: 10.2px;" transform="translate(5,79)" y="0" x="0" id="text-entity-SpatialObjectReference-d20666d8-ec01-5119-8567-c67f55a6b2e7-attr-3-type" class="er entityLabel">string</text><rect height="22" width="91.90625" y="68" x="78.921875" class="er attributeBoxOdd"/><text style="dominant-baseline: middle; font-size: 10.2px;" transform="translate(83.921875,79)" y="0" x="0" id="text-entity-SpatialObjectReference-d20666d8-ec01-5119-8567-c67f55a6b2e7-attr-3-name" class="er entityLabel">file_subpath</text><rect height="22" width="78.921875" y="90" x="0" class="er attributeBoxEven"/><text style="dominant-baseline: middle; font-size: 10.2px;" transform="translate(5,101)" y="0" x="0" id="text-entity-SpatialObjectReference-d20666d8-ec01-5119-8567-c67f55a6b2e7-attr-4-type" class="er entityLabel">string</text><rect height="22" width="91.90625" y="90" x="78.921875" class="er attributeBoxEven"/><text style="dominant-baseline: middle; font-size: 10.2px;" transform="translate(83.921875,101)" y="0" x="0" id="text-entity-SpatialObjectReference-d20666d8-ec01-5119-8567-c67f55a6b2e7-attr-4-name" class="er entityLabel">file_format</text><rect height="21" width="78.921875" y="112" x="0" class="er attributeBoxOdd"/><text style="dominant-baseline: middle; font-size: 10.2px;" transform="translate(5,122.5)" y="0" x="0" id="text-entity-SpatialObjectReference-d20666d8-ec01-5119-8567-c67f55a6b2e7-attr-5-type" class="er entityLabel">uriorcurie</text><rect height="21" width="91.90625" y="112" x="78.921875" class="er attributeBoxOdd"/><text style="dominant-baseline: middle; font-size: 10.2px;" transform="translate(83.921875,122.5)" y="0" x="0" id="text-entity-SpatialObjectReference-d20666d8-ec01-5119-8567-c67f55a6b2e7-attr-5-name" class="er entityLabel">id</text><rect height="21" width="78.921875" y="133" x="0" class="er attributeBoxEven"/><text style="dominant-baseline: middle; font-size: 10.2px;" transform="translate(5,143.5)" y="0" x="0" id="text-entity-SpatialObjectReference-d20666d8-ec01-5119-8567-c67f55a6b2e7-attr-6-type" class="er entityLabel">string</text><rect height="21" width="91.90625" y="133" x="78.921875" class="er attributeBoxEven"/><text style="dominant-baseline: middle; font-size: 10.2px;" transform="translate(83.921875,143.5)" y="0" x="0" id="text-entity-SpatialObjectReference-d20666d8-ec01-5119-8567-c67f55a6b2e7-attr-6-name" class="er entityLabel">label</text></g><g transform="translate(110.69851684570312,1023 )" id="entity-Creator-22c37820-830e-5050-9ef7-2120deecbdf9"><rect height="88" width="131.703125" y="0" x="0" class="er entityBox"/><text style="dominant-baseline: middle; text-anchor: middle; font-size: 12px;" transform="translate(65.8515625,12)" y="0" x="0" id="text-entity-Creator-22c37820-830e-5050-9ef7-2120deecbdf9" class="er entityLabel">Creator</text><rect height="22" width="59.03125" y="24" x="0" class="er attributeBoxOdd"/><text style="dominant-baseline: middle; font-size: 10.2px;" transform="translate(5,35)" y="0" x="0" id="text-entity-Creator-22c37820-830e-5050-9ef7-2120deecbdf9-attr-1-type" class="er entityLabel">string</text><rect height="22" width="72.671875" y="24" x="59.03125" class="er attributeBoxOdd"/><text style="dominant-baseline: middle; font-size: 10.2px;" transform="translate(64.03125,35)" y="0" x="0" id="text-entity-Creator-22c37820-830e-5050-9ef7-2120deecbdf9-attr-1-name" class="er entityLabel">conforms_to</text><rect height="21" width="59.03125" y="46" x="0" class="er attributeBoxEven"/><text style="dominant-baseline: middle; font-size: 10.2px;" transform="translate(5,56.5)" y="0" x="0" id="text-entity-Creator-22c37820-830e-5050-9ef7-2120deecbdf9-attr-2-type" class="er entityLabel">uriorcurie</text><rect height="21" width="72.671875" y="46" x="59.03125" class="er attributeBoxEven"/><text style="dominant-baseline: middle; font-size: 10.2px;" transform="translate(64.03125,56.5)" y="0" x="0" id="text-entity-Creator-22c37820-830e-5050-9ef7-2120deecbdf9-attr-2-name" class="er entityLabel">id</text><rect height="21" width="59.03125" y="67" x="0" class="er attributeBoxOdd"/><text style="dominant-baseline: middle; font-size: 10.2px;" transform="translate(5,77.5)" y="0" x="0" id="text-entity-Creator-22c37820-830e-5050-9ef7-2120deecbdf9-attr-3-type" class="er entityLabel">string</text><rect height="21" width="72.671875" y="67" x="59.03125" class="er attributeBoxOdd"/><text style="dominant-baseline: middle; font-size: 10.2px;" transform="translate(64.03125,77.5)" y="0" x="0" id="text-entity-Creator-22c37820-830e-5050-9ef7-2120deecbdf9-attr-3-name" class="er entityLabel">label</text></g><g transform="translate(83.21914672851562,165 )" id="entity-LandmarkMetadata-aa1bb4ff-0edb-5d5e-ba87-4e2a0bc331a3"><rect height="217" width="156.4871826171875" y="0" x="0" class="er entityBox"/><text style="dominant-baseline: middle; text-anchor: middle; font-size: 12px;" transform="translate(78.24359130859375,12)" y="0" x="0" id="text-entity-LandmarkMetadata-aa1bb4ff-0edb-5d5e-ba87-4e2a0bc331a3" class="er entityLabel">LandmarkMetadata</text><rect height="21" width="76.8309326171875" y="24" x="0" class="er attributeBoxOdd"/><text style="dominant-baseline: middle; font-size: 10.2px;" transform="translate(5,34.5)" y="0" x="0" id="text-entity-LandmarkMetadata-aa1bb4ff-0edb-5d5e-ba87-4e2a0bc331a3-attr-1-type" class="er entityLabel">string</text><rect height="21" width="79.65625" y="24" x="76.8309326171875" class="er attributeBoxOdd"/><text style="dominant-baseline: middle; font-size: 10.2px;" transform="translate(81.8309326171875,34.5)" y="0" x="0" id="text-entity-LandmarkMetadata-aa1bb4ff-0edb-5d5e-ba87-4e2a0bc331a3-attr-1-name" class="er entityLabel">title</text><rect height="21" width="76.8309326171875" y="45" x="0" class="er attributeBoxEven"/><text style="dominant-baseline: middle; font-size: 10.2px;" transform="translate(5,55.5)" y="0" x="0" id="text-entity-LandmarkMetadata-aa1bb4ff-0edb-5d5e-ba87-4e2a0bc331a3-attr-2-type" class="er entityLabel">string</text><rect height="21" width="79.65625" y="45" x="76.8309326171875" class="er attributeBoxEven"/><text style="dominant-baseline: middle; font-size: 10.2px;" transform="translate(81.8309326171875,55.5)" y="0" x="0" id="text-entity-LandmarkMetadata-aa1bb4ff-0edb-5d5e-ba87-4e2a0bc331a3-attr-2-name" class="er entityLabel">description</text><rect height="22" width="76.8309326171875" y="66" x="0" class="er attributeBoxOdd"/><text style="dominant-baseline: middle; font-size: 10.2px;" transform="translate(5,77)" y="0" x="0" id="text-entity-LandmarkMetadata-aa1bb4ff-0edb-5d5e-ba87-4e2a0bc331a3-attr-3-type" class="er entityLabel">uriorcurieList</text><rect height="22" width="79.65625" y="66" x="76.8309326171875" class="er attributeBoxOdd"/><text style="dominant-baseline: middle; font-size: 10.2px;" transform="translate(81.8309326171875,77)" y="0" x="0" id="text-entity-LandmarkMetadata-aa1bb4ff-0edb-5d5e-ba87-4e2a0bc331a3-attr-3-name" class="er entityLabel">created_by</text><rect height="22" width="76.8309326171875" y="88" x="0" class="er attributeBoxEven"/><text style="dominant-baseline: middle; font-size: 10.2px;" transform="translate(5,99)" y="0" x="0" id="text-entity-LandmarkMetadata-aa1bb4ff-0edb-5d5e-ba87-4e2a0bc331a3-attr-4-type" class="er entityLabel">string</text><rect height="22" width="79.65625" y="88" x="76.8309326171875" class="er attributeBoxEven"/><text style="dominant-baseline: middle; font-size: 10.2px;" transform="translate(81.8309326171875,99)" y="0" x="0" id="text-entity-LandmarkMetadata-aa1bb4ff-0edb-5d5e-ba87-4e2a0bc331a3-attr-4-name" class="er entityLabel">creation_date</text><rect height="21" width="76.8309326171875" y="110" x="0" class="er attributeBoxOdd"/><text style="dominant-baseline: middle; font-size: 10.2px;" transform="translate(5,120.5)" y="0" x="0" id="text-entity-LandmarkMetadata-aa1bb4ff-0edb-5d5e-ba87-4e2a0bc331a3-attr-5-type" class="er entityLabel">string</text><rect height="21" width="79.65625" y="110" x="76.8309326171875" class="er attributeBoxOdd"/><text style="dominant-baseline: middle; font-size: 10.2px;" transform="translate(81.8309326171875,120.5)" y="0" x="0" id="text-entity-LandmarkMetadata-aa1bb4ff-0edb-5d5e-ba87-4e2a0bc331a3-attr-5-name" class="er entityLabel">version</text><rect height="21" width="76.8309326171875" y="131" x="0" class="er attributeBoxEven"/><text style="dominant-baseline: middle; font-size: 10.2px;" transform="translate(5,141.5)" y="0" x="0" id="text-entity-LandmarkMetadata-aa1bb4ff-0edb-5d5e-ba87-4e2a0bc331a3-attr-6-type" class="er entityLabel">string</text><rect height="21" width="79.65625" y="131" x="76.8309326171875" class="er attributeBoxEven"/><text style="dominant-baseline: middle; font-size: 10.2px;" transform="translate(81.8309326171875,141.5)" y="0" x="0" id="text-entity-LandmarkMetadata-aa1bb4ff-0edb-5d5e-ba87-4e2a0bc331a3-attr-6-name" class="er entityLabel">license</text><rect height="21" width="76.8309326171875" y="152" x="0" class="er attributeBoxOdd"/><text style="dominant-baseline: middle; font-size: 10.2px;" transform="translate(5,162.5)" y="0" x="0" id="text-entity-LandmarkMetadata-aa1bb4ff-0edb-5d5e-ba87-4e2a0bc331a3-attr-7-type" class="er entityLabel">string</text><rect height="21" width="79.65625" y="152" x="76.8309326171875" class="er attributeBoxOdd"/><text style="dominant-baseline: middle; font-size: 10.2px;" transform="translate(81.8309326171875,162.5)" y="0" x="0" id="text-entity-LandmarkMetadata-aa1bb4ff-0edb-5d5e-ba87-4e2a0bc331a3-attr-7-name" class="er entityLabel">publisher</text><rect height="22" width="76.8309326171875" y="173" x="0" class="er attributeBoxEven"/><text style="dominant-baseline: middle; font-size: 10.2px;" transform="translate(5,184)" y="0" x="0" id="text-entity-LandmarkMetadata-aa1bb4ff-0edb-5d5e-ba87-4e2a0bc331a3-attr-8-type" class="er entityLabel">uriorcurie</text><rect height="22" width="79.65625" y="173" x="76.8309326171875" class="er attributeBoxEven"/><text style="dominant-baseline: middle; font-size: 10.2px;" transform="translate(81.8309326171875,184)" y="0" x="0" id="text-entity-LandmarkMetadata-aa1bb4ff-0edb-5d5e-ba87-4e2a0bc331a3-attr-8-name" class="er entityLabel">see_also</text><rect height="22" width="76.8309326171875" y="195" x="0" class="er attributeBoxOdd"/><text style="dominant-baseline: middle; font-size: 10.2px;" transform="translate(5,206)" y="0" x="0" id="text-entity-LandmarkMetadata-aa1bb4ff-0edb-5d5e-ba87-4e2a0bc331a3-attr-9-type" class="er entityLabel">uriorcurie</text><rect height="22" width="79.65625" y="195" x="76.8309326171875" class="er attributeBoxOdd"/><text style="dominant-baseline: middle; font-size: 10.2px;" transform="translate(81.8309326171875,206)" y="0" x="0" id="text-entity-LandmarkMetadata-aa1bb4ff-0edb-5d5e-ba87-4e2a0bc331a3-attr-9-name" class="er entityLabel">derived_from</text></g><rect height="14" width="58.171875" y="96.68827056884766" x="157.1971893310547" class="er relationshipLabelBox"/><text style="text-anchor: middle; dominant-baseline: middle; font-size: 12px;" y="103.68827056884766" x="186.2831268310547" id="rel1" class="er relationshipLabel">metadata</text><rect height="14" width="27.03125" y="127.81166076660156" x="375.3265075683594" class="er relationshipLabelBox"/><text style="text-anchor: middle; dominant-baseline: middle; font-size: 12px;" y="134.81166076660156" x="388.8421325683594" id="rel2" class="er relationshipLabel">data</text><rect height="14" width="63.09375" y="369.9207458496094" x="162.33969116210938" class="er relationshipLabelBox"/><text style="text-anchor: middle; dominant-baseline: middle; font-size: 12px;" y="376.9207458496094" x="193.88656616210938" id="rel3" class="er relationshipLabel">landmarks</text><rect height="14" width="90.65625" y="413.846923828125" x="684.3897094726562" class="er relationshipLabelBox"/><text style="text-anchor: middle; dominant-baseline: middle; font-size: 12px;" y="420.846923828125" x="729.7178344726562" id="rel4" class="er relationshipLabel">spatial_entities</text><rect height="14" width="49.25" y="877.259033203125" x="371.8575134277344" class="er relationshipLabelBox"/><text style="text-anchor: middle; dominant-baseline: middle; font-size: 12px;" y="884.259033203125" x="396.4825134277344" id="rel5" class="er relationshipLabel">creators</text><rect height="14" width="100.28125" y="885.3511352539062" x="480.7366943359375" class="er relationshipLabelBox"/><text style="text-anchor: middle; dominant-baseline: middle; font-size: 12px;" y="892.3511352539062" x="530.8773193359375" id="rel6" class="er relationshipLabel">object_reference</text><rect height="14" width="69.921875" y="1057.68896484375" x="622.7273559570312" class="er relationshipLabelBox"/><text style="text-anchor: middle; dominant-baseline: middle; font-size: 12px;" y="1064.68896484375" x="657.6882934570312" id="rel7" class="er relationshipLabel">placements</text><rect height="14" width="85.484375" y="607.09814453125" x="370.2565612792969" class="er relationshipLabelBox"/><text style="text-anchor: middle; dominant-baseline: middle; font-size: 12px;" y="614.09814453125" x="412.9987487792969" id="rel8" class="er relationshipLabel">extraction_set</text><rect height="14" width="45.1484375" y="1360.23388671875" x="809.4407958984375" class="er relationshipLabelBox"/><text style="text-anchor: middle; dominant-baseline: middle; font-size: 12px;" y="1367.23388671875" x="832.0150146484375" id="rel9" class="er relationshipLabel">type_of</text><rect height="14" width="107.755859375" y="701.046875" x="234.36175537109375" class="er relationshipLabelBox"/><text style="text-anchor: middle; dominant-baseline: middle; font-size: 12px;" y="708.046875" x="288.23968505859375" id="rel10" class="er relationshipLabel">extraction_set_for</text><rect height="14" width="45.1484375" y="1319.019287109375" x="-11.875214576721191" class="er relationshipLabelBox"/><text style="text-anchor: middle; dominant-baseline: middle; font-size: 12px;" y="1326.019287109375" x="10.699004173278809" id="rel11" class="er relationshipLabel">type_of</text><rect height="14" width="39.859375" y="1112.6107177734375" x="909.7735595703125" class="er relationshipLabelBox"/><text style="text-anchor: middle; dominant-baseline: middle; font-size: 12px;" y="1119.6107177734375" x="929.7032470703125" id="rel12" class="er relationshipLabel">source</text><rect height="14" width="36.78125" y="1111.652099609375" x="1010.373046875" class="er relationshipLabelBox"/><text style="text-anchor: middle; dominant-baseline: middle; font-size: 12px;" y="1118.652099609375" x="1028.763671875" id="rel13" class="er relationshipLabel">target</text><rect height="14" width="45.1484375" y="1648.2855224609375" x="616.3372802734375" class="er relationshipLabelBox"/><text style="text-anchor: middle; dominant-baseline: middle; font-size: 12px;" y="1655.2855224609375" x="638.9114990234375" id="rel14" class="er relationshipLabel">type_of</text><rect height="14" width="63.962890625" y="1267.7313232421875" x="381.2552490234375" class="er relationshipLabelBox"/><text style="text-anchor: middle; dominant-baseline: middle; font-size: 12px;" y="1274.7313232421875" x="413.2366943359375" id="rel15" class="er relationshipLabel">placement</text><rect height="14" width="45.1484375" y="1416.151123046875" x="455.2432556152344" class="er relationshipLabelBox"/><text style="text-anchor: middle; dominant-baseline: middle; font-size: 12px;" y="1423.151123046875" x="477.8174743652344" id="rel16" class="er relationshipLabel">type_of</text></svg>