<svg aria-roledescription="er" role="graphics-document document" viewBox="0 0 189.24969482421875 835" style="max-width: 189.25px; background-color: white;" xmlns:xlink="http://www.w3.org/1999/xlink" xmlns="http://www.w3.org/2000/svg" width="100%" id="my-svg"><style>#my-svg{font-family:"trebuchet ms",verdana,arial,sans-serif;font-size:16px;fill:#333;}#my-svg .error-icon{fill:#552222;}#my-svg .error-text{fill:#552222;stroke:#552222;}#my-svg .edge-thickness-normal{stroke-width:1px;}#my-svg .edge-thickness-thick{stroke-width:3.5px;}#my-svg .edge-pattern-solid{stroke-dasharray:0;}#my-svg .edge-thickness-invisible{stroke-width:0;fill:none;}#my-svg .edge-pattern-dashed{stroke-dasharray:3;}#my-svg .edge-pattern-dotted{stroke-dasharray:2;}#my-svg .marker{fill:#333333;stroke:#333333;}#my-svg .marker.cross{stroke:#333333;}#my-svg svg{font-family:"trebuchet ms",verdana,arial,sans-serif;font-size:16px;}#my-svg p{margin:0;}#my-svg .entityBox{fill:#ECECFF;stroke:#9370DB;}#my-svg .attributeBoxOdd{fill:#ffffff;stroke:#9370DB;}#my-svg .attributeBoxEven{fill:#f2f2f2;stroke:#9370DB;}#my-svg .relationshipLabelBox{fill:hsl(80, 100%, 96.2745098039%);opacity:0.7;background-color:hsl(80, 100%, 96.2745098039%);}#my-svg .relationshipLabelBox rect{opacity:0.5;}#my-svg .relationshipLine{stroke:#333333;}#my-svg .entityTitleText{text-anchor:middle;font-size:18px;fill:#333;}#my-svg #MD_PARENT_START{fill:#f5f5f5!important;stroke:#333333!important;stroke-width:1;}#my-svg #MD_PARENT_END{fill:#f5f5f5!important;stroke:#333333!important;stroke-width:1;}#my-svg :root{--mermaid-font-family:"trebuchet ms",verdana,arial,sans-serif;}</style><g/><defs><marker orient="auto" markerHeight="240" markerWidth="190" refY="7" refX="0" id="MD_PARENT_START"><path d="M 18,7 L9,13 L1,7 L9,1 Z"/></marker></defs><defs><marker orient="auto" markerHeight="28" markerWidth="20" refY="7" refX="19" id="MD_PARENT_END"><path d="M 18,7 L9,13 L1,7 L9,1 Z"/></marker></defs><defs><marker orient="auto" markerHeight="18" markerWidth="18" refY="9" refX="0" id="ONLY_ONE_START"><path d="M9,0 L9,18 M15,0 L15,18" fill="none" stroke="gray"/></marker></defs><defs><marker orient="auto" markerHeight="18" markerWidth="18" refY="9" refX="18" id="ONLY_ONE_END"><path d="M3,0 L3,18 M9,0 L9,18" fill="none" stroke="gray"/></marker></defs><defs><marker orient="auto" markerHeight="18" markerWidth="30" refY="9" refX="0" id="ZERO_OR_ONE_START"><circle r="6" cy="9" cx="21" fill="white" stroke="gray"/><path d="M9,0 L9,18" fill="none" stroke="gray"/></marker></defs><defs><marker orient="auto" markerHeight="18" markerWidth="30" refY="9" refX="30" id="ZERO_OR_ONE_END"><circle r="6" cy="9" cx="9" fill="white" stroke="gray"/><path d="M21,0 L21,18" fill="none" stroke="gray"/></marker></defs><defs><marker orient="auto" markerHeight="36" markerWidth="45" refY="18" refX="18" id="ONE_OR_MORE_START"><path d="M0,18 Q 18,0 36,18 Q 18,36 0,18 M42,9 L42,27" fill="none" stroke="gray"/></marker></defs><defs><marker orient="auto" markerHeight="36" markerWidth="45" refY="18" refX="27" id="ONE_OR_MORE_END"><path d="M3,9 L3,27 M9,18 Q27,0 45,18 Q27,36 9,18" fill="none" stroke="gray"/></marker></defs><defs><marker orient="auto" markerHeight="36" markerWidth="57" refY="18" refX="18" id="ZERO_OR_MORE_START"><circle r="6" cy="18" cx="48" fill="white" stroke="gray"/><path d="M0,18 Q18,0 36,18 Q18,36 0,18" fill="none" stroke="gray"/></marker></defs><defs><marker orient="auto" markerHeight="36" markerWidth="57" refY="18" refX="39" id="ZERO_OR_MORE_END"><circle r="6" cy="18" cx="9" fill="white" stroke="gray"/><path d="M21,18 Q39,0 57,18 Q39,36 21,18" fill="none" stroke="gray"/></marker></defs><path style="stroke: gray; fill: none;" marker-start="url(#ONLY_ONE_START)" marker-end="url(#ZERO_OR_ONE_END)" d="M94.625,86L94.625,94.333C94.625,102.667,94.625,119.333,94.625,136C94.625,152.667,94.625,169.333,94.625,177.667L94.625,186" class="er relationshipLine"/><path style="stroke: gray; fill: none;" marker-start="url(#ONLY_ONE_START)" marker-end="url(#ZERO_OR_MORE_END)" d="M94.625,336L94.625,344.333C94.625,352.667,94.625,369.333,94.625,386C94.625,402.667,94.625,419.333,94.625,427.667L94.625,436" class="er relationshipLine"/><path style="stroke: gray; fill: none;" marker-start="url(#ONLY_ONE_START)" marker-end="url(#ZERO_OR_MORE_END)" d="M94.625,649L94.625,657.333C94.625,665.667,94.625,682.333,94.625,699C94.625,715.667,94.625,732.333,94.625,740.667L94.625,749" class="er relationshipLine"/><g transform="translate(44.624847412109375,20 )" id="entity-Container-bc34fb32-8a75-5b81-936b-92374bf40296"><rect height="66" width="100" y="0" x="0" class="er entityBox"/><text style="dominant-baseline: middle; text-anchor: middle; font-size: 12px;" transform="translate(50,12)" y="0" x="0" id="text-entity-Container-bc34fb32-8a75-5b81-936b-92374bf40296" class="er entityLabel">Container</text><rect height="21" width="41.21775817871094" y="24" x="0" class="er attributeBoxOdd"/><text style="dominant-baseline: middle; font-size: 10.2px;" transform="translate(5,34.5)" y="0" x="0" id="text-entity-Container-bc34fb32-8a75-5b81-936b-92374bf40296-attr-1-type" class="er entityLabel">string</text><rect height="21" width="58.78224182128906" y="24" x="41.21775817871094" class="er attributeBoxOdd"/><text style="dominant-baseline: middle; font-size: 10.2px;" transform="translate(46.21775817871094,34.5)" y="0" x="0" id="text-entity-Container-bc34fb32-8a75-5b81-936b-92374bf40296-attr-1-name" class="er entityLabel">iri</text><rect height="21" width="41.21775817871094" y="45" x="0" class="er attributeBoxEven"/><text style="dominant-baseline: middle; font-size: 10.2px;" transform="translate(5,55.5)" y="0" x="0" id="text-entity-Container-bc34fb32-8a75-5b81-936b-92374bf40296-attr-2-type" class="er entityLabel">string</text><rect height="21" width="58.78224182128906" y="45" x="41.21775817871094" class="er attributeBoxEven"/><text style="dominant-baseline: middle; font-size: 10.2px;" transform="translate(46.21775817871094,55.5)" y="0" x="0" id="text-entity-Container-bc34fb32-8a75-5b81-936b-92374bf40296-attr-2-name" class="er entityLabel">metadata</text></g><g transform="translate(29.771331787109375,186 )" id="entity-AssayDatasetData-3941e4dc-3f5c-5382-92d5-ed9710e66eb9"><rect height="150" width="129.70703125" y="0" x="0" class="er entityBox"/><text style="dominant-baseline: middle; text-anchor: middle; font-size: 12px;" transform="translate(64.853515625,12)" y="0" x="0" id="text-entity-AssayDatasetData-3941e4dc-3f5c-5382-92d5-ed9710e66eb9" class="er entityLabel">AssayDatasetData</text><rect height="21" width="45.60520935058594" y="24" x="0" class="er attributeBoxOdd"/><text style="dominant-baseline: middle; font-size: 10.2px;" transform="translate(5,34.5)" y="0" x="0" id="text-entity-AssayDatasetData-3941e4dc-3f5c-5382-92d5-ed9710e66eb9-attr-1-type" class="er entityLabel">string</text><rect height="21" width="84.10182189941406" y="24" x="45.60520935058594" class="er attributeBoxOdd"/><text style="dominant-baseline: middle; font-size: 10.2px;" transform="translate(50.60520935058594,34.5)" y="0" x="0" id="text-entity-AssayDatasetData-3941e4dc-3f5c-5382-92d5-ed9710e66eb9-attr-1-name" class="er entityLabel">donor</text><rect height="21" width="45.60520935058594" y="45" x="0" class="er attributeBoxEven"/><text style="dominant-baseline: middle; font-size: 10.2px;" transform="translate(5,55.5)" y="0" x="0" id="text-entity-AssayDatasetData-3941e4dc-3f5c-5382-92d5-ed9710e66eb9-attr-2-type" class="er entityLabel">string</text><rect height="21" width="84.10182189941406" y="45" x="45.60520935058594" class="er attributeBoxEven"/><text style="dominant-baseline: middle; font-size: 10.2px;" transform="translate(50.60520935058594,55.5)" y="0" x="0" id="text-entity-AssayDatasetData-3941e4dc-3f5c-5382-92d5-ed9710e66eb9-attr-2-name" class="er entityLabel">sample</text><rect height="21" width="45.60520935058594" y="66" x="0" class="er attributeBoxOdd"/><text style="dominant-baseline: middle; font-size: 10.2px;" transform="translate(5,76.5)" y="0" x="0" id="text-entity-AssayDatasetData-3941e4dc-3f5c-5382-92d5-ed9710e66eb9-attr-3-type" class="er entityLabel">string</text><rect height="21" width="84.10182189941406" y="66" x="45.60520935058594" class="er attributeBoxOdd"/><text style="dominant-baseline: middle; font-size: 10.2px;" transform="translate(50.60520935058594,76.5)" y="0" x="0" id="text-entity-AssayDatasetData-3941e4dc-3f5c-5382-92d5-ed9710e66eb9-attr-3-name" class="er entityLabel">spatial_entity</text><rect height="21" width="45.60520935058594" y="87" x="0" class="er attributeBoxEven"/><text style="dominant-baseline: middle; font-size: 10.2px;" transform="translate(5,97.5)" y="0" x="0" id="text-entity-AssayDatasetData-3941e4dc-3f5c-5382-92d5-ed9710e66eb9-attr-4-type" class="er entityLabel">string</text><rect height="21" width="84.10182189941406" y="87" x="45.60520935058594" class="er attributeBoxEven"/><text style="dominant-baseline: middle; font-size: 10.2px;" transform="translate(50.60520935058594,97.5)" y="0" x="0" id="text-entity-AssayDatasetData-3941e4dc-3f5c-5382-92d5-ed9710e66eb9-attr-4-name" class="er entityLabel">cell_summary</text><rect height="21" width="45.60520935058594" y="108" x="0" class="er attributeBoxOdd"/><text style="dominant-baseline: middle; font-size: 10.2px;" transform="translate(5,118.5)" y="0" x="0" id="text-entity-AssayDatasetData-3941e4dc-3f5c-5382-92d5-ed9710e66eb9-attr-5-type" class="er entityLabel">string</text><rect height="21" width="84.10182189941406" y="108" x="45.60520935058594" class="er attributeBoxOdd"/><text style="dominant-baseline: middle; font-size: 10.2px;" transform="translate(50.60520935058594,118.5)" y="0" x="0" id="text-entity-AssayDatasetData-3941e4dc-3f5c-5382-92d5-ed9710e66eb9-attr-5-name" class="er entityLabel">collision</text><rect height="21" width="45.60520935058594" y="129" x="0" class="er attributeBoxEven"/><text style="dominant-baseline: middle; font-size: 10.2px;" transform="translate(5,139.5)" y="0" x="0" id="text-entity-AssayDatasetData-3941e4dc-3f5c-5382-92d5-ed9710e66eb9-attr-6-type" class="er entityLabel">string</text><rect height="21" width="84.10182189941406" y="129" x="45.60520935058594" class="er attributeBoxEven"/><text style="dominant-baseline: middle; font-size: 10.2px;" transform="translate(50.60520935058594,139.5)" y="0" x="0" id="text-entity-AssayDatasetData-3941e4dc-3f5c-5382-92d5-ed9710e66eb9-attr-6-name" class="er entityLabel">corridor</text></g><g transform="translate(20,436 )" id="entity-AssayDataset-120c984f-7c2a-504e-a848-d48bcd9654fc"><rect height="213" width="149.24969482421875" y="0" x="0" class="er entityBox"/><text style="dominant-baseline: middle; text-anchor: middle; font-size: 12px;" transform="translate(74.62484741210938,12)" y="0" x="0" id="text-entity-AssayDataset-120c984f-7c2a-504e-a848-d48bcd9654fc" class="er entityLabel">AssayDataset</text><rect height="21" width="68.48406982421875" y="24" x="0" class="er attributeBoxOdd"/><text style="dominant-baseline: middle; font-size: 10.2px;" transform="translate(5,34.5)" y="0" x="0" id="text-entity-AssayDataset-120c984f-7c2a-504e-a848-d48bcd9654fc-attr-1-type" class="er entityLabel">string</text><rect height="21" width="80.765625" y="24" x="68.48406982421875" class="er attributeBoxOdd"/><text style="dominant-baseline: middle; font-size: 10.2px;" transform="translate(73.48406982421875,34.5)" y="0" x="0" id="text-entity-AssayDataset-120c984f-7c2a-504e-a848-d48bcd9654fc-attr-1-name" class="er entityLabel">pref_label</text><rect height="21" width="68.48406982421875" y="45" x="0" class="er attributeBoxEven"/><text style="dominant-baseline: middle; font-size: 10.2px;" transform="translate(5,55.5)" y="0" x="0" id="text-entity-AssayDataset-120c984f-7c2a-504e-a848-d48bcd9654fc-attr-2-type" class="er entityLabel">string</text><rect height="21" width="80.765625" y="45" x="68.48406982421875" class="er attributeBoxEven"/><text style="dominant-baseline: middle; font-size: 10.2px;" transform="translate(73.48406982421875,55.5)" y="0" x="0" id="text-entity-AssayDataset-120c984f-7c2a-504e-a848-d48bcd9654fc-attr-2-name" class="er entityLabel">description</text><rect height="21" width="68.48406982421875" y="66" x="0" class="er attributeBoxOdd"/><text style="dominant-baseline: middle; font-size: 10.2px;" transform="translate(5,76.5)" y="0" x="0" id="text-entity-AssayDataset-120c984f-7c2a-504e-a848-d48bcd9654fc-attr-3-type" class="er entityLabel">string</text><rect height="21" width="80.765625" y="66" x="68.48406982421875" class="er attributeBoxOdd"/><text style="dominant-baseline: middle; font-size: 10.2px;" transform="translate(73.48406982421875,76.5)" y="0" x="0" id="text-entity-AssayDataset-120c984f-7c2a-504e-a848-d48bcd9654fc-attr-3-name" class="er entityLabel">external_link</text><rect height="21" width="68.48406982421875" y="87" x="0" class="er attributeBoxEven"/><text style="dominant-baseline: middle; font-size: 10.2px;" transform="translate(5,97.5)" y="0" x="0" id="text-entity-AssayDataset-120c984f-7c2a-504e-a848-d48bcd9654fc-attr-4-type" class="er entityLabel">string</text><rect height="21" width="80.765625" y="87" x="68.48406982421875" class="er attributeBoxEven"/><text style="dominant-baseline: middle; font-size: 10.2px;" transform="translate(73.48406982421875,97.5)" y="0" x="0" id="text-entity-AssayDataset-120c984f-7c2a-504e-a848-d48bcd9654fc-attr-4-name" class="er entityLabel">technology</text><rect height="21" width="68.48406982421875" y="108" x="0" class="er attributeBoxOdd"/><text style="dominant-baseline: middle; font-size: 10.2px;" transform="translate(5,118.5)" y="0" x="0" id="text-entity-AssayDataset-120c984f-7c2a-504e-a848-d48bcd9654fc-attr-5-type" class="er entityLabel">string</text><rect height="21" width="80.765625" y="108" x="68.48406982421875" class="er attributeBoxOdd"/><text style="dominant-baseline: middle; font-size: 10.2px;" transform="translate(73.48406982421875,118.5)" y="0" x="0" id="text-entity-AssayDataset-120c984f-7c2a-504e-a848-d48bcd9654fc-attr-5-name" class="er entityLabel">thumbnail</text><rect height="21" width="68.48406982421875" y="129" x="0" class="er attributeBoxEven"/><text style="dominant-baseline: middle; font-size: 10.2px;" transform="translate(5,139.5)" y="0" x="0" id="text-entity-AssayDataset-120c984f-7c2a-504e-a848-d48bcd9654fc-attr-6-type" class="er entityLabel">uriorcurieList</text><rect height="21" width="80.765625" y="129" x="68.48406982421875" class="er attributeBoxEven"/><text style="dominant-baseline: middle; font-size: 10.2px;" transform="translate(73.48406982421875,139.5)" y="0" x="0" id="text-entity-AssayDataset-120c984f-7c2a-504e-a848-d48bcd9654fc-attr-6-name" class="er entityLabel">cell_summaries</text><rect height="21" width="68.48406982421875" y="150" x="0" class="er attributeBoxOdd"/><text style="dominant-baseline: middle; font-size: 10.2px;" transform="translate(5,160.5)" y="0" x="0" id="text-entity-AssayDataset-120c984f-7c2a-504e-a848-d48bcd9654fc-attr-7-type" class="er entityLabel">uriorcurie</text><rect height="21" width="80.765625" y="150" x="68.48406982421875" class="er attributeBoxOdd"/><text style="dominant-baseline: middle; font-size: 10.2px;" transform="translate(73.48406982421875,160.5)" y="0" x="0" id="text-entity-AssayDataset-120c984f-7c2a-504e-a848-d48bcd9654fc-attr-7-name" class="er entityLabel">links_back_to</text><rect height="21" width="68.48406982421875" y="171" x="0" class="er attributeBoxEven"/><text style="dominant-baseline: middle; font-size: 10.2px;" transform="translate(5,181.5)" y="0" x="0" id="text-entity-AssayDataset-120c984f-7c2a-504e-a848-d48bcd9654fc-attr-8-type" class="er entityLabel">uriorcurie</text><rect height="21" width="80.765625" y="171" x="68.48406982421875" class="er attributeBoxEven"/><text style="dominant-baseline: middle; font-size: 10.2px;" transform="translate(73.48406982421875,181.5)" y="0" x="0" id="text-entity-AssayDataset-120c984f-7c2a-504e-a848-d48bcd9654fc-attr-8-name" class="er entityLabel">id</text><rect height="21" width="68.48406982421875" y="192" x="0" class="er attributeBoxOdd"/><text style="dominant-baseline: middle; font-size: 10.2px;" transform="translate(5,202.5)" y="0" x="0" id="text-entity-AssayDataset-120c984f-7c2a-504e-a848-d48bcd9654fc-attr-9-type" class="er entityLabel">string</text><rect height="21" width="80.765625" y="192" x="68.48406982421875" class="er attributeBoxOdd"/><text style="dominant-baseline: middle; font-size: 10.2px;" transform="translate(73.48406982421875,202.5)" y="0" x="0" id="text-entity-AssayDataset-120c984f-7c2a-504e-a848-d48bcd9654fc-attr-9-name" class="er entityLabel">label</text></g><g transform="translate(44.624847412109375,749 )" id="entity-Named-527792da-945b-57c2-aece-6a504f46f916"><rect height="66" width="100" y="0" x="0" class="er entityBox"/><text style="dominant-baseline: middle; text-anchor: middle; font-size: 12px;" transform="translate(50,12)" y="0" x="0" id="text-entity-Named-527792da-945b-57c2-aece-6a504f46f916" class="er entityLabel">Named</text><rect height="21" width="60.63206481933594" y="24" x="0" class="er attributeBoxOdd"/><text style="dominant-baseline: middle; font-size: 10.2px;" transform="translate(5,34.5)" y="0" x="0" id="text-entity-Named-527792da-945b-57c2-aece-6a504f46f916-attr-1-type" class="er entityLabel">uriorcurie</text><rect height="21" width="39.36793518066406" y="24" x="60.63206481933594" class="er attributeBoxOdd"/><text style="dominant-baseline: middle; font-size: 10.2px;" transform="translate(65.63206481933594,34.5)" y="0" x="0" id="text-entity-Named-527792da-945b-57c2-aece-6a504f46f916-attr-1-name" class="er entityLabel">id</text><rect height="21" width="60.63206481933594" y="45" x="0" class="er attributeBoxEven"/><text style="dominant-baseline: middle; font-size: 10.2px;" transform="translate(5,55.5)" y="0" x="0" id="text-entity-Named-527792da-945b-57c2-aece-6a504f46f916-attr-2-type" class="er entityLabel">string</text><rect height="21" width="39.36793518066406" y="45" x="60.63206481933594" class="er attributeBoxEven"/><text style="dominant-baseline: middle; font-size: 10.2px;" transform="translate(65.63206481933594,55.5)" y="0" x="0" id="text-entity-Named-527792da-945b-57c2-aece-6a504f46f916-attr-2-name" class="er entityLabel">label</text></g><rect height="14" width="23.681640625" y="129" x="82.7841796875" class="er relationshipLabelBox"/><text style="text-anchor: middle; dominant-baseline: middle; font-size: 12px;" y="136" x="94.625" id="rel1" class="er relationshipLabel">data</text><rect height="14" width="40.029296875" y="379" x="74.6103515625" class="er relationshipLabelBox"/><text style="text-anchor: middle; dominant-baseline: middle; font-size: 12px;" y="386" x="94.625" id="rel2" class="er relationshipLabel">dataset</text><rect height="14" width="40.029296875" y="692" x="74.6103515625" class="er relationshipLabelBox"/><text style="text-anchor: middle; dominant-baseline: middle; font-size: 12px;" y="699" x="94.625" id="rel3" class="er relationshipLabel">type_of</text></svg>