<svg aria-roledescription="er" role="graphics-document document" viewBox="-77.73064422607422 0 493.4970703125 1272" style="max-width: 493.497px; background-color: white;" xmlns:xlink="http://www.w3.org/1999/xlink" xmlns="http://www.w3.org/2000/svg" width="100%" id="my-svg"><style>#my-svg{font-family:"trebuchet ms",verdana,arial,sans-serif;font-size:16px;fill:#333;}#my-svg .error-icon{fill:#552222;}#my-svg .error-text{fill:#552222;stroke:#552222;}#my-svg .edge-thickness-normal{stroke-width:1px;}#my-svg .edge-thickness-thick{stroke-width:3.5px;}#my-svg .edge-pattern-solid{stroke-dasharray:0;}#my-svg .edge-thickness-invisible{stroke-width:0;fill:none;}#my-svg .edge-pattern-dashed{stroke-dasharray:3;}#my-svg .edge-pattern-dotted{stroke-dasharray:2;}#my-svg .marker{fill:#333333;stroke:#333333;}#my-svg .marker.cross{stroke:#333333;}#my-svg svg{font-family:"trebuchet ms",verdana,arial,sans-serif;font-size:16px;}#my-svg p{margin:0;}#my-svg .entityBox{fill:#ECECFF;stroke:#9370DB;}#my-svg .attributeBoxOdd{fill:#ffffff;stroke:#9370DB;}#my-svg .attributeBoxEven{fill:#f2f2f2;stroke:#9370DB;}#my-svg .relationshipLabelBox{fill:hsl(80, 100%, 96.2745098039%);opacity:0.7;background-color:hsl(80, 100%, 96.2745098039%);}#my-svg .relationshipLabelBox rect{opacity:0.5;}#my-svg .relationshipLine{stroke:#333333;}#my-svg .entityTitleText{text-anchor:middle;font-size:18px;fill:#333;}#my-svg #MD_PARENT_START{fill:#f5f5f5!important;stroke:#333333!important;stroke-width:1;}#my-svg #MD_PARENT_END{fill:#f5f5f5!important;stroke:#333333!important;stroke-width:1;}#my-svg :root{--mermaid-font-family:"trebuchet ms",verdana,arial,sans-serif;}</style><g/><defs><marker orient="auto" markerHeight="240" markerWidth="190" refY="7" refX="0" id="MD_PARENT_START"><path d="M 18,7 L9,13 L1,7 L9,1 Z"/></marker></defs><defs><marker orient="auto" markerHeight="28" markerWidth="20" refY="7" refX="19" id="MD_PARENT_END"><path d="M 18,7 L9,13 L1,7 L9,1 Z"/></marker></defs><defs><marker orient="auto" markerHeight="18" markerWidth="18" refY="9" refX="0" id="ONLY_ONE_START"><path d="M9,0 L9,18 M15,0 L15,18" fill="none" stroke="gray"/></marker></defs><defs><marker orient="auto" markerHeight="18" markerWidth="18" refY="9" refX="18" id="ONLY_ONE_END"><path d="M3,0 L3,18 M9,0 L9,18" fill="none" stroke="gray"/></marker></defs><defs><marker orient="auto" markerHeight="18" markerWidth="30" refY="9" refX="0" id="ZERO_OR_ONE_START"><circle r="6" cy="9" cx="21" fill="white" stroke="gray"/><path d="M9,0 L9,18" fill="none" stroke="gray"/></marker></defs><defs><marker orient="auto" markerHeight="18" markerWidth="30" refY="9" refX="30" id="ZERO_OR_ONE_END"><circle r="6" cy="9" cx="9" fill="white" stroke="gray"/><path d="M21,0 L21,18" fill="none" stroke="gray"/></marker></defs><defs><marker orient="auto" markerHeight="36" markerWidth="45" refY="18" refX="18" id="ONE_OR_MORE_START"><path d="M0,18 Q 18,0 36,18 Q 18,36 0,18 M42,9 L42,27" fill="none" stroke="gray"/></marker></defs><defs><marker orient="auto" markerHeight="36" markerWidth="45" refY="18" refX="27" id="ONE_OR_MORE_END"><path d="M3,9 L3,27 M9,18 Q27,0 45,18 Q27,36 9,18" fill="none" stroke="gray"/></marker></defs><defs><marker orient="auto" markerHeight="36" markerWidth="57" refY="18" refX="18" id="ZERO_OR_MORE_START"><circle r="6" cy="18" cx="48" fill="white" stroke="gray"/><path d="M0,18 Q18,0 36,18 Q18,36 0,18" fill="none" stroke="gray"/></marker></defs><defs><marker orient="auto" markerHeight="36" markerWidth="57" refY="18" refX="39" id="ZERO_OR_MORE_END"><circle r="6" cy="18" cx="9" fill="white" stroke="gray"/><path d="M21,18 Q39,0 57,18 Q39,36 21,18" fill="none" stroke="gray"/></marker></defs><path style="stroke: gray; fill: none;" marker-start="url(#ONLY_ONE_START)" marker-end="url(#ZERO_OR_ONE_END)" d="M112.758,86L112.758,94.333C112.758,102.667,112.758,119.333,112.758,136C112.758,152.667,112.758,169.333,112.758,177.667L112.758,186" class="er relationshipLine"/><path style="stroke: gray; fill: none;" marker-start="url(#ONLY_ONE_START)" marker-end="url(#ZERO_OR_MORE_END)" d="M112.758,336L112.758,344.333C112.758,352.667,112.758,369.333,112.758,386C112.758,402.667,112.758,419.333,112.758,427.667L112.758,436" class="er relationshipLine"/><path style="stroke: gray; fill: none;" marker-start="url(#ONLY_ONE_START)" marker-end="url(#ONE_OR_MORE_END)" d="M161.71,586L167.15,594.333C172.589,602.667,183.467,619.333,188.906,636C194.346,652.667,194.346,669.333,194.346,677.667L194.346,686" class="er relationshipLine"/><path style="stroke: gray; fill: none;" marker-start="url(#ONLY_ONE_START)" marker-end="url(#ZERO_OR_MORE_END)" d="M22.473,586L12.442,594.333C2.41,602.667,-17.653,619.333,-27.684,648.5C-37.716,677.667,-37.716,719.333,-37.716,761C-37.716,802.667,-37.716,844.333,-37.716,886C-37.716,927.667,-37.716,969.333,-37.716,1011C-37.716,1052.667,-37.716,1094.333,-24.118,1123.744C-10.52,1153.154,16.676,1170.308,30.274,1178.885L43.872,1187.462" class="er relationshipLine"/><path style="stroke: gray; fill: none;" marker-start="url(#ONLY_ONE_START)" marker-end="url(#ZERO_OR_MORE_END)" d="M254.63,836L261.328,844.333C268.026,852.667,281.423,869.333,288.121,886C294.819,902.667,294.819,919.333,294.819,927.667L294.819,936" class="er relationshipLine"/><path style="stroke: gray; fill: none;" marker-start="url(#ONLY_ONE_START)" marker-end="url(#ZERO_OR_MORE_END)" d="M134.061,836L127.363,844.333C120.665,852.667,107.268,869.333,100.57,898.5C93.872,927.667,93.872,969.333,93.872,1011C93.872,1052.667,93.872,1094.333,93.872,1123.5C93.872,1152.667,93.872,1169.333,93.872,1177.667L93.872,1186" class="er relationshipLine"/><path style="stroke: gray; fill: none;" marker-start="url(#ONLY_ONE_START)" marker-end="url(#ZERO_OR_MORE_END)" d="M294.819,1086L294.819,1094.333C294.819,1102.667,294.819,1119.333,269.661,1138.058C244.503,1156.783,194.188,1177.565,169.03,1187.957L143.872,1198.348" class="er relationshipLine"/><g transform="translate(62.757659912109375,20 )" id="entity-Container-bc34fb32-8a75-5b81-936b-92374bf40296"><rect height="66" width="100" y="0" x="0" class="er entityBox"/><text style="dominant-baseline: middle; text-anchor: middle; font-size: 12px;" transform="translate(50,12)" y="0" x="0" id="text-entity-Container-bc34fb32-8a75-5b81-936b-92374bf40296" class="er entityLabel">Container</text><rect height="21" width="41.21775817871094" y="24" x="0" class="er attributeBoxOdd"/><text style="dominant-baseline: middle; font-size: 10.2px;" transform="translate(5,34.5)" y="0" x="0" id="text-entity-Container-bc34fb32-8a75-5b81-936b-92374bf40296-attr-1-type" class="er entityLabel">string</text><rect height="21" width="58.78224182128906" y="24" x="41.21775817871094" class="er attributeBoxOdd"/><text style="dominant-baseline: middle; font-size: 10.2px;" transform="translate(46.21775817871094,34.5)" y="0" x="0" id="text-entity-Container-bc34fb32-8a75-5b81-936b-92374bf40296-attr-1-name" class="er entityLabel">iri</text><rect height="21" width="41.21775817871094" y="45" x="0" class="er attributeBoxEven"/><text style="dominant-baseline: middle; font-size: 10.2px;" transform="translate(5,55.5)" y="0" x="0" id="text-entity-Container-bc34fb32-8a75-5b81-936b-92374bf40296-attr-2-type" class="er entityLabel">string</text><rect height="21" width="58.78224182128906" y="45" x="41.21775817871094" class="er attributeBoxEven"/><text style="dominant-baseline: middle; font-size: 10.2px;" transform="translate(46.21775817871094,55.5)" y="0" x="0" id="text-entity-Container-bc34fb32-8a75-5b81-936b-92374bf40296-attr-2-name" class="er entityLabel">metadata</text></g><g transform="translate(48.914886474609375,186 )" id="entity-CellSummaryData-01877285-8b8e-5081-8d0c-af66f80061f2"><rect height="150" width="127.685546875" y="0" x="0" class="er entityBox"/><text style="dominant-baseline: middle; text-anchor: middle; font-size: 12px;" transform="translate(63.8427734375,12)" y="0" x="0" id="text-entity-CellSummaryData-01877285-8b8e-5081-8d0c-af66f80061f2" class="er entityLabel">CellSummaryData</text><rect height="21" width="46.28077697753906" y="24" x="0" class="er attributeBoxOdd"/><text style="dominant-baseline: middle; font-size: 10.2px;" transform="translate(5,34.5)" y="0" x="0" id="text-entity-CellSummaryData-01877285-8b8e-5081-8d0c-af66f80061f2-attr-1-type" class="er entityLabel">string</text><rect height="21" width="81.40476989746094" y="24" x="46.28077697753906" class="er attributeBoxOdd"/><text style="dominant-baseline: middle; font-size: 10.2px;" transform="translate(51.28077697753906,34.5)" y="0" x="0" id="text-entity-CellSummaryData-01877285-8b8e-5081-8d0c-af66f80061f2-attr-1-name" class="er entityLabel">donor</text><rect height="21" width="46.28077697753906" y="45" x="0" class="er attributeBoxEven"/><text style="dominant-baseline: middle; font-size: 10.2px;" transform="translate(5,55.5)" y="0" x="0" id="text-entity-CellSummaryData-01877285-8b8e-5081-8d0c-af66f80061f2-attr-2-type" class="er entityLabel">string</text><rect height="21" width="81.40476989746094" y="45" x="46.28077697753906" class="er attributeBoxEven"/><text style="dominant-baseline: middle; font-size: 10.2px;" transform="translate(51.28077697753906,55.5)" y="0" x="0" id="text-entity-CellSummaryData-01877285-8b8e-5081-8d0c-af66f80061f2-attr-2-name" class="er entityLabel">sample</text><rect height="21" width="46.28077697753906" y="66" x="0" class="er attributeBoxOdd"/><text style="dominant-baseline: middle; font-size: 10.2px;" transform="translate(5,76.5)" y="0" x="0" id="text-entity-CellSummaryData-01877285-8b8e-5081-8d0c-af66f80061f2-attr-3-type" class="er entityLabel">string</text><rect height="21" width="81.40476989746094" y="66" x="46.28077697753906" class="er attributeBoxOdd"/><text style="dominant-baseline: middle; font-size: 10.2px;" transform="translate(51.28077697753906,76.5)" y="0" x="0" id="text-entity-CellSummaryData-01877285-8b8e-5081-8d0c-af66f80061f2-attr-3-name" class="er entityLabel">dataset</text><rect height="21" width="46.28077697753906" y="87" x="0" class="er attributeBoxEven"/><text style="dominant-baseline: middle; font-size: 10.2px;" transform="translate(5,97.5)" y="0" x="0" id="text-entity-CellSummaryData-01877285-8b8e-5081-8d0c-af66f80061f2-attr-4-type" class="er entityLabel">string</text><rect height="21" width="81.40476989746094" y="87" x="46.28077697753906" class="er attributeBoxEven"/><text style="dominant-baseline: middle; font-size: 10.2px;" transform="translate(51.28077697753906,97.5)" y="0" x="0" id="text-entity-CellSummaryData-01877285-8b8e-5081-8d0c-af66f80061f2-attr-4-name" class="er entityLabel">spatial_entity</text><rect height="21" width="46.28077697753906" y="108" x="0" class="er attributeBoxOdd"/><text style="dominant-baseline: middle; font-size: 10.2px;" transform="translate(5,118.5)" y="0" x="0" id="text-entity-CellSummaryData-01877285-8b8e-5081-8d0c-af66f80061f2-attr-5-type" class="er entityLabel">string</text><rect height="21" width="81.40476989746094" y="108" x="46.28077697753906" class="er attributeBoxOdd"/><text style="dominant-baseline: middle; font-size: 10.2px;" transform="translate(51.28077697753906,118.5)" y="0" x="0" id="text-entity-CellSummaryData-01877285-8b8e-5081-8d0c-af66f80061f2-attr-5-name" class="er entityLabel">collision</text><rect height="21" width="46.28077697753906" y="129" x="0" class="er attributeBoxEven"/><text style="dominant-baseline: middle; font-size: 10.2px;" transform="translate(5,139.5)" y="0" x="0" id="text-entity-CellSummaryData-01877285-8b8e-5081-8d0c-af66f80061f2-attr-6-type" class="er entityLabel">string</text><rect height="21" width="81.40476989746094" y="129" x="46.28077697753906" class="er attributeBoxEven"/><text style="dominant-baseline: middle; font-size: 10.2px;" transform="translate(51.28077697753906,139.5)" y="0" x="0" id="text-entity-CellSummaryData-01877285-8b8e-5081-8d0c-af66f80061f2-attr-6-name" class="er entityLabel">corridor</text></g><g transform="translate(20,436 )" id="entity-CellSummary-8c926ae0-12f6-5efa-bf9c-bb558c567bb2"><rect height="150" width="185.51531982421875" y="0" x="0" class="er entityBox"/><text style="dominant-baseline: middle; text-anchor: middle; font-size: 12px;" transform="translate(92.75765991210938,12)" y="0" x="0" id="text-entity-CellSummary-8c926ae0-12f6-5efa-bf9c-bb558c567bb2" class="er entityLabel">CellSummary</text><rect height="21" width="68.48406982421875" y="24" x="0" class="er attributeBoxOdd"/><text style="dominant-baseline: middle; font-size: 10.2px;" transform="translate(5,34.5)" y="0" x="0" id="text-entity-CellSummary-8c926ae0-12f6-5efa-bf9c-bb558c567bb2-attr-1-type" class="er entityLabel">string</text><rect height="21" width="117.03125" y="24" x="68.48406982421875" class="er attributeBoxOdd"/><text style="dominant-baseline: middle; font-size: 10.2px;" transform="translate(73.48406982421875,34.5)" y="0" x="0" id="text-entity-CellSummary-8c926ae0-12f6-5efa-bf9c-bb558c567bb2-attr-1-name" class="er entityLabel">annotation_method</text><rect height="21" width="68.48406982421875" y="45" x="0" class="er attributeBoxEven"/><text style="dominant-baseline: middle; font-size: 10.2px;" transform="translate(5,55.5)" y="0" x="0" id="text-entity-CellSummary-8c926ae0-12f6-5efa-bf9c-bb558c567bb2-attr-2-type" class="er entityLabel">uriorcurieList</text><rect height="21" width="117.03125" y="45" x="68.48406982421875" class="er attributeBoxEven"/><text style="dominant-baseline: middle; font-size: 10.2px;" transform="translate(73.48406982421875,55.5)" y="0" x="0" id="text-entity-CellSummary-8c926ae0-12f6-5efa-bf9c-bb558c567bb2-attr-2-name" class="er entityLabel">aggregated_summaries</text><rect height="21" width="68.48406982421875" y="66" x="0" class="er attributeBoxOdd"/><text style="dominant-baseline: middle; font-size: 10.2px;" transform="translate(5,76.5)" y="0" x="0" id="text-entity-CellSummary-8c926ae0-12f6-5efa-bf9c-bb558c567bb2-attr-3-type" class="er entityLabel">string</text><rect height="21" width="117.03125" y="66" x="68.48406982421875" class="er attributeBoxOdd"/><text style="dominant-baseline: middle; font-size: 10.2px;" transform="translate(73.48406982421875,76.5)" y="0" x="0" id="text-entity-CellSummary-8c926ae0-12f6-5efa-bf9c-bb558c567bb2-attr-3-name" class="er entityLabel">modality</text><rect height="21" width="68.48406982421875" y="87" x="0" class="er attributeBoxEven"/><text style="dominant-baseline: middle; font-size: 10.2px;" transform="translate(5,97.5)" y="0" x="0" id="text-entity-CellSummary-8c926ae0-12f6-5efa-bf9c-bb558c567bb2-attr-4-type" class="er entityLabel">string</text><rect height="21" width="117.03125" y="87" x="68.48406982421875" class="er attributeBoxEven"/><text style="dominant-baseline: middle; font-size: 10.2px;" transform="translate(73.48406982421875,97.5)" y="0" x="0" id="text-entity-CellSummary-8c926ae0-12f6-5efa-bf9c-bb558c567bb2-attr-4-name" class="er entityLabel">donor_sex</text><rect height="21" width="68.48406982421875" y="108" x="0" class="er attributeBoxOdd"/><text style="dominant-baseline: middle; font-size: 10.2px;" transform="translate(5,118.5)" y="0" x="0" id="text-entity-CellSummary-8c926ae0-12f6-5efa-bf9c-bb558c567bb2-attr-5-type" class="er entityLabel">uriorcurie</text><rect height="21" width="117.03125" y="108" x="68.48406982421875" class="er attributeBoxOdd"/><text style="dominant-baseline: middle; font-size: 10.2px;" transform="translate(73.48406982421875,118.5)" y="0" x="0" id="text-entity-CellSummary-8c926ae0-12f6-5efa-bf9c-bb558c567bb2-attr-5-name" class="er entityLabel">id</text><rect height="21" width="68.48406982421875" y="129" x="0" class="er attributeBoxEven"/><text style="dominant-baseline: middle; font-size: 10.2px;" transform="translate(5,139.5)" y="0" x="0" id="text-entity-CellSummary-8c926ae0-12f6-5efa-bf9c-bb558c567bb2-attr-6-type" class="er entityLabel">string</text><rect height="21" width="117.03125" y="129" x="68.48406982421875" class="er attributeBoxEven"/><text style="dominant-baseline: middle; font-size: 10.2px;" transform="translate(73.48406982421875,139.5)" y="0" x="0" id="text-entity-CellSummary-8c926ae0-12f6-5efa-bf9c-bb558c567bb2-attr-6-name" class="er entityLabel">label</text></g><g transform="translate(43.87193298339844,1186 )" id="entity-Named-527792da-945b-57c2-aece-6a504f46f916"><rect height="66" width="100" y="0" x="0" class="er entityBox"/><text style="dominant-baseline: middle; text-anchor: middle; font-size: 12px;" transform="translate(50,12)" y="0" x="0" id="text-entity-Named-527792da-945b-57c2-aece-6a504f46f916" class="er entityLabel">Named</text><rect height="21" width="60.63206481933594" y="24" x="0" class="er attributeBoxOdd"/><text style="dominant-baseline: middle; font-size: 10.2px;" transform="translate(5,34.5)" y="0" x="0" id="text-entity-Named-527792da-945b-57c2-aece-6a504f46f916-attr-1-type" class="er entityLabel">uriorcurie</text><rect height="21" width="39.36793518066406" y="24" x="60.63206481933594" class="er attributeBoxOdd"/><text style="dominant-baseline: middle; font-size: 10.2px;" transform="translate(65.63206481933594,34.5)" y="0" x="0" id="text-entity-Named-527792da-945b-57c2-aece-6a504f46f916-attr-1-name" class="er entityLabel">id</text><rect height="21" width="60.63206481933594" y="45" x="0" class="er attributeBoxEven"/><text style="dominant-baseline: middle; font-size: 10.2px;" transform="translate(5,55.5)" y="0" x="0" id="text-entity-Named-527792da-945b-57c2-aece-6a504f46f916-attr-2-type" class="er entityLabel">string</text><rect height="21" width="39.36793518066406" y="45" x="60.63206481933594" class="er attributeBoxEven"/><text style="dominant-baseline: middle; font-size: 10.2px;" transform="translate(65.63206481933594,55.5)" y="0" x="0" id="text-entity-Named-527792da-945b-57c2-aece-6a504f46f916-attr-2-name" class="er entityLabel">label</text></g><g transform="translate(131.16976928710938,686 )" id="entity-CellSummaryRow-721c8715-1698-50b5-bf9f-fa26e676b89e"><rect height="150" width="126.3515625" y="0" x="0" class="er entityBox"/><text style="dominant-baseline: middle; text-anchor: middle; font-size: 12px;" transform="translate(63.17578125,12)" y="0" x="0" id="text-entity-CellSummaryRow-721c8715-1698-50b5-bf9f-fa26e676b89e" class="er entityLabel">CellSummaryRow</text><rect height="21" width="58.917724609375" y="24" x="0" class="er attributeBoxOdd"/><text style="dominant-baseline: middle; font-size: 10.2px;" transform="translate(5,34.5)" y="0" x="0" id="text-entity-CellSummaryRow-721c8715-1698-50b5-bf9f-fa26e676b89e-attr-1-type" class="er entityLabel">uriorcurie</text><rect height="21" width="67.433837890625" y="24" x="58.917724609375" class="er attributeBoxOdd"/><text style="dominant-baseline: middle; font-size: 10.2px;" transform="translate(63.917724609375,34.5)" y="0" x="0" id="text-entity-CellSummaryRow-721c8715-1698-50b5-bf9f-fa26e676b89e-attr-1-name" class="er entityLabel">cell_id</text><rect height="21" width="58.917724609375" y="45" x="0" class="er attributeBoxEven"/><text style="dominant-baseline: middle; font-size: 10.2px;" transform="translate(5,55.5)" y="0" x="0" id="text-entity-CellSummaryRow-721c8715-1698-50b5-bf9f-fa26e676b89e-attr-2-type" class="er entityLabel">string</text><rect height="21" width="67.433837890625" y="45" x="58.917724609375" class="er attributeBoxEven"/><text style="dominant-baseline: middle; font-size: 10.2px;" transform="translate(63.917724609375,55.5)" y="0" x="0" id="text-entity-CellSummaryRow-721c8715-1698-50b5-bf9f-fa26e676b89e-attr-2-name" class="er entityLabel">cell_label</text><rect height="21" width="58.917724609375" y="66" x="0" class="er attributeBoxOdd"/><text style="dominant-baseline: middle; font-size: 10.2px;" transform="translate(5,76.5)" y="0" x="0" id="text-entity-CellSummaryRow-721c8715-1698-50b5-bf9f-fa26e676b89e-attr-3-type" class="er entityLabel">integer</text><rect height="21" width="67.433837890625" y="66" x="58.917724609375" class="er attributeBoxOdd"/><text style="dominant-baseline: middle; font-size: 10.2px;" transform="translate(63.917724609375,76.5)" y="0" x="0" id="text-entity-CellSummaryRow-721c8715-1698-50b5-bf9f-fa26e676b89e-attr-3-name" class="er entityLabel">count</text><rect height="21" width="58.917724609375" y="87" x="0" class="er attributeBoxEven"/><text style="dominant-baseline: middle; font-size: 10.2px;" transform="translate(5,97.5)" y="0" x="0" id="text-entity-CellSummaryRow-721c8715-1698-50b5-bf9f-fa26e676b89e-attr-4-type" class="er entityLabel">float</text><rect height="21" width="67.433837890625" y="87" x="58.917724609375" class="er attributeBoxEven"/><text style="dominant-baseline: middle; font-size: 10.2px;" transform="translate(63.917724609375,97.5)" y="0" x="0" id="text-entity-CellSummaryRow-721c8715-1698-50b5-bf9f-fa26e676b89e-attr-4-name" class="er entityLabel">percentage</text><rect height="21" width="58.917724609375" y="108" x="0" class="er attributeBoxOdd"/><text style="dominant-baseline: middle; font-size: 10.2px;" transform="translate(5,118.5)" y="0" x="0" id="text-entity-CellSummaryRow-721c8715-1698-50b5-bf9f-fa26e676b89e-attr-5-type" class="er entityLabel">uriorcurie</text><rect height="21" width="67.433837890625" y="108" x="58.917724609375" class="er attributeBoxOdd"/><text style="dominant-baseline: middle; font-size: 10.2px;" transform="translate(63.917724609375,118.5)" y="0" x="0" id="text-entity-CellSummaryRow-721c8715-1698-50b5-bf9f-fa26e676b89e-attr-5-name" class="er entityLabel">id</text><rect height="21" width="58.917724609375" y="129" x="0" class="er attributeBoxEven"/><text style="dominant-baseline: middle; font-size: 10.2px;" transform="translate(5,139.5)" y="0" x="0" id="text-entity-CellSummaryRow-721c8715-1698-50b5-bf9f-fa26e676b89e-attr-6-type" class="er entityLabel">string</text><rect height="21" width="67.433837890625" y="129" x="58.917724609375" class="er attributeBoxEven"/><text style="dominant-baseline: middle; font-size: 10.2px;" transform="translate(63.917724609375,139.5)" y="0" x="0" id="text-entity-CellSummaryRow-721c8715-1698-50b5-bf9f-fa26e676b89e-attr-6-name" class="er entityLabel">label</text></g><g transform="translate(193.87193298339844,936 )" id="entity-GeneExpression-6cf021ab-2198-5a58-b397-34a8273c9d2a"><rect height="150" width="201.89447021484375" y="0" x="0" class="er entityBox"/><text style="dominant-baseline: middle; text-anchor: middle; font-size: 12px;" transform="translate(100.94723510742188,12)" y="0" x="0" id="text-entity-GeneExpression-6cf021ab-2198-5a58-b397-34a8273c9d2a" class="er entityLabel">GeneExpression</text><rect height="21" width="52.795379638671875" y="24" x="0" class="er attributeBoxOdd"/><text style="dominant-baseline: middle; font-size: 10.2px;" transform="translate(5,34.5)" y="0" x="0" id="text-entity-GeneExpression-6cf021ab-2198-5a58-b397-34a8273c9d2a-attr-1-type" class="er entityLabel">uriorcurie</text><rect height="21" width="149.09909057617188" y="24" x="52.795379638671875" class="er attributeBoxOdd"/><text style="dominant-baseline: middle; font-size: 10.2px;" transform="translate(57.795379638671875,34.5)" y="0" x="0" id="text-entity-GeneExpression-6cf021ab-2198-5a58-b397-34a8273c9d2a-attr-1-name" class="er entityLabel">gene_id</text><rect height="21" width="52.795379638671875" y="45" x="0" class="er attributeBoxEven"/><text style="dominant-baseline: middle; font-size: 10.2px;" transform="translate(5,55.5)" y="0" x="0" id="text-entity-GeneExpression-6cf021ab-2198-5a58-b397-34a8273c9d2a-attr-2-type" class="er entityLabel">string</text><rect height="21" width="149.09909057617188" y="45" x="52.795379638671875" class="er attributeBoxEven"/><text style="dominant-baseline: middle; font-size: 10.2px;" transform="translate(57.795379638671875,55.5)" y="0" x="0" id="text-entity-GeneExpression-6cf021ab-2198-5a58-b397-34a8273c9d2a-attr-2-name" class="er entityLabel">gene_label</text><rect height="21" width="52.795379638671875" y="66" x="0" class="er attributeBoxOdd"/><text style="dominant-baseline: middle; font-size: 10.2px;" transform="translate(5,76.5)" y="0" x="0" id="text-entity-GeneExpression-6cf021ab-2198-5a58-b397-34a8273c9d2a-attr-3-type" class="er entityLabel">string</text><rect height="21" width="149.09909057617188" y="66" x="52.795379638671875" class="er attributeBoxOdd"/><text style="dominant-baseline: middle; font-size: 10.2px;" transform="translate(57.795379638671875,76.5)" y="0" x="0" id="text-entity-GeneExpression-6cf021ab-2198-5a58-b397-34a8273c9d2a-attr-3-name" class="er entityLabel">ensembl_id</text><rect height="21" width="52.795379638671875" y="87" x="0" class="er attributeBoxEven"/><text style="dominant-baseline: middle; font-size: 10.2px;" transform="translate(5,97.5)" y="0" x="0" id="text-entity-GeneExpression-6cf021ab-2198-5a58-b397-34a8273c9d2a-attr-4-type" class="er entityLabel">float</text><rect height="21" width="149.09909057617188" y="87" x="52.795379638671875" class="er attributeBoxEven"/><text style="dominant-baseline: middle; font-size: 10.2px;" transform="translate(57.795379638671875,97.5)" y="0" x="0" id="text-entity-GeneExpression-6cf021ab-2198-5a58-b397-34a8273c9d2a-attr-4-name" class="er entityLabel">mean_gene_expression_value</text><rect height="21" width="52.795379638671875" y="108" x="0" class="er attributeBoxOdd"/><text style="dominant-baseline: middle; font-size: 10.2px;" transform="translate(5,118.5)" y="0" x="0" id="text-entity-GeneExpression-6cf021ab-2198-5a58-b397-34a8273c9d2a-attr-5-type" class="er entityLabel">uriorcurie</text><rect height="21" width="149.09909057617188" y="108" x="52.795379638671875" class="er attributeBoxOdd"/><text style="dominant-baseline: middle; font-size: 10.2px;" transform="translate(57.795379638671875,118.5)" y="0" x="0" id="text-entity-GeneExpression-6cf021ab-2198-5a58-b397-34a8273c9d2a-attr-5-name" class="er entityLabel">id</text><rect height="21" width="52.795379638671875" y="129" x="0" class="er attributeBoxEven"/><text style="dominant-baseline: middle; font-size: 10.2px;" transform="translate(5,139.5)" y="0" x="0" id="text-entity-GeneExpression-6cf021ab-2198-5a58-b397-34a8273c9d2a-attr-6-type" class="er entityLabel">string</text><rect height="21" width="149.09909057617188" y="129" x="52.795379638671875" class="er attributeBoxEven"/><text style="dominant-baseline: middle; font-size: 10.2px;" transform="translate(57.795379638671875,139.5)" y="0" x="0" id="text-entity-GeneExpression-6cf021ab-2198-5a58-b397-34a8273c9d2a-attr-6-name" class="er entityLabel">label</text></g><rect height="14" width="23.681640625" y="129" x="100.91718292236328" class="er relationshipLabelBox"/><text style="text-anchor: middle; dominant-baseline: middle; font-size: 12px;" y="136" x="112.75800323486328" id="rel1" class="er relationshipLabel">data</text><rect height="14" width="74.015625" y="379" x="75.75019073486328" class="er relationshipLabelBox"/><text style="text-anchor: middle; dominant-baseline: middle; font-size: 12px;" y="386" x="112.75800323486328" id="rel2" class="er relationshipLabel">cell_summary</text><rect height="14" width="81.359375" y="625.90380859375" x="147.15516662597656" class="er relationshipLabelBox"/><text style="text-anchor: middle; dominant-baseline: middle; font-size: 12px;" y="632.90380859375" x="187.83485412597656" id="rel3" class="er relationshipLabel">summary_rows</text><rect height="14" width="40.029296875" y="886.1373291015625" x="-57.73064422607422" class="er relationshipLabelBox"/><text style="text-anchor: middle; dominant-baseline: middle; font-size: 12px;" y="893.1373291015625" x="-37.71599578857422" id="rel4" class="er relationshipLabel">type_of</text><rect height="14" width="97.40625" y="874.602783203125" x="237.5015869140625" class="er relationshipLabelBox"/><text style="text-anchor: middle; dominant-baseline: middle; font-size: 12px;" y="881.602783203125" x="286.2047119140625" id="rel5" class="er relationshipLabel">gene_expressions</text><rect height="14" width="40.029296875" y="999.193603515625" x="73.85836029052734" class="er relationshipLabelBox"/><text style="text-anchor: middle; dominant-baseline: middle; font-size: 12px;" y="1006.193603515625" x="93.87300872802734" id="rel6" class="er relationshipLabel">type_of</text><rect height="14" width="40.029296875" y="1151.114990234375" x="215.79904174804688" class="er relationshipLabelBox"/><text style="text-anchor: middle; dominant-baseline: middle; font-size: 12px;" y="1158.114990234375" x="235.81369018554688" id="rel7" class="er relationshipLabel">type_of</text></svg>