<svg aria-roledescription="er" role="graphics-document document" viewBox="0 0 534.171875 964" style="max-width: 534.172px; background-color: white;" xmlns:xlink="http://www.w3.org/1999/xlink" xmlns="http://www.w3.org/2000/svg" width="100%" id="my-svg"><style>#my-svg{font-family:"trebuchet ms",verdana,arial,sans-serif;font-size:16px;fill:#333;}#my-svg .error-icon{fill:#552222;}#my-svg .error-text{fill:#552222;stroke:#552222;}#my-svg .edge-thickness-normal{stroke-width:1px;}#my-svg .edge-thickness-thick{stroke-width:3.5px;}#my-svg .edge-pattern-solid{stroke-dasharray:0;}#my-svg .edge-thickness-invisible{stroke-width:0;fill:none;}#my-svg .edge-pattern-dashed{stroke-dasharray:3;}#my-svg .edge-pattern-dotted{stroke-dasharray:2;}#my-svg .marker{fill:#333333;stroke:#333333;}#my-svg .marker.cross{stroke:#333333;}#my-svg svg{font-family:"trebuchet ms",verdana,arial,sans-serif;font-size:16px;}#my-svg p{margin:0;}#my-svg .entityBox{fill:#ECECFF;stroke:#9370DB;}#my-svg .attributeBoxOdd{fill:#ffffff;stroke:#9370DB;}#my-svg .attributeBoxEven{fill:#f2f2f2;stroke:#9370DB;}#my-svg .relationshipLabelBox{fill:hsl(80, 100%, 96.2745098039%);opacity:0.7;background-color:hsl(80, 100%, 96.2745098039%);}#my-svg .relationshipLabelBox rect{opacity:0.5;}#my-svg .relationshipLine{stroke:#333333;}#my-svg .entityTitleText{text-anchor:middle;font-size:18px;fill:#333;}#my-svg #MD_PARENT_START{fill:#f5f5f5!important;stroke:#333333!important;stroke-width:1;}#my-svg #MD_PARENT_END{fill:#f5f5f5!important;stroke:#333333!important;stroke-width:1;}#my-svg :root{--mermaid-font-family:"trebuchet ms",verdana,arial,sans-serif;}</style><g/><defs><marker orient="auto" markerHeight="240" markerWidth="190" refY="7" refX="0" id="MD_PARENT_START"><path d="M 18,7 L9,13 L1,7 L9,1 Z"/></marker></defs><defs><marker orient="auto" markerHeight="28" markerWidth="20" refY="7" refX="19" id="MD_PARENT_END"><path d="M 18,7 L9,13 L1,7 L9,1 Z"/></marker></defs><defs><marker orient="auto" markerHeight="18" markerWidth="18" refY="9" refX="0" id="ONLY_ONE_START"><path d="M9,0 L9,18 M15,0 L15,18" fill="none" stroke="gray"/></marker></defs><defs><marker orient="auto" markerHeight="18" markerWidth="18" refY="9" refX="18" id="ONLY_ONE_END"><path d="M3,0 L3,18 M9,0 L9,18" fill="none" stroke="gray"/></marker></defs><defs><marker orient="auto" markerHeight="18" markerWidth="30" refY="9" refX="0" id="ZERO_OR_ONE_START"><circle r="6" cy="9" cx="21" fill="white" stroke="gray"/><path d="M9,0 L9,18" fill="none" stroke="gray"/></marker></defs><defs><marker orient="auto" markerHeight="18" markerWidth="30" refY="9" refX="30" id="ZERO_OR_ONE_END"><circle r="6" cy="9" cx="9" fill="white" stroke="gray"/><path d="M21,0 L21,18" fill="none" stroke="gray"/></marker></defs><defs><marker orient="auto" markerHeight="36" markerWidth="45" refY="18" refX="18" id="ONE_OR_MORE_START"><path d="M0,18 Q 18,0 36,18 Q 18,36 0,18 M42,9 L42,27" fill="none" stroke="gray"/></marker></defs><defs><marker orient="auto" markerHeight="36" markerWidth="45" refY="18" refX="27" id="ONE_OR_MORE_END"><path d="M3,9 L3,27 M9,18 Q27,0 45,18 Q27,36 9,18" fill="none" stroke="gray"/></marker></defs><defs><marker orient="auto" markerHeight="36" markerWidth="57" refY="18" refX="18" id="ZERO_OR_MORE_START"><circle r="6" cy="18" cx="48" fill="white" stroke="gray"/><path d="M0,18 Q18,0 36,18 Q18,36 0,18" fill="none" stroke="gray"/></marker></defs><defs><marker orient="auto" markerHeight="36" markerWidth="57" refY="18" refX="39" id="ZERO_OR_MORE_END"><circle r="6" cy="18" cx="9" fill="white" stroke="gray"/><path d="M21,18 Q39,0 57,18 Q39,36 21,18" fill="none" stroke="gray"/></marker></defs><path style="stroke: gray; fill: none;" marker-start="url(#ONLY_ONE_START)" marker-end="url(#ZERO_OR_ONE_END)" d="M180.388,65L166.698,73.333C153.007,81.667,125.625,98.333,111.934,115C98.244,131.667,98.244,148.333,98.244,156.667L98.244,165" class="er relationshipLine"/><path style="stroke: gray; fill: none;" marker-start="url(#ONLY_ONE_START)" marker-end="url(#ZERO_OR_ONE_END)" d="M254.319,65L268.01,73.333C281.7,81.667,309.082,98.333,322.773,120.417C336.464,142.5,336.464,170,336.464,183.75L336.464,197.5" class="er relationshipLine"/><path style="stroke: gray; fill: none;" marker-start="url(#ONLY_ONE_START)" marker-end="url(#ZERO_OR_MORE_END)" d="M336.464,349.5L336.464,363.25C336.464,377,336.464,404.5,336.464,426.583C336.464,448.667,336.464,465.333,336.464,473.667L336.464,482" class="er relationshipLine"/><path style="stroke: gray; fill: none;" marker-start="url(#ONLY_ONE_START)" marker-end="url(#ONE_OR_MORE_END)" d="M298.194,570L290.946,578.333C283.698,586.667,269.202,603.333,261.954,620C254.706,636.667,254.706,653.333,254.706,661.667L254.706,670" class="er relationshipLine"/><path style="stroke: gray; fill: none;" marker-start="url(#ONLY_ONE_START)" marker-end="url(#ZERO_OR_MORE_END)" d="M408.916,570L422.638,578.333C436.361,586.667,463.805,603.333,477.527,629C491.249,654.667,491.249,689.333,491.249,724C491.249,758.667,491.249,793.333,486.229,819C481.209,844.667,471.169,861.333,466.148,869.667L461.128,878" class="er relationshipLine"/><path style="stroke: gray; fill: none;" marker-start="url(#ONLY_ONE_START)" marker-end="url(#ONLY_ONE_END)" d="M228.744,778L224.738,786.333C220.732,794.667,212.719,811.333,208.712,829.75C204.706,848.167,204.706,868.333,204.706,878.417L204.706,888.5" class="er relationshipLine"/><path style="stroke: gray; fill: none;" marker-start="url(#ONLY_ONE_START)" marker-end="url(#ZERO_OR_MORE_END)" d="M309.114,778L317.51,786.333C325.906,794.667,342.699,811.333,359.303,828C375.908,844.667,392.326,861.333,400.534,869.667L408.743,878" class="er relationshipLine"/><g transform="translate(167.35366821289062,20 )" id="entity-Container-bc34fb32-8a75-5b81-936b-92374bf40296"><rect height="45" width="100" y="0" x="0" class="er entityBox"/><text style="dominant-baseline: middle; text-anchor: middle; font-size: 12px;" transform="translate(50,12)" y="0" x="0" id="text-entity-Container-bc34fb32-8a75-5b81-936b-92374bf40296" class="er entityLabel">Container</text><rect height="21" width="69.5859375" y="24" x="0" class="er attributeBoxOdd"/><text style="dominant-baseline: middle; font-size: 10.2px;" transform="translate(5,34.5)" y="0" x="0" id="text-entity-Container-bc34fb32-8a75-5b81-936b-92374bf40296-attr-1-type" class="er entityLabel">uriorcurie</text><rect height="21" width="30.4140625" y="24" x="69.5859375" class="er attributeBoxOdd"/><text style="dominant-baseline: middle; font-size: 10.2px;" transform="translate(74.5859375,34.5)" y="0" x="0" id="text-entity-Container-bc34fb32-8a75-5b81-936b-92374bf40296-attr-1-name" class="er entityLabel">iri</text></g><g transform="translate(276.4871826171875,197.5 )" id="entity-CollisionData-e070b5c2-3fc7-5ea4-9d87-8dc5bef8fa08"><rect height="152" width="119.953125" y="0" x="0" class="er entityBox"/><text style="dominant-baseline: middle; text-anchor: middle; font-size: 12px;" transform="translate(59.9765625,12)" y="0" x="0" id="text-entity-CollisionData-e070b5c2-3fc7-5ea4-9d87-8dc5bef8fa08" class="er entityLabel">CollisionData</text><rect height="21" width="39.25" y="24" x="0" class="er attributeBoxOdd"/><text style="dominant-baseline: middle; font-size: 10.2px;" transform="translate(5,34.5)" y="0" x="0" id="text-entity-CollisionData-e070b5c2-3fc7-5ea4-9d87-8dc5bef8fa08-attr-1-type" class="er entityLabel">string</text><rect height="21" width="80.703125" y="24" x="39.25" class="er attributeBoxOdd"/><text style="dominant-baseline: middle; font-size: 10.2px;" transform="translate(44.25,34.5)" y="0" x="0" id="text-entity-CollisionData-e070b5c2-3fc7-5ea4-9d87-8dc5bef8fa08-attr-1-name" class="er entityLabel">donor</text><rect height="21" width="39.25" y="45" x="0" class="er attributeBoxEven"/><text style="dominant-baseline: middle; font-size: 10.2px;" transform="translate(5,55.5)" y="0" x="0" id="text-entity-CollisionData-e070b5c2-3fc7-5ea4-9d87-8dc5bef8fa08-attr-2-type" class="er entityLabel">string</text><rect height="21" width="80.703125" y="45" x="39.25" class="er attributeBoxEven"/><text style="dominant-baseline: middle; font-size: 10.2px;" transform="translate(44.25,55.5)" y="0" x="0" id="text-entity-CollisionData-e070b5c2-3fc7-5ea4-9d87-8dc5bef8fa08-attr-2-name" class="er entityLabel">sample</text><rect height="21" width="39.25" y="66" x="0" class="er attributeBoxOdd"/><text style="dominant-baseline: middle; font-size: 10.2px;" transform="translate(5,76.5)" y="0" x="0" id="text-entity-CollisionData-e070b5c2-3fc7-5ea4-9d87-8dc5bef8fa08-attr-3-type" class="er entityLabel">string</text><rect height="21" width="80.703125" y="66" x="39.25" class="er attributeBoxOdd"/><text style="dominant-baseline: middle; font-size: 10.2px;" transform="translate(44.25,76.5)" y="0" x="0" id="text-entity-CollisionData-e070b5c2-3fc7-5ea4-9d87-8dc5bef8fa08-attr-3-name" class="er entityLabel">dataset</text><rect height="22" width="39.25" y="87" x="0" class="er attributeBoxEven"/><text style="dominant-baseline: middle; font-size: 10.2px;" transform="translate(5,98)" y="0" x="0" id="text-entity-CollisionData-e070b5c2-3fc7-5ea4-9d87-8dc5bef8fa08-attr-4-type" class="er entityLabel">string</text><rect height="22" width="80.703125" y="87" x="39.25" class="er attributeBoxEven"/><text style="dominant-baseline: middle; font-size: 10.2px;" transform="translate(44.25,98)" y="0" x="0" id="text-entity-CollisionData-e070b5c2-3fc7-5ea4-9d87-8dc5bef8fa08-attr-4-name" class="er entityLabel">spatial_entity</text><rect height="22" width="39.25" y="109" x="0" class="er attributeBoxOdd"/><text style="dominant-baseline: middle; font-size: 10.2px;" transform="translate(5,120)" y="0" x="0" id="text-entity-CollisionData-e070b5c2-3fc7-5ea4-9d87-8dc5bef8fa08-attr-5-type" class="er entityLabel">string</text><rect height="22" width="80.703125" y="109" x="39.25" class="er attributeBoxOdd"/><text style="dominant-baseline: middle; font-size: 10.2px;" transform="translate(44.25,120)" y="0" x="0" id="text-entity-CollisionData-e070b5c2-3fc7-5ea4-9d87-8dc5bef8fa08-attr-5-name" class="er entityLabel">cell_summary</text><rect height="21" width="39.25" y="131" x="0" class="er attributeBoxEven"/><text style="dominant-baseline: middle; font-size: 10.2px;" transform="translate(5,141.5)" y="0" x="0" id="text-entity-CollisionData-e070b5c2-3fc7-5ea4-9d87-8dc5bef8fa08-attr-6-type" class="er entityLabel">string</text><rect height="21" width="80.703125" y="131" x="39.25" class="er attributeBoxEven"/><text style="dominant-baseline: middle; font-size: 10.2px;" transform="translate(44.25,141.5)" y="0" x="0" id="text-entity-CollisionData-e070b5c2-3fc7-5ea4-9d87-8dc5bef8fa08-attr-6-name" class="er entityLabel">corridor</text></g><g transform="translate(259.1512451171875,482 )" id="entity-CollisionSummary-007ff99f-bcd8-55d2-b030-cf6c36577bce"><rect height="88" width="154.625" y="0" x="0" class="er entityBox"/><text style="dominant-baseline: middle; text-anchor: middle; font-size: 12px;" transform="translate(77.3125,12)" y="0" x="0" id="text-entity-CollisionSummary-007ff99f-bcd8-55d2-b030-cf6c36577bce" class="er entityLabel">CollisionSummary</text><rect height="22" width="59.03125" y="24" x="0" class="er attributeBoxOdd"/><text style="dominant-baseline: middle; font-size: 10.2px;" transform="translate(5,35)" y="0" x="0" id="text-entity-CollisionSummary-007ff99f-bcd8-55d2-b030-cf6c36577bce-attr-1-type" class="er entityLabel">string</text><rect height="22" width="95.59375" y="24" x="59.03125" class="er attributeBoxOdd"/><text style="dominant-baseline: middle; font-size: 10.2px;" transform="translate(64.03125,35)" y="0" x="0" id="text-entity-CollisionSummary-007ff99f-bcd8-55d2-b030-cf6c36577bce-attr-1-name" class="er entityLabel">collision_method</text><rect height="21" width="59.03125" y="46" x="0" class="er attributeBoxEven"/><text style="dominant-baseline: middle; font-size: 10.2px;" transform="translate(5,56.5)" y="0" x="0" id="text-entity-CollisionSummary-007ff99f-bcd8-55d2-b030-cf6c36577bce-attr-2-type" class="er entityLabel">uriorcurie</text><rect height="21" width="95.59375" y="46" x="59.03125" class="er attributeBoxEven"/><text style="dominant-baseline: middle; font-size: 10.2px;" transform="translate(64.03125,56.5)" y="0" x="0" id="text-entity-CollisionSummary-007ff99f-bcd8-55d2-b030-cf6c36577bce-attr-2-name" class="er entityLabel">id</text><rect height="21" width="59.03125" y="67" x="0" class="er attributeBoxOdd"/><text style="dominant-baseline: middle; font-size: 10.2px;" transform="translate(5,77.5)" y="0" x="0" id="text-entity-CollisionSummary-007ff99f-bcd8-55d2-b030-cf6c36577bce-attr-3-type" class="er entityLabel">string</text><rect height="21" width="95.59375" y="67" x="59.03125" class="er attributeBoxOdd"/><text style="dominant-baseline: middle; font-size: 10.2px;" transform="translate(64.03125,77.5)" y="0" x="0" id="text-entity-CollisionSummary-007ff99f-bcd8-55d2-b030-cf6c36577bce-attr-3-name" class="er entityLabel">label</text></g><g transform="translate(391.2489013671875,878 )" id="entity-Named-527792da-945b-57c2-aece-6a504f46f916"><rect height="66" width="100" y="0" x="0" class="er entityBox"/><text style="dominant-baseline: middle; text-anchor: middle; font-size: 12px;" transform="translate(50,12)" y="0" x="0" id="text-entity-Named-527792da-945b-57c2-aece-6a504f46f916" class="er entityLabel">Named</text><rect height="21" width="62.1953125" y="24" x="0" class="er attributeBoxOdd"/><text style="dominant-baseline: middle; font-size: 10.2px;" transform="translate(5,34.5)" y="0" x="0" id="text-entity-Named-527792da-945b-57c2-aece-6a504f46f916-attr-1-type" class="er entityLabel">uriorcurie</text><rect height="21" width="37.8046875" y="24" x="62.1953125" class="er attributeBoxOdd"/><text style="dominant-baseline: middle; font-size: 10.2px;" transform="translate(67.1953125,34.5)" y="0" x="0" id="text-entity-Named-527792da-945b-57c2-aece-6a504f46f916-attr-1-name" class="er entityLabel">id</text><rect height="21" width="62.1953125" y="45" x="0" class="er attributeBoxEven"/><text style="dominant-baseline: middle; font-size: 10.2px;" transform="translate(5,55.5)" y="0" x="0" id="text-entity-Named-527792da-945b-57c2-aece-6a504f46f916-attr-2-type" class="er entityLabel">string</text><rect height="21" width="37.8046875" y="45" x="62.1953125" class="er attributeBoxEven"/><text style="dominant-baseline: middle; font-size: 10.2px;" transform="translate(67.1953125,55.5)" y="0" x="0" id="text-entity-Named-527792da-945b-57c2-aece-6a504f46f916-attr-2-name" class="er entityLabel">label</text></g><g transform="translate(191.1903076171875,670 )" id="entity-CollisionItem-f4ad6f77-f333-5bb1-be13-50ddcb433810"><rect height="108" width="127.03125" y="0" x="0" class="er entityBox"/><text style="dominant-baseline: middle; text-anchor: middle; font-size: 12px;" transform="translate(63.515625,12)" y="0" x="0" id="text-entity-CollisionItem-f4ad6f77-f333-5bb1-be13-50ddcb433810" class="er entityLabel">CollisionItem</text><rect height="21" width="59.03125" y="24" x="0" class="er attributeBoxOdd"/><text style="dominant-baseline: middle; font-size: 10.2px;" transform="translate(5,34.5)" y="0" x="0" id="text-entity-CollisionItem-f4ad6f77-f333-5bb1-be13-50ddcb433810-attr-1-type" class="er entityLabel">float</text><rect height="21" width="68" y="24" x="59.03125" class="er attributeBoxOdd"/><text style="dominant-baseline: middle; font-size: 10.2px;" transform="translate(64.03125,34.5)" y="0" x="0" id="text-entity-CollisionItem-f4ad6f77-f333-5bb1-be13-50ddcb433810-attr-1-name" class="er entityLabel">volume</text><rect height="21" width="59.03125" y="45" x="0" class="er attributeBoxEven"/><text style="dominant-baseline: middle; font-size: 10.2px;" transform="translate(5,55.5)" y="0" x="0" id="text-entity-CollisionItem-f4ad6f77-f333-5bb1-be13-50ddcb433810-attr-2-type" class="er entityLabel">float</text><rect height="21" width="68" y="45" x="59.03125" class="er attributeBoxEven"/><text style="dominant-baseline: middle; font-size: 10.2px;" transform="translate(64.03125,55.5)" y="0" x="0" id="text-entity-CollisionItem-f4ad6f77-f333-5bb1-be13-50ddcb433810-attr-2-name" class="er entityLabel">percentage</text><rect height="21" width="59.03125" y="66" x="0" class="er attributeBoxOdd"/><text style="dominant-baseline: middle; font-size: 10.2px;" transform="translate(5,76.5)" y="0" x="0" id="text-entity-CollisionItem-f4ad6f77-f333-5bb1-be13-50ddcb433810-attr-3-type" class="er entityLabel">uriorcurie</text><rect height="21" width="68" y="66" x="59.03125" class="er attributeBoxOdd"/><text style="dominant-baseline: middle; font-size: 10.2px;" transform="translate(64.03125,76.5)" y="0" x="0" id="text-entity-CollisionItem-f4ad6f77-f333-5bb1-be13-50ddcb433810-attr-3-name" class="er entityLabel">id</text><rect height="21" width="59.03125" y="87" x="0" class="er attributeBoxEven"/><text style="dominant-baseline: middle; font-size: 10.2px;" transform="translate(5,97.5)" y="0" x="0" id="text-entity-CollisionItem-f4ad6f77-f333-5bb1-be13-50ddcb433810-attr-4-type" class="er entityLabel">string</text><rect height="21" width="68" y="87" x="59.03125" class="er attributeBoxEven"/><text style="dominant-baseline: middle; font-size: 10.2px;" transform="translate(64.03125,97.5)" y="0" x="0" id="text-entity-CollisionItem-f4ad6f77-f333-5bb1-be13-50ddcb433810-attr-4-name" class="er entityLabel">label</text></g><g transform="translate(145.1356201171875,888.5 )" id="entity-SpatialEntityID-724ea42b-c097-5dd4-9a8c-d4ab4880775b"><rect height="45" width="119.140625" y="0" x="0" class="er entityBox"/><text style="dominant-baseline: middle; text-anchor: middle; font-size: 12px;" transform="translate(59.5703125,12)" y="0" x="0" id="text-entity-SpatialEntityID-724ea42b-c097-5dd4-9a8c-d4ab4880775b" class="er entityLabel">SpatialEntityID</text><rect height="21" width="79.4296875" y="24" x="0" class="er attributeBoxOdd"/><text style="dominant-baseline: middle; font-size: 10.2px;" transform="translate(5,34.5)" y="0" x="0" id="text-entity-SpatialEntityID-724ea42b-c097-5dd4-9a8c-d4ab4880775b-attr-1-type" class="er entityLabel">uriorcurie</text><rect height="21" width="39.7109375" y="24" x="79.4296875" class="er attributeBoxOdd"/><text style="dominant-baseline: middle; font-size: 10.2px;" transform="translate(84.4296875,34.5)" y="0" x="0" id="text-entity-SpatialEntityID-724ea42b-c097-5dd4-9a8c-d4ab4880775b-attr-1-name" class="er entityLabel">id</text></g><g transform="translate(20,165 )" id="entity-CollisionMetadata-d90580f9-2b30-53f3-a639-3e29e8b1cfe1"><rect height="217" width="156.4871826171875" y="0" x="0" class="er entityBox"/><text style="dominant-baseline: middle; text-anchor: middle; font-size: 12px;" transform="translate(78.24359130859375,12)" y="0" x="0" id="text-entity-CollisionMetadata-d90580f9-2b30-53f3-a639-3e29e8b1cfe1" class="er entityLabel">CollisionMetadata</text><rect height="21" width="76.8309326171875" y="24" x="0" class="er attributeBoxOdd"/><text style="dominant-baseline: middle; font-size: 10.2px;" transform="translate(5,34.5)" y="0" x="0" id="text-entity-CollisionMetadata-d90580f9-2b30-53f3-a639-3e29e8b1cfe1-attr-1-type" class="er entityLabel">string</text><rect height="21" width="79.65625" y="24" x="76.8309326171875" class="er attributeBoxOdd"/><text style="dominant-baseline: middle; font-size: 10.2px;" transform="translate(81.8309326171875,34.5)" y="0" x="0" id="text-entity-CollisionMetadata-d90580f9-2b30-53f3-a639-3e29e8b1cfe1-attr-1-name" class="er entityLabel">title</text><rect height="21" width="76.8309326171875" y="45" x="0" class="er attributeBoxEven"/><text style="dominant-baseline: middle; font-size: 10.2px;" transform="translate(5,55.5)" y="0" x="0" id="text-entity-CollisionMetadata-d90580f9-2b30-53f3-a639-3e29e8b1cfe1-attr-2-type" class="er entityLabel">string</text><rect height="21" width="79.65625" y="45" x="76.8309326171875" class="er attributeBoxEven"/><text style="dominant-baseline: middle; font-size: 10.2px;" transform="translate(81.8309326171875,55.5)" y="0" x="0" id="text-entity-CollisionMetadata-d90580f9-2b30-53f3-a639-3e29e8b1cfe1-attr-2-name" class="er entityLabel">description</text><rect height="22" width="76.8309326171875" y="66" x="0" class="er attributeBoxOdd"/><text style="dominant-baseline: middle; font-size: 10.2px;" transform="translate(5,77)" y="0" x="0" id="text-entity-CollisionMetadata-d90580f9-2b30-53f3-a639-3e29e8b1cfe1-attr-3-type" class="er entityLabel">uriorcurieList</text><rect height="22" width="79.65625" y="66" x="76.8309326171875" class="er attributeBoxOdd"/><text style="dominant-baseline: middle; font-size: 10.2px;" transform="translate(81.8309326171875,77)" y="0" x="0" id="text-entity-CollisionMetadata-d90580f9-2b30-53f3-a639-3e29e8b1cfe1-attr-3-name" class="er entityLabel">created_by</text><rect height="22" width="76.8309326171875" y="88" x="0" class="er attributeBoxEven"/><text style="dominant-baseline: middle; font-size: 10.2px;" transform="translate(5,99)" y="0" x="0" id="text-entity-CollisionMetadata-d90580f9-2b30-53f3-a639-3e29e8b1cfe1-attr-4-type" class="er entityLabel">string</text><rect height="22" width="79.65625" y="88" x="76.8309326171875" class="er attributeBoxEven"/><text style="dominant-baseline: middle; font-size: 10.2px;" transform="translate(81.8309326171875,99)" y="0" x="0" id="text-entity-CollisionMetadata-d90580f9-2b30-53f3-a639-3e29e8b1cfe1-attr-4-name" class="er entityLabel">creation_date</text><rect height="21" width="76.8309326171875" y="110" x="0" class="er attributeBoxOdd"/><text style="dominant-baseline: middle; font-size: 10.2px;" transform="translate(5,120.5)" y="0" x="0" id="text-entity-CollisionMetadata-d90580f9-2b30-53f3-a639-3e29e8b1cfe1-attr-5-type" class="er entityLabel">string</text><rect height="21" width="79.65625" y="110" x="76.8309326171875" class="er attributeBoxOdd"/><text style="dominant-baseline: middle; font-size: 10.2px;" transform="translate(81.8309326171875,120.5)" y="0" x="0" id="text-entity-CollisionMetadata-d90580f9-2b30-53f3-a639-3e29e8b1cfe1-attr-5-name" class="er entityLabel">version</text><rect height="21" width="76.8309326171875" y="131" x="0" class="er attributeBoxEven"/><text style="dominant-baseline: middle; font-size: 10.2px;" transform="translate(5,141.5)" y="0" x="0" id="text-entity-CollisionMetadata-d90580f9-2b30-53f3-a639-3e29e8b1cfe1-attr-6-type" class="er entityLabel">string</text><rect height="21" width="79.65625" y="131" x="76.8309326171875" class="er attributeBoxEven"/><text style="dominant-baseline: middle; font-size: 10.2px;" transform="translate(81.8309326171875,141.5)" y="0" x="0" id="text-entity-CollisionMetadata-d90580f9-2b30-53f3-a639-3e29e8b1cfe1-attr-6-name" class="er entityLabel">license</text><rect height="21" width="76.8309326171875" y="152" x="0" class="er attributeBoxOdd"/><text style="dominant-baseline: middle; font-size: 10.2px;" transform="translate(5,162.5)" y="0" x="0" id="text-entity-CollisionMetadata-d90580f9-2b30-53f3-a639-3e29e8b1cfe1-attr-7-type" class="er entityLabel">string</text><rect height="21" width="79.65625" y="152" x="76.8309326171875" class="er attributeBoxOdd"/><text style="dominant-baseline: middle; font-size: 10.2px;" transform="translate(81.8309326171875,162.5)" y="0" x="0" id="text-entity-CollisionMetadata-d90580f9-2b30-53f3-a639-3e29e8b1cfe1-attr-7-name" class="er entityLabel">publisher</text><rect height="22" width="76.8309326171875" y="173" x="0" class="er attributeBoxEven"/><text style="dominant-baseline: middle; font-size: 10.2px;" transform="translate(5,184)" y="0" x="0" id="text-entity-CollisionMetadata-d90580f9-2b30-53f3-a639-3e29e8b1cfe1-attr-8-type" class="er entityLabel">uriorcurie</text><rect height="22" width="79.65625" y="173" x="76.8309326171875" class="er attributeBoxEven"/><text style="dominant-baseline: middle; font-size: 10.2px;" transform="translate(81.8309326171875,184)" y="0" x="0" id="text-entity-CollisionMetadata-d90580f9-2b30-53f3-a639-3e29e8b1cfe1-attr-8-name" class="er entityLabel">see_also</text><rect height="22" width="76.8309326171875" y="195" x="0" class="er attributeBoxOdd"/><text style="dominant-baseline: middle; font-size: 10.2px;" transform="translate(5,206)" y="0" x="0" id="text-entity-CollisionMetadata-d90580f9-2b30-53f3-a639-3e29e8b1cfe1-attr-9-type" class="er entityLabel">uriorcurie</text><rect height="22" width="79.65625" y="195" x="76.8309326171875" class="er attributeBoxOdd"/><text style="dominant-baseline: middle; font-size: 10.2px;" transform="translate(81.8309326171875,206)" y="0" x="0" id="text-entity-CollisionMetadata-d90580f9-2b30-53f3-a639-3e29e8b1cfe1-attr-9-name" class="er entityLabel">derived_from</text></g><rect height="14" width="58.171875" y="96.66232299804688" x="94.06513214111328" class="er relationshipLabelBox"/><text style="text-anchor: middle; dominant-baseline: middle; font-size: 12px;" y="103.66232299804688" x="123.15106964111328" id="rel1" class="er relationshipLabel">metadata</text><rect height="14" width="27.03125" y="109.473876953125" x="306.631591796875" class="er relationshipLabelBox"/><text style="text-anchor: middle; dominant-baseline: middle; font-size: 12px;" y="116.473876953125" x="320.147216796875" id="rel2" class="er relationshipLabel">data</text><rect height="14" width="48.484375" y="408.75" x="312.2218017578125" class="er relationshipLabelBox"/><text style="text-anchor: middle; dominant-baseline: middle; font-size: 12px;" y="415.75" x="336.4639892578125" id="rel3" class="er relationshipLabel">collision</text><rect height="14" width="87.84375" y="608.0120849609375" x="220.40762329101562" class="er relationshipLabelBox"/><text style="text-anchor: middle; dominant-baseline: middle; font-size: 12px;" y="615.0120849609375" x="264.3294982910156" id="rel4" class="er relationshipLabel">collision_items</text><rect height="14" width="45.1484375" y="702.5958251953125" x="468.63671875" class="er relationshipLabelBox"/><text style="text-anchor: middle; dominant-baseline: middle; font-size: 12px;" y="709.5958251953125" x="491.2109375" id="rel5" class="er relationshipLabel">type_of</text><rect height="14" width="144.09375" y="824.4003295898438" x="136.3179168701172" class="er relationshipLabelBox"/><text style="text-anchor: middle; dominant-baseline: middle; font-size: 12px;" y="831.4003295898438" x="208.3647918701172" id="rel6" class="er relationshipLabel">spatial_entity_reference</text><rect height="14" width="45.1484375" y="820.8128662109375" x="336.5421142578125" class="er relationshipLabelBox"/><text style="text-anchor: middle; dominant-baseline: middle; font-size: 12px;" y="827.8128662109375" x="359.1163330078125" id="rel7" class="er relationshipLabel">type_of</text></svg>