<svg aria-roledescription="er" role="graphics-document document" viewBox="-41.03499984741211 0 803.6091918945312 778" style="max-width: 803.609px; background-color: white;" xmlns:xlink="http://www.w3.org/1999/xlink" xmlns="http://www.w3.org/2000/svg" width="100%" id="my-svg"><style>#my-svg{font-family:"trebuchet ms",verdana,arial,sans-serif;font-size:16px;fill:#333;}#my-svg .error-icon{fill:#552222;}#my-svg .error-text{fill:#552222;stroke:#552222;}#my-svg .edge-thickness-normal{stroke-width:1px;}#my-svg .edge-thickness-thick{stroke-width:3.5px;}#my-svg .edge-pattern-solid{stroke-dasharray:0;}#my-svg .edge-thickness-invisible{stroke-width:0;fill:none;}#my-svg .edge-pattern-dashed{stroke-dasharray:3;}#my-svg .edge-pattern-dotted{stroke-dasharray:2;}#my-svg .marker{fill:#333333;stroke:#333333;}#my-svg .marker.cross{stroke:#333333;}#my-svg svg{font-family:"trebuchet ms",verdana,arial,sans-serif;font-size:16px;}#my-svg p{margin:0;}#my-svg .entityBox{fill:#ECECFF;stroke:#9370DB;}#my-svg .attributeBoxOdd{fill:#ffffff;stroke:#9370DB;}#my-svg .attributeBoxEven{fill:#f2f2f2;stroke:#9370DB;}#my-svg .relationshipLabelBox{fill:hsl(80, 100%, 96.2745098039%);opacity:0.7;background-color:hsl(80, 100%, 96.2745098039%);}#my-svg .relationshipLabelBox rect{opacity:0.5;}#my-svg .relationshipLine{stroke:#333333;}#my-svg .entityTitleText{text-anchor:middle;font-size:18px;fill:#333;}#my-svg #MD_PARENT_START{fill:#f5f5f5!important;stroke:#333333!important;stroke-width:1;}#my-svg #MD_PARENT_END{fill:#f5f5f5!important;stroke:#333333!important;stroke-width:1;}#my-svg :root{--mermaid-font-family:"trebuchet ms",verdana,arial,sans-serif;}</style><g/><defs><marker orient="auto" markerHeight="240" markerWidth="190" refY="7" refX="0" id="MD_PARENT_START"><path d="M 18,7 L9,13 L1,7 L9,1 Z"/></marker></defs><defs><marker orient="auto" markerHeight="28" markerWidth="20" refY="7" refX="19" id="MD_PARENT_END"><path d="M 18,7 L9,13 L1,7 L9,1 Z"/></marker></defs><defs><marker orient="auto" markerHeight="18" markerWidth="18" refY="9" refX="0" id="ONLY_ONE_START"><path d="M9,0 L9,18 M15,0 L15,18" fill="none" stroke="gray"/></marker></defs><defs><marker orient="auto" markerHeight="18" markerWidth="18" refY="9" refX="18" id="ONLY_ONE_END"><path d="M3,0 L3,18 M9,0 L9,18" fill="none" stroke="gray"/></marker></defs><defs><marker orient="auto" markerHeight="18" markerWidth="30" refY="9" refX="0" id="ZERO_OR_ONE_START"><circle r="6" cy="9" cx="21" fill="white" stroke="gray"/><path d="M9,0 L9,18" fill="none" stroke="gray"/></marker></defs><defs><marker orient="auto" markerHeight="18" markerWidth="30" refY="9" refX="30" id="ZERO_OR_ONE_END"><circle r="6" cy="9" cx="9" fill="white" stroke="gray"/><path d="M21,0 L21,18" fill="none" stroke="gray"/></marker></defs><defs><marker orient="auto" markerHeight="36" markerWidth="45" refY="18" refX="18" id="ONE_OR_MORE_START"><path d="M0,18 Q 18,0 36,18 Q 18,36 0,18 M42,9 L42,27" fill="none" stroke="gray"/></marker></defs><defs><marker orient="auto" markerHeight="36" markerWidth="45" refY="18" refX="27" id="ONE_OR_MORE_END"><path d="M3,9 L3,27 M9,18 Q27,0 45,18 Q27,36 9,18" fill="none" stroke="gray"/></marker></defs><defs><marker orient="auto" markerHeight="36" markerWidth="57" refY="18" refX="18" id="ZERO_OR_MORE_START"><circle r="6" cy="18" cx="48" fill="white" stroke="gray"/><path d="M0,18 Q18,0 36,18 Q18,36 0,18" fill="none" stroke="gray"/></marker></defs><defs><marker orient="auto" markerHeight="36" markerWidth="57" refY="18" refX="39" id="ZERO_OR_MORE_END"><circle r="6" cy="18" cx="9" fill="white" stroke="gray"/><path d="M21,18 Q39,0 57,18 Q39,36 21,18" fill="none" stroke="gray"/></marker></defs><path style="stroke: gray; fill: none;" marker-start="url(#ONLY_ONE_START)" marker-end="url(#ZERO_OR_ONE_END)" d="M447.486,65L460.985,73.333C474.483,81.667,501.481,98.333,514.979,115C528.478,131.667,528.478,148.333,528.478,156.667L528.478,165" class="er relationshipLine"/><path style="stroke: gray; fill: none;" marker-start="url(#ONLY_ONE_START)" marker-end="url(#ZERO_OR_MORE_END)" d="M374.593,65L361.095,73.333C347.596,81.667,320.599,98.333,307.1,127.583C293.602,156.833,293.602,198.667,293.602,219.583L293.602,240.5" class="er relationshipLine"/><path style="stroke: gray; fill: none;" marker-start="url(#ONLY_ONE_START)" marker-end="url(#ZERO_OR_ONE_END)" d="M321.202,306.5L338.696,327.417C356.191,348.333,391.179,390.167,408.674,424.833C426.168,459.5,426.168,487,426.168,500.75L426.168,514.5" class="er relationshipLine"/><path style="stroke: gray; fill: none;" marker-start="url(#ONLY_ONE_START)" marker-end="url(#ZERO_OR_MORE_END)" d="M350.234,296.98L404.512,319.483C458.79,341.986,567.346,386.993,621.624,417.83C675.902,448.667,675.902,465.333,675.902,473.667L675.902,482" class="er relationshipLine"/><path style="stroke: gray; fill: none;" marker-start="url(#ONLY_ONE_START)" marker-end="url(#ZERO_OR_MORE_END)" d="M266.001,306.5L248.507,327.417C231.012,348.333,196.024,390.167,178.529,419.417C161.035,448.667,161.035,465.333,161.035,473.667L161.035,482" class="er relationshipLine"/><path style="stroke: gray; fill: none;" marker-start="url(#ONLY_ONE_START)" marker-end="url(#ZERO_OR_MORE_END)" d="M236.969,302.029L193.968,323.691C150.967,345.353,64.966,388.676,21.965,427.838C-21.035,467,-21.035,502,-21.035,537C-21.035,572,-21.035,607,-11.895,632.833C-2.755,658.667,15.525,675.333,24.665,683.667L33.805,692" class="er relationshipLine"/><path style="stroke: gray; fill: none;" marker-start="url(#ONLY_ONE_START)" marker-end="url(#ZERO_OR_MORE_END)" d="M161.035,592L161.035,600.333C161.035,608.667,161.035,625.333,151.895,642C142.755,658.667,124.475,675.333,115.335,683.667L106.195,692" class="er relationshipLine"/><path style="stroke: gray; fill: none;" marker-start="url(#ONLY_ONE_START)" marker-end="url(#ZERO_OR_MORE_END)" d="M675.902,592L675.902,600.333C675.902,608.667,675.902,625.333,583.252,646.358C490.602,667.384,305.301,692.767,212.65,705.459L120,718.151" class="er relationshipLine"/><g transform="translate(361.0397644042969,20 )" id="entity-Container-bc34fb32-8a75-5b81-936b-92374bf40296"><rect height="45" width="100" y="0" x="0" class="er entityBox"/><text style="dominant-baseline: middle; text-anchor: middle; font-size: 12px;" transform="translate(50,12)" y="0" x="0" id="text-entity-Container-bc34fb32-8a75-5b81-936b-92374bf40296" class="er entityLabel">Container</text><rect height="21" width="69.5859375" y="24" x="0" class="er attributeBoxOdd"/><text style="dominant-baseline: middle; font-size: 10.2px;" transform="translate(5,34.5)" y="0" x="0" id="text-entity-Container-bc34fb32-8a75-5b81-936b-92374bf40296-attr-1-type" class="er entityLabel">uriorcurie</text><rect height="21" width="30.4140625" y="24" x="69.5859375" class="er attributeBoxOdd"/><text style="dominant-baseline: middle; font-size: 10.2px;" transform="translate(74.5859375,34.5)" y="0" x="0" id="text-entity-Container-bc34fb32-8a75-5b81-936b-92374bf40296-attr-1-name" class="er entityLabel">iri</text></g><g transform="translate(236.96875,240.5 )" id="entity-FtuIllustration-34be1589-3c86-5e2a-8723-bbcddc02f58a"><rect height="66" width="113.265625" y="0" x="0" class="er entityBox"/><text style="dominant-baseline: middle; text-anchor: middle; font-size: 12px;" transform="translate(56.6328125,12)" y="0" x="0" id="text-entity-FtuIllustration-34be1589-3c86-5e2a-8723-bbcddc02f58a" class="er entityLabel">FtuIllustration</text><rect height="21" width="68.828125" y="24" x="0" class="er attributeBoxOdd"/><text style="dominant-baseline: middle; font-size: 10.2px;" transform="translate(5,34.5)" y="0" x="0" id="text-entity-FtuIllustration-34be1589-3c86-5e2a-8723-bbcddc02f58a-attr-1-type" class="er entityLabel">uriorcurie</text><rect height="21" width="44.4375" y="24" x="68.828125" class="er attributeBoxOdd"/><text style="dominant-baseline: middle; font-size: 10.2px;" transform="translate(73.828125,34.5)" y="0" x="0" id="text-entity-FtuIllustration-34be1589-3c86-5e2a-8723-bbcddc02f58a-attr-1-name" class="er entityLabel">id</text><rect height="21" width="68.828125" y="45" x="0" class="er attributeBoxEven"/><text style="dominant-baseline: middle; font-size: 10.2px;" transform="translate(5,55.5)" y="0" x="0" id="text-entity-FtuIllustration-34be1589-3c86-5e2a-8723-bbcddc02f58a-attr-2-type" class="er entityLabel">string</text><rect height="21" width="44.4375" y="45" x="68.828125" class="er attributeBoxEven"/><text style="dominant-baseline: middle; font-size: 10.2px;" transform="translate(73.828125,55.5)" y="0" x="0" id="text-entity-FtuIllustration-34be1589-3c86-5e2a-8723-bbcddc02f58a-attr-2-name" class="er entityLabel">label</text></g><g transform="translate(20,692 )" id="entity-Named-527792da-945b-57c2-aece-6a504f46f916"><rect height="66" width="100" y="0" x="0" class="er entityBox"/><text style="dominant-baseline: middle; text-anchor: middle; font-size: 12px;" transform="translate(50,12)" y="0" x="0" id="text-entity-Named-527792da-945b-57c2-aece-6a504f46f916" class="er entityLabel">Named</text><rect height="21" width="62.1953125" y="24" x="0" class="er attributeBoxOdd"/><text style="dominant-baseline: middle; font-size: 10.2px;" transform="translate(5,34.5)" y="0" x="0" id="text-entity-Named-527792da-945b-57c2-aece-6a504f46f916-attr-1-type" class="er entityLabel">uriorcurie</text><rect height="21" width="37.8046875" y="24" x="62.1953125" class="er attributeBoxOdd"/><text style="dominant-baseline: middle; font-size: 10.2px;" transform="translate(67.1953125,34.5)" y="0" x="0" id="text-entity-Named-527792da-945b-57c2-aece-6a504f46f916-attr-1-name" class="er entityLabel">id</text><rect height="21" width="62.1953125" y="45" x="0" class="er attributeBoxEven"/><text style="dominant-baseline: middle; font-size: 10.2px;" transform="translate(5,55.5)" y="0" x="0" id="text-entity-Named-527792da-945b-57c2-aece-6a504f46f916-attr-2-type" class="er entityLabel">string</text><rect height="21" width="37.8046875" y="45" x="62.1953125" class="er attributeBoxEven"/><text style="dominant-baseline: middle; font-size: 10.2px;" transform="translate(67.1953125,55.5)" y="0" x="0" id="text-entity-Named-527792da-945b-57c2-aece-6a504f46f916-attr-2-name" class="er entityLabel">label</text></g><g transform="translate(78.96484375,482 )" id="entity-FtuIllustrationNode-06e03507-7f6b-5f00-b53f-e37ac626315d"><rect height="110" width="164.140625" y="0" x="0" class="er entityBox"/><text style="dominant-baseline: middle; text-anchor: middle; font-size: 12px;" transform="translate(82.0703125,12)" y="0" x="0" id="text-entity-FtuIllustrationNode-06e03507-7f6b-5f00-b53f-e37ac626315d" class="er entityLabel">FtuIllustrationNode</text><rect height="22" width="59.03125" y="24" x="0" class="er attributeBoxOdd"/><text style="dominant-baseline: middle; font-size: 10.2px;" transform="translate(5,35)" y="0" x="0" id="text-entity-FtuIllustrationNode-06e03507-7f6b-5f00-b53f-e37ac626315d-attr-1-type" class="er entityLabel">string</text><rect height="22" width="105.109375" y="24" x="59.03125" class="er attributeBoxOdd"/><text style="dominant-baseline: middle; font-size: 10.2px;" transform="translate(64.03125,35)" y="0" x="0" id="text-entity-FtuIllustrationNode-06e03507-7f6b-5f00-b53f-e37ac626315d-attr-1-name" class="er entityLabel">node_name</text><rect height="22" width="59.03125" y="46" x="0" class="er attributeBoxEven"/><text style="dominant-baseline: middle; font-size: 10.2px;" transform="translate(5,57)" y="0" x="0" id="text-entity-FtuIllustrationNode-06e03507-7f6b-5f00-b53f-e37ac626315d-attr-2-type" class="er entityLabel">string</text><rect height="22" width="105.109375" y="46" x="59.03125" class="er attributeBoxEven"/><text style="dominant-baseline: middle; font-size: 10.2px;" transform="translate(64.03125,57)" y="0" x="0" id="text-entity-FtuIllustrationNode-06e03507-7f6b-5f00-b53f-e37ac626315d-attr-2-name" class="er entityLabel">part_of_illustration</text><rect height="21" width="59.03125" y="68" x="0" class="er attributeBoxOdd"/><text style="dominant-baseline: middle; font-size: 10.2px;" transform="translate(5,78.5)" y="0" x="0" id="text-entity-FtuIllustrationNode-06e03507-7f6b-5f00-b53f-e37ac626315d-attr-3-type" class="er entityLabel">uriorcurie</text><rect height="21" width="105.109375" y="68" x="59.03125" class="er attributeBoxOdd"/><text style="dominant-baseline: middle; font-size: 10.2px;" transform="translate(64.03125,78.5)" y="0" x="0" id="text-entity-FtuIllustrationNode-06e03507-7f6b-5f00-b53f-e37ac626315d-attr-3-name" class="er entityLabel">id</text><rect height="21" width="59.03125" y="89" x="0" class="er attributeBoxEven"/><text style="dominant-baseline: middle; font-size: 10.2px;" transform="translate(5,99.5)" y="0" x="0" id="text-entity-FtuIllustrationNode-06e03507-7f6b-5f00-b53f-e37ac626315d-attr-4-type" class="er entityLabel">string</text><rect height="21" width="105.109375" y="89" x="59.03125" class="er attributeBoxEven"/><text style="dominant-baseline: middle; font-size: 10.2px;" transform="translate(64.03125,99.5)" y="0" x="0" id="text-entity-FtuIllustrationNode-06e03507-7f6b-5f00-b53f-e37ac626315d-attr-4-name" class="er entityLabel">label</text></g><g transform="translate(609.23046875,482 )" id="entity-FtuIllustrationFile-1f8fa152-fa14-5892-8686-63f30b69f575"><rect height="110" width="133.34375" y="0" x="0" class="er entityBox"/><text style="dominant-baseline: middle; text-anchor: middle; font-size: 12px;" transform="translate(66.671875,12)" y="0" x="0" id="text-entity-FtuIllustrationFile-1f8fa152-fa14-5892-8686-63f30b69f575" class="er entityLabel">FtuIllustrationFile</text><rect height="22" width="63.8828125" y="24" x="0" class="er attributeBoxOdd"/><text style="dominant-baseline: middle; font-size: 10.2px;" transform="translate(5,35)" y="0" x="0" id="text-entity-FtuIllustrationFile-1f8fa152-fa14-5892-8686-63f30b69f575-attr-1-type" class="er entityLabel">uri</text><rect height="22" width="69.4609375" y="24" x="63.8828125" class="er attributeBoxOdd"/><text style="dominant-baseline: middle; font-size: 10.2px;" transform="translate(68.8828125,35)" y="0" x="0" id="text-entity-FtuIllustrationFile-1f8fa152-fa14-5892-8686-63f30b69f575-attr-1-name" class="er entityLabel">file_url</text><rect height="22" width="63.8828125" y="46" x="0" class="er attributeBoxEven"/><text style="dominant-baseline: middle; font-size: 10.2px;" transform="translate(5,57)" y="0" x="0" id="text-entity-FtuIllustrationFile-1f8fa152-fa14-5892-8686-63f30b69f575-attr-2-type" class="er entityLabel">string</text><rect height="22" width="69.4609375" y="46" x="63.8828125" class="er attributeBoxEven"/><text style="dominant-baseline: middle; font-size: 10.2px;" transform="translate(68.8828125,57)" y="0" x="0" id="text-entity-FtuIllustrationFile-1f8fa152-fa14-5892-8686-63f30b69f575-attr-2-name" class="er entityLabel">file_format</text><rect height="21" width="63.8828125" y="68" x="0" class="er attributeBoxOdd"/><text style="dominant-baseline: middle; font-size: 10.2px;" transform="translate(5,78.5)" y="0" x="0" id="text-entity-FtuIllustrationFile-1f8fa152-fa14-5892-8686-63f30b69f575-attr-3-type" class="er entityLabel">uriorcurie</text><rect height="21" width="69.4609375" y="68" x="63.8828125" class="er attributeBoxOdd"/><text style="dominant-baseline: middle; font-size: 10.2px;" transform="translate(68.8828125,78.5)" y="0" x="0" id="text-entity-FtuIllustrationFile-1f8fa152-fa14-5892-8686-63f30b69f575-attr-3-name" class="er entityLabel">id</text><rect height="21" width="63.8828125" y="89" x="0" class="er attributeBoxEven"/><text style="dominant-baseline: middle; font-size: 10.2px;" transform="translate(5,99.5)" y="0" x="0" id="text-entity-FtuIllustrationFile-1f8fa152-fa14-5892-8686-63f30b69f575-attr-4-type" class="er entityLabel">string</text><rect height="21" width="69.4609375" y="89" x="63.8828125" class="er attributeBoxEven"/><text style="dominant-baseline: middle; font-size: 10.2px;" transform="translate(68.8828125,99.5)" y="0" x="0" id="text-entity-FtuIllustrationFile-1f8fa152-fa14-5892-8686-63f30b69f575-attr-4-name" class="er entityLabel">label</text></g><g transform="translate(343.10546875,514.5 )" id="entity-AnatomicalStructureID-da63396a-c604-5b4f-9fe4-9e0bedc73944"><rect height="45" width="166.125" y="0" x="0" class="er entityBox"/><text style="dominant-baseline: middle; text-anchor: middle; font-size: 12px;" transform="translate(83.0625,12)" y="0" x="0" id="text-entity-AnatomicalStructureID-da63396a-c604-5b4f-9fe4-9e0bedc73944" class="er entityLabel">AnatomicalStructureID</text><rect height="21" width="102.921875" y="24" x="0" class="er attributeBoxOdd"/><text style="dominant-baseline: middle; font-size: 10.2px;" transform="translate(5,34.5)" y="0" x="0" id="text-entity-AnatomicalStructureID-da63396a-c604-5b4f-9fe4-9e0bedc73944-attr-1-type" class="er entityLabel">uriorcurie</text><rect height="21" width="63.203125" y="24" x="102.921875" class="er attributeBoxOdd"/><text style="dominant-baseline: middle; font-size: 10.2px;" transform="translate(107.921875,34.5)" y="0" x="0" id="text-entity-AnatomicalStructureID-da63396a-c604-5b4f-9fe4-9e0bedc73944-attr-1-name" class="er entityLabel">id</text></g><g transform="translate(450.234375,165 )" id="entity-FtuMetadata-05f03653-eeef-5522-8ffe-39db23941fa9"><rect height="217" width="156.4871826171875" y="0" x="0" class="er entityBox"/><text style="dominant-baseline: middle; text-anchor: middle; font-size: 12px;" transform="translate(78.24359130859375,12)" y="0" x="0" id="text-entity-FtuMetadata-05f03653-eeef-5522-8ffe-39db23941fa9" class="er entityLabel">FtuMetadata</text><rect height="21" width="76.8309326171875" y="24" x="0" class="er attributeBoxOdd"/><text style="dominant-baseline: middle; font-size: 10.2px;" transform="translate(5,34.5)" y="0" x="0" id="text-entity-FtuMetadata-05f03653-eeef-5522-8ffe-39db23941fa9-attr-1-type" class="er entityLabel">string</text><rect height="21" width="79.65625" y="24" x="76.8309326171875" class="er attributeBoxOdd"/><text style="dominant-baseline: middle; font-size: 10.2px;" transform="translate(81.8309326171875,34.5)" y="0" x="0" id="text-entity-FtuMetadata-05f03653-eeef-5522-8ffe-39db23941fa9-attr-1-name" class="er entityLabel">title</text><rect height="21" width="76.8309326171875" y="45" x="0" class="er attributeBoxEven"/><text style="dominant-baseline: middle; font-size: 10.2px;" transform="translate(5,55.5)" y="0" x="0" id="text-entity-FtuMetadata-05f03653-eeef-5522-8ffe-39db23941fa9-attr-2-type" class="er entityLabel">string</text><rect height="21" width="79.65625" y="45" x="76.8309326171875" class="er attributeBoxEven"/><text style="dominant-baseline: middle; font-size: 10.2px;" transform="translate(81.8309326171875,55.5)" y="0" x="0" id="text-entity-FtuMetadata-05f03653-eeef-5522-8ffe-39db23941fa9-attr-2-name" class="er entityLabel">description</text><rect height="22" width="76.8309326171875" y="66" x="0" class="er attributeBoxOdd"/><text style="dominant-baseline: middle; font-size: 10.2px;" transform="translate(5,77)" y="0" x="0" id="text-entity-FtuMetadata-05f03653-eeef-5522-8ffe-39db23941fa9-attr-3-type" class="er entityLabel">uriorcurieList</text><rect height="22" width="79.65625" y="66" x="76.8309326171875" class="er attributeBoxOdd"/><text style="dominant-baseline: middle; font-size: 10.2px;" transform="translate(81.8309326171875,77)" y="0" x="0" id="text-entity-FtuMetadata-05f03653-eeef-5522-8ffe-39db23941fa9-attr-3-name" class="er entityLabel">created_by</text><rect height="22" width="76.8309326171875" y="88" x="0" class="er attributeBoxEven"/><text style="dominant-baseline: middle; font-size: 10.2px;" transform="translate(5,99)" y="0" x="0" id="text-entity-FtuMetadata-05f03653-eeef-5522-8ffe-39db23941fa9-attr-4-type" class="er entityLabel">string</text><rect height="22" width="79.65625" y="88" x="76.8309326171875" class="er attributeBoxEven"/><text style="dominant-baseline: middle; font-size: 10.2px;" transform="translate(81.8309326171875,99)" y="0" x="0" id="text-entity-FtuMetadata-05f03653-eeef-5522-8ffe-39db23941fa9-attr-4-name" class="er entityLabel">creation_date</text><rect height="21" width="76.8309326171875" y="110" x="0" class="er attributeBoxOdd"/><text style="dominant-baseline: middle; font-size: 10.2px;" transform="translate(5,120.5)" y="0" x="0" id="text-entity-FtuMetadata-05f03653-eeef-5522-8ffe-39db23941fa9-attr-5-type" class="er entityLabel">string</text><rect height="21" width="79.65625" y="110" x="76.8309326171875" class="er attributeBoxOdd"/><text style="dominant-baseline: middle; font-size: 10.2px;" transform="translate(81.8309326171875,120.5)" y="0" x="0" id="text-entity-FtuMetadata-05f03653-eeef-5522-8ffe-39db23941fa9-attr-5-name" class="er entityLabel">version</text><rect height="21" width="76.8309326171875" y="131" x="0" class="er attributeBoxEven"/><text style="dominant-baseline: middle; font-size: 10.2px;" transform="translate(5,141.5)" y="0" x="0" id="text-entity-FtuMetadata-05f03653-eeef-5522-8ffe-39db23941fa9-attr-6-type" class="er entityLabel">string</text><rect height="21" width="79.65625" y="131" x="76.8309326171875" class="er attributeBoxEven"/><text style="dominant-baseline: middle; font-size: 10.2px;" transform="translate(81.8309326171875,141.5)" y="0" x="0" id="text-entity-FtuMetadata-05f03653-eeef-5522-8ffe-39db23941fa9-attr-6-name" class="er entityLabel">license</text><rect height="21" width="76.8309326171875" y="152" x="0" class="er attributeBoxOdd"/><text style="dominant-baseline: middle; font-size: 10.2px;" transform="translate(5,162.5)" y="0" x="0" id="text-entity-FtuMetadata-05f03653-eeef-5522-8ffe-39db23941fa9-attr-7-type" class="er entityLabel">string</text><rect height="21" width="79.65625" y="152" x="76.8309326171875" class="er attributeBoxOdd"/><text style="dominant-baseline: middle; font-size: 10.2px;" transform="translate(81.8309326171875,162.5)" y="0" x="0" id="text-entity-FtuMetadata-05f03653-eeef-5522-8ffe-39db23941fa9-attr-7-name" class="er entityLabel">publisher</text><rect height="22" width="76.8309326171875" y="173" x="0" class="er attributeBoxEven"/><text style="dominant-baseline: middle; font-size: 10.2px;" transform="translate(5,184)" y="0" x="0" id="text-entity-FtuMetadata-05f03653-eeef-5522-8ffe-39db23941fa9-attr-8-type" class="er entityLabel">uriorcurie</text><rect height="22" width="79.65625" y="173" x="76.8309326171875" class="er attributeBoxEven"/><text style="dominant-baseline: middle; font-size: 10.2px;" transform="translate(81.8309326171875,184)" y="0" x="0" id="text-entity-FtuMetadata-05f03653-eeef-5522-8ffe-39db23941fa9-attr-8-name" class="er entityLabel">see_also</text><rect height="22" width="76.8309326171875" y="195" x="0" class="er attributeBoxOdd"/><text style="dominant-baseline: middle; font-size: 10.2px;" transform="translate(5,206)" y="0" x="0" id="text-entity-FtuMetadata-05f03653-eeef-5522-8ffe-39db23941fa9-attr-9-type" class="er entityLabel">uriorcurie</text><rect height="22" width="79.65625" y="195" x="76.8309326171875" class="er attributeBoxOdd"/><text style="dominant-baseline: middle; font-size: 10.2px;" transform="translate(81.8309326171875,206)" y="0" x="0" id="text-entity-FtuMetadata-05f03653-eeef-5522-8ffe-39db23941fa9-attr-9-name" class="er entityLabel">derived_from</text></g><rect height="14" width="58.171875" y="96.81878662109375" x="475.0097351074219" class="er relationshipLabelBox"/><text style="text-anchor: middle; dominant-baseline: middle; font-size: 12px;" y="103.81878662109375" x="504.0956726074219" id="rel1" class="er relationshipLabel">metadata</text><rect height="14" width="27.03125" y="130.3393096923828" x="289.7070007324219" class="er relationshipLabelBox"/><text style="text-anchor: middle; dominant-baseline: middle; font-size: 12px;" y="137.3393096923828" x="303.2226257324219" id="rel2" class="er relationshipLabel">data</text><rect height="14" width="61.28125" y="394.06915283203125" x="364.2269287109375" class="er relationshipLabelBox"/><text style="text-anchor: middle; dominant-baseline: middle; font-size: 12px;" y="401.06915283203125" x="394.8675537109375" id="rel3" class="er relationshipLabel">located_in</text><rect height="14" width="61.65625" y="365.3102722167969" x="497.5224609375" class="er relationshipLabelBox"/><text style="text-anchor: middle; dominant-baseline: middle; font-size: 12px;" y="372.3102722167969" x="528.3505859375" id="rel4" class="er relationshipLabel">image_file</text><rect height="14" width="99.796875" y="380.6995849609375" x="150.298828125" class="er relationshipLabelBox"/><text style="text-anchor: middle; dominant-baseline: middle; font-size: 12px;" y="387.6995849609375" x="200.197265625" id="rel5" class="er relationshipLabel">illustration_node</text><rect height="14" width="45.1484375" y="436.855712890625" x="-16.093563556671143" class="er relationshipLabelBox"/><text style="text-anchor: middle; dominant-baseline: middle; font-size: 12px;" y="443.855712890625" x="6.480655193328857" id="rel6" class="er relationshipLabel">type_of</text><rect height="14" width="45.1484375" y="642.0302734375" x="124.95816040039062" class="er relationshipLabelBox"/><text style="text-anchor: middle; dominant-baseline: middle; font-size: 12px;" y="649.0302734375" x="147.53237915039062" id="rel7" class="er relationshipLabel">type_of</text><rect height="14" width="45.1484375" y="670.1722412109375" x="387.5514221191406" class="er relationshipLabelBox"/><text style="text-anchor: middle; dominant-baseline: middle; font-size: 12px;" y="677.1722412109375" x="410.1256408691406" id="rel8" class="er relationshipLabel">type_of</text></svg>