<svg aria-roledescription="er" role="graphics-document document" viewBox="-70.0121955871582 0 311.731689453125 1379" style="max-width: 311.732px; background-color: white;" xmlns:xlink="http://www.w3.org/1999/xlink" xmlns="http://www.w3.org/2000/svg" width="100%" id="my-svg"><style>#my-svg{font-family:"trebuchet ms",verdana,arial,sans-serif;font-size:16px;fill:#333;}#my-svg .error-icon{fill:#552222;}#my-svg .error-text{fill:#552222;stroke:#552222;}#my-svg .edge-thickness-normal{stroke-width:1px;}#my-svg .edge-thickness-thick{stroke-width:3.5px;}#my-svg .edge-pattern-solid{stroke-dasharray:0;}#my-svg .edge-thickness-invisible{stroke-width:0;fill:none;}#my-svg .edge-pattern-dashed{stroke-dasharray:3;}#my-svg .edge-pattern-dotted{stroke-dasharray:2;}#my-svg .marker{fill:#333333;stroke:#333333;}#my-svg .marker.cross{stroke:#333333;}#my-svg svg{font-family:"trebuchet ms",verdana,arial,sans-serif;font-size:16px;}#my-svg p{margin:0;}#my-svg .entityBox{fill:#ECECFF;stroke:#9370DB;}#my-svg .attributeBoxOdd{fill:#ffffff;stroke:#9370DB;}#my-svg .attributeBoxEven{fill:#f2f2f2;stroke:#9370DB;}#my-svg .relationshipLabelBox{fill:hsl(80, 100%, 96.2745098039%);opacity:0.7;background-color:hsl(80, 100%, 96.2745098039%);}#my-svg .relationshipLabelBox rect{opacity:0.5;}#my-svg .relationshipLine{stroke:#333333;}#my-svg .entityTitleText{text-anchor:middle;font-size:18px;fill:#333;}#my-svg #MD_PARENT_START{fill:#f5f5f5!important;stroke:#333333!important;stroke-width:1;}#my-svg #MD_PARENT_END{fill:#f5f5f5!important;stroke:#333333!important;stroke-width:1;}#my-svg :root{--mermaid-font-family:"trebuchet ms",verdana,arial,sans-serif;}</style><g/><defs><marker orient="auto" markerHeight="240" markerWidth="190" refY="7" refX="0" id="MD_PARENT_START"><path d="M 18,7 L9,13 L1,7 L9,1 Z"/></marker></defs><defs><marker orient="auto" markerHeight="28" markerWidth="20" refY="7" refX="19" id="MD_PARENT_END"><path d="M 18,7 L9,13 L1,7 L9,1 Z"/></marker></defs><defs><marker orient="auto" markerHeight="18" markerWidth="18" refY="9" refX="0" id="ONLY_ONE_START"><path d="M9,0 L9,18 M15,0 L15,18" fill="none" stroke="gray"/></marker></defs><defs><marker orient="auto" markerHeight="18" markerWidth="18" refY="9" refX="18" id="ONLY_ONE_END"><path d="M3,0 L3,18 M9,0 L9,18" fill="none" stroke="gray"/></marker></defs><defs><marker orient="auto" markerHeight="18" markerWidth="30" refY="9" refX="0" id="ZERO_OR_ONE_START"><circle r="6" cy="9" cx="21" fill="white" stroke="gray"/><path d="M9,0 L9,18" fill="none" stroke="gray"/></marker></defs><defs><marker orient="auto" markerHeight="18" markerWidth="30" refY="9" refX="30" id="ZERO_OR_ONE_END"><circle r="6" cy="9" cx="9" fill="white" stroke="gray"/><path d="M21,0 L21,18" fill="none" stroke="gray"/></marker></defs><defs><marker orient="auto" markerHeight="36" markerWidth="45" refY="18" refX="18" id="ONE_OR_MORE_START"><path d="M0,18 Q 18,0 36,18 Q 18,36 0,18 M42,9 L42,27" fill="none" stroke="gray"/></marker></defs><defs><marker orient="auto" markerHeight="36" markerWidth="45" refY="18" refX="27" id="ONE_OR_MORE_END"><path d="M3,9 L3,27 M9,18 Q27,0 45,18 Q27,36 9,18" fill="none" stroke="gray"/></marker></defs><defs><marker orient="auto" markerHeight="36" markerWidth="57" refY="18" refX="18" id="ZERO_OR_MORE_START"><circle r="6" cy="18" cx="48" fill="white" stroke="gray"/><path d="M0,18 Q18,0 36,18 Q18,36 0,18" fill="none" stroke="gray"/></marker></defs><defs><marker orient="auto" markerHeight="36" markerWidth="57" refY="18" refX="39" id="ZERO_OR_MORE_END"><circle r="6" cy="18" cx="9" fill="white" stroke="gray"/><path d="M21,18 Q39,0 57,18 Q39,36 21,18" fill="none" stroke="gray"/></marker></defs><path style="stroke: gray; fill: none;" marker-start="url(#ONLY_ONE_START)" marker-end="url(#ZERO_OR_ONE_END)" d="M103.906,86L103.906,94.333C103.906,102.667,103.906,119.333,103.906,136C103.906,152.667,103.906,169.333,103.906,177.667L103.906,186" class="er relationshipLine"/><path style="stroke: gray; fill: none;" marker-start="url(#ONLY_ONE_START)" marker-end="url(#ZERO_OR_MORE_END)" d="M103.906,336L103.906,344.333C103.906,352.667,103.906,369.333,103.906,386C103.906,402.667,103.906,419.333,103.906,427.667L103.906,436" class="er relationshipLine"/><path style="stroke: gray; fill: none;" marker-start="url(#ONLY_ONE_START)" marker-end="url(#ONLY_ONE_END)" d="M103.906,712L103.906,720.333C103.906,728.667,103.906,745.333,105.639,762C107.371,778.667,110.837,795.333,112.569,803.667L114.302,812" class="er relationshipLine"/><path style="stroke: gray; fill: none;" marker-start="url(#ONLY_ONE_START)" marker-end="url(#ZERO_OR_MORE_END)" d="M30.316,677.318L20.264,691.432C10.211,705.545,-9.895,733.773,-19.947,787.97C-30,842.167,-30,922.333,-30,1002.5C-30,1082.667,-30,1162.833,-19.96,1211.25C-9.92,1259.667,10.161,1276.333,20.201,1284.667L30.241,1293" class="er relationshipLine"/><path style="stroke: gray; fill: none;" marker-start="url(#ONLY_ONE_START)" marker-end="url(#ZERO_OR_ONE_END)" d="M193.511,812L195.244,803.667C196.976,795.333,200.441,778.667,197.741,762C195.041,745.333,186.176,728.667,181.743,720.333L177.311,712" class="er relationshipLine"/><path style="stroke: gray; fill: none;" marker-start="url(#ONLY_ONE_START)" marker-end="url(#ZERO_OR_MORE_END)" d="M153.906,1193L153.906,1201.333C153.906,1209.667,153.906,1226.333,145.482,1243C137.058,1259.667,120.209,1276.333,111.785,1284.667L103.36,1293" class="er relationshipLine"/><g transform="translate(53.906494140625,20 )" id="entity-Container-bc34fb32-8a75-5b81-936b-92374bf40296"><rect height="66" width="100" y="0" x="0" class="er entityBox"/><text style="dominant-baseline: middle; text-anchor: middle; font-size: 12px;" transform="translate(50,12)" y="0" x="0" id="text-entity-Container-bc34fb32-8a75-5b81-936b-92374bf40296" class="er entityLabel">Container</text><rect height="21" width="41.21775817871094" y="24" x="0" class="er attributeBoxOdd"/><text style="dominant-baseline: middle; font-size: 10.2px;" transform="translate(5,34.5)" y="0" x="0" id="text-entity-Container-bc34fb32-8a75-5b81-936b-92374bf40296-attr-1-type" class="er entityLabel">string</text><rect height="21" width="58.78224182128906" y="24" x="41.21775817871094" class="er attributeBoxOdd"/><text style="dominant-baseline: middle; font-size: 10.2px;" transform="translate(46.21775817871094,34.5)" y="0" x="0" id="text-entity-Container-bc34fb32-8a75-5b81-936b-92374bf40296-attr-1-name" class="er entityLabel">iri</text><rect height="21" width="41.21775817871094" y="45" x="0" class="er attributeBoxEven"/><text style="dominant-baseline: middle; font-size: 10.2px;" transform="translate(5,55.5)" y="0" x="0" id="text-entity-Container-bc34fb32-8a75-5b81-936b-92374bf40296-attr-2-type" class="er entityLabel">string</text><rect height="21" width="58.78224182128906" y="45" x="41.21775817871094" class="er attributeBoxEven"/><text style="dominant-baseline: middle; font-size: 10.2px;" transform="translate(46.21775817871094,55.5)" y="0" x="0" id="text-entity-Container-bc34fb32-8a75-5b81-936b-92374bf40296-attr-2-name" class="er entityLabel">metadata</text></g><g transform="translate(49.41236877441406,186 )" id="entity-SpatialData-5adc4e2a-a914-58f5-922f-dbf2281bba58"><rect height="150" width="108.98825073242188" y="0" x="0" class="er entityBox"/><text style="dominant-baseline: middle; text-anchor: middle; font-size: 12px;" transform="translate(54.49412536621094,12)" y="0" x="0" id="text-entity-SpatialData-5adc4e2a-a914-58f5-922f-dbf2281bba58" class="er entityLabel">SpatialData</text><rect height="21" width="35.245819091796875" y="24" x="0" class="er attributeBoxOdd"/><text style="dominant-baseline: middle; font-size: 10.2px;" transform="translate(5,34.5)" y="0" x="0" id="text-entity-SpatialData-5adc4e2a-a914-58f5-922f-dbf2281bba58-attr-1-type" class="er entityLabel">string</text><rect height="21" width="73.742431640625" y="24" x="35.245819091796875" class="er attributeBoxOdd"/><text style="dominant-baseline: middle; font-size: 10.2px;" transform="translate(40.245819091796875,34.5)" y="0" x="0" id="text-entity-SpatialData-5adc4e2a-a914-58f5-922f-dbf2281bba58-attr-1-name" class="er entityLabel">donor</text><rect height="21" width="35.245819091796875" y="45" x="0" class="er attributeBoxEven"/><text style="dominant-baseline: middle; font-size: 10.2px;" transform="translate(5,55.5)" y="0" x="0" id="text-entity-SpatialData-5adc4e2a-a914-58f5-922f-dbf2281bba58-attr-2-type" class="er entityLabel">string</text><rect height="21" width="73.742431640625" y="45" x="35.245819091796875" class="er attributeBoxEven"/><text style="dominant-baseline: middle; font-size: 10.2px;" transform="translate(40.245819091796875,55.5)" y="0" x="0" id="text-entity-SpatialData-5adc4e2a-a914-58f5-922f-dbf2281bba58-attr-2-name" class="er entityLabel">sample</text><rect height="21" width="35.245819091796875" y="66" x="0" class="er attributeBoxOdd"/><text style="dominant-baseline: middle; font-size: 10.2px;" transform="translate(5,76.5)" y="0" x="0" id="text-entity-SpatialData-5adc4e2a-a914-58f5-922f-dbf2281bba58-attr-3-type" class="er entityLabel">string</text><rect height="21" width="73.742431640625" y="66" x="35.245819091796875" class="er attributeBoxOdd"/><text style="dominant-baseline: middle; font-size: 10.2px;" transform="translate(40.245819091796875,76.5)" y="0" x="0" id="text-entity-SpatialData-5adc4e2a-a914-58f5-922f-dbf2281bba58-attr-3-name" class="er entityLabel">dataset</text><rect height="21" width="35.245819091796875" y="87" x="0" class="er attributeBoxEven"/><text style="dominant-baseline: middle; font-size: 10.2px;" transform="translate(5,97.5)" y="0" x="0" id="text-entity-SpatialData-5adc4e2a-a914-58f5-922f-dbf2281bba58-attr-4-type" class="er entityLabel">string</text><rect height="21" width="73.742431640625" y="87" x="35.245819091796875" class="er attributeBoxEven"/><text style="dominant-baseline: middle; font-size: 10.2px;" transform="translate(40.245819091796875,97.5)" y="0" x="0" id="text-entity-SpatialData-5adc4e2a-a914-58f5-922f-dbf2281bba58-attr-4-name" class="er entityLabel">cell_summary</text><rect height="21" width="35.245819091796875" y="108" x="0" class="er attributeBoxOdd"/><text style="dominant-baseline: middle; font-size: 10.2px;" transform="translate(5,118.5)" y="0" x="0" id="text-entity-SpatialData-5adc4e2a-a914-58f5-922f-dbf2281bba58-attr-5-type" class="er entityLabel">string</text><rect height="21" width="73.742431640625" y="108" x="35.245819091796875" class="er attributeBoxOdd"/><text style="dominant-baseline: middle; font-size: 10.2px;" transform="translate(40.245819091796875,118.5)" y="0" x="0" id="text-entity-SpatialData-5adc4e2a-a914-58f5-922f-dbf2281bba58-attr-5-name" class="er entityLabel">collision</text><rect height="21" width="35.245819091796875" y="129" x="0" class="er attributeBoxEven"/><text style="dominant-baseline: middle; font-size: 10.2px;" transform="translate(5,139.5)" y="0" x="0" id="text-entity-SpatialData-5adc4e2a-a914-58f5-922f-dbf2281bba58-attr-6-type" class="er entityLabel">string</text><rect height="21" width="73.742431640625" y="129" x="35.245819091796875" class="er attributeBoxEven"/><text style="dominant-baseline: middle; font-size: 10.2px;" transform="translate(40.245819091796875,139.5)" y="0" x="0" id="text-entity-SpatialData-5adc4e2a-a914-58f5-922f-dbf2281bba58-attr-6-name" class="er entityLabel">corridor</text></g><g transform="translate(30.316238403320312,436 )" id="entity-SpatialEntity-d1db85b5-1d94-5840-8e44-d9029b3ecf4a"><rect height="276" width="147.18051147460938" y="0" x="0" class="er entityBox"/><text style="dominant-baseline: middle; text-anchor: middle; font-size: 12px;" transform="translate(73.59025573730469,12)" y="0" x="0" id="text-entity-SpatialEntity-d1db85b5-1d94-5840-8e44-d9029b3ecf4a" class="er entityLabel">SpatialEntity</text><rect height="21" width="68.48406982421875" y="24" x="0" class="er attributeBoxOdd"/><text style="dominant-baseline: middle; font-size: 10.2px;" transform="translate(5,34.5)" y="0" x="0" id="text-entity-SpatialEntity-d1db85b5-1d94-5840-8e44-d9029b3ecf4a-attr-1-type" class="er entityLabel">string</text><rect height="21" width="78.69644165039062" y="24" x="68.48406982421875" class="er attributeBoxOdd"/><text style="dominant-baseline: middle; font-size: 10.2px;" transform="translate(73.48406982421875,34.5)" y="0" x="0" id="text-entity-SpatialEntity-d1db85b5-1d94-5840-8e44-d9029b3ecf4a-attr-1-name" class="er entityLabel">pref_label</text><rect height="21" width="68.48406982421875" y="45" x="0" class="er attributeBoxEven"/><text style="dominant-baseline: middle; font-size: 10.2px;" transform="translate(5,55.5)" y="0" x="0" id="text-entity-SpatialEntity-d1db85b5-1d94-5840-8e44-d9029b3ecf4a-attr-2-type" class="er entityLabel">string</text><rect height="21" width="78.69644165039062" y="45" x="68.48406982421875" class="er attributeBoxEven"/><text style="dominant-baseline: middle; font-size: 10.2px;" transform="translate(73.48406982421875,55.5)" y="0" x="0" id="text-entity-SpatialEntity-d1db85b5-1d94-5840-8e44-d9029b3ecf4a-attr-2-name" class="er entityLabel">creator_name</text><rect height="21" width="68.48406982421875" y="66" x="0" class="er attributeBoxOdd"/><text style="dominant-baseline: middle; font-size: 10.2px;" transform="translate(5,76.5)" y="0" x="0" id="text-entity-SpatialEntity-d1db85b5-1d94-5840-8e44-d9029b3ecf4a-attr-3-type" class="er entityLabel">date</text><rect height="21" width="78.69644165039062" y="66" x="68.48406982421875" class="er attributeBoxOdd"/><text style="dominant-baseline: middle; font-size: 10.2px;" transform="translate(73.48406982421875,76.5)" y="0" x="0" id="text-entity-SpatialEntity-d1db85b5-1d94-5840-8e44-d9029b3ecf4a-attr-3-name" class="er entityLabel">create_date</text><rect height="21" width="68.48406982421875" y="87" x="0" class="er attributeBoxEven"/><text style="dominant-baseline: middle; font-size: 10.2px;" transform="translate(5,97.5)" y="0" x="0" id="text-entity-SpatialEntity-d1db85b5-1d94-5840-8e44-d9029b3ecf4a-attr-4-type" class="er entityLabel">float</text><rect height="21" width="78.69644165039062" y="87" x="68.48406982421875" class="er attributeBoxEven"/><text style="dominant-baseline: middle; font-size: 10.2px;" transform="translate(73.48406982421875,97.5)" y="0" x="0" id="text-entity-SpatialEntity-d1db85b5-1d94-5840-8e44-d9029b3ecf4a-attr-4-name" class="er entityLabel">x_dimension</text><rect height="21" width="68.48406982421875" y="108" x="0" class="er attributeBoxOdd"/><text style="dominant-baseline: middle; font-size: 10.2px;" transform="translate(5,118.5)" y="0" x="0" id="text-entity-SpatialEntity-d1db85b5-1d94-5840-8e44-d9029b3ecf4a-attr-5-type" class="er entityLabel">float</text><rect height="21" width="78.69644165039062" y="108" x="68.48406982421875" class="er attributeBoxOdd"/><text style="dominant-baseline: middle; font-size: 10.2px;" transform="translate(73.48406982421875,118.5)" y="0" x="0" id="text-entity-SpatialEntity-d1db85b5-1d94-5840-8e44-d9029b3ecf4a-attr-5-name" class="er entityLabel">y_dimension</text><rect height="21" width="68.48406982421875" y="129" x="0" class="er attributeBoxEven"/><text style="dominant-baseline: middle; font-size: 10.2px;" transform="translate(5,139.5)" y="0" x="0" id="text-entity-SpatialEntity-d1db85b5-1d94-5840-8e44-d9029b3ecf4a-attr-6-type" class="er entityLabel">float</text><rect height="21" width="78.69644165039062" y="129" x="68.48406982421875" class="er attributeBoxEven"/><text style="dominant-baseline: middle; font-size: 10.2px;" transform="translate(73.48406982421875,139.5)" y="0" x="0" id="text-entity-SpatialEntity-d1db85b5-1d94-5840-8e44-d9029b3ecf4a-attr-6-name" class="er entityLabel">z_dimension</text><rect height="21" width="68.48406982421875" y="150" x="0" class="er attributeBoxOdd"/><text style="dominant-baseline: middle; font-size: 10.2px;" transform="translate(5,160.5)" y="0" x="0" id="text-entity-SpatialEntity-d1db85b5-1d94-5840-8e44-d9029b3ecf4a-attr-7-type" class="er entityLabel">string</text><rect height="21" width="78.69644165039062" y="150" x="68.48406982421875" class="er attributeBoxOdd"/><text style="dominant-baseline: middle; font-size: 10.2px;" transform="translate(73.48406982421875,160.5)" y="0" x="0" id="text-entity-SpatialEntity-d1db85b5-1d94-5840-8e44-d9029b3ecf4a-attr-7-name" class="er entityLabel">dimension_unit</text><rect height="21" width="68.48406982421875" y="171" x="0" class="er attributeBoxEven"/><text style="dominant-baseline: middle; font-size: 10.2px;" transform="translate(5,181.5)" y="0" x="0" id="text-entity-SpatialEntity-d1db85b5-1d94-5840-8e44-d9029b3ecf4a-attr-8-type" class="er entityLabel">uriorcurieList</text><rect height="21" width="78.69644165039062" y="171" x="68.48406982421875" class="er attributeBoxEven"/><text style="dominant-baseline: middle; font-size: 10.2px;" transform="translate(73.48406982421875,181.5)" y="0" x="0" id="text-entity-SpatialEntity-d1db85b5-1d94-5840-8e44-d9029b3ecf4a-attr-8-name" class="er entityLabel">collides_with</text><rect height="21" width="68.48406982421875" y="192" x="0" class="er attributeBoxOdd"/><text style="dominant-baseline: middle; font-size: 10.2px;" transform="translate(5,202.5)" y="0" x="0" id="text-entity-SpatialEntity-d1db85b5-1d94-5840-8e44-d9029b3ecf4a-attr-9-type" class="er entityLabel">integer</text><rect height="21" width="78.69644165039062" y="192" x="68.48406982421875" class="er attributeBoxOdd"/><text style="dominant-baseline: middle; font-size: 10.2px;" transform="translate(73.48406982421875,202.5)" y="0" x="0" id="text-entity-SpatialEntity-d1db85b5-1d94-5840-8e44-d9029b3ecf4a-attr-9-name" class="er entityLabel">slice_count</text><rect height="21" width="68.48406982421875" y="213" x="0" class="er attributeBoxEven"/><text style="dominant-baseline: middle; font-size: 10.2px;" transform="translate(5,223.5)" y="0" x="0" id="text-entity-SpatialEntity-d1db85b5-1d94-5840-8e44-d9029b3ecf4a-attr-10-type" class="er entityLabel">integer</text><rect height="21" width="78.69644165039062" y="213" x="68.48406982421875" class="er attributeBoxEven"/><text style="dominant-baseline: middle; font-size: 10.2px;" transform="translate(73.48406982421875,223.5)" y="0" x="0" id="text-entity-SpatialEntity-d1db85b5-1d94-5840-8e44-d9029b3ecf4a-attr-10-name" class="er entityLabel">slice_thickness</text><rect height="21" width="68.48406982421875" y="234" x="0" class="er attributeBoxOdd"/><text style="dominant-baseline: middle; font-size: 10.2px;" transform="translate(5,244.5)" y="0" x="0" id="text-entity-SpatialEntity-d1db85b5-1d94-5840-8e44-d9029b3ecf4a-attr-11-type" class="er entityLabel">uriorcurie</text><rect height="21" width="78.69644165039062" y="234" x="68.48406982421875" class="er attributeBoxOdd"/><text style="dominant-baseline: middle; font-size: 10.2px;" transform="translate(73.48406982421875,244.5)" y="0" x="0" id="text-entity-SpatialEntity-d1db85b5-1d94-5840-8e44-d9029b3ecf4a-attr-11-name" class="er entityLabel">id</text><rect height="21" width="68.48406982421875" y="255" x="0" class="er attributeBoxEven"/><text style="dominant-baseline: middle; font-size: 10.2px;" transform="translate(5,265.5)" y="0" x="0" id="text-entity-SpatialEntity-d1db85b5-1d94-5840-8e44-d9029b3ecf4a-attr-12-type" class="er entityLabel">string</text><rect height="21" width="78.69644165039062" y="255" x="68.48406982421875" class="er attributeBoxEven"/><text style="dominant-baseline: middle; font-size: 10.2px;" transform="translate(73.48406982421875,265.5)" y="0" x="0" id="text-entity-SpatialEntity-d1db85b5-1d94-5840-8e44-d9029b3ecf4a-attr-12-name" class="er entityLabel">label</text></g><g transform="translate(20,1293 )" id="entity-Named-527792da-945b-57c2-aece-6a504f46f916"><rect height="66" width="100" y="0" x="0" class="er entityBox"/><text style="dominant-baseline: middle; text-anchor: middle; font-size: 12px;" transform="translate(50,12)" y="0" x="0" id="text-entity-Named-527792da-945b-57c2-aece-6a504f46f916" class="er entityLabel">Named</text><rect height="21" width="60.63206481933594" y="24" x="0" class="er attributeBoxOdd"/><text style="dominant-baseline: middle; font-size: 10.2px;" transform="translate(5,34.5)" y="0" x="0" id="text-entity-Named-527792da-945b-57c2-aece-6a504f46f916-attr-1-type" class="er entityLabel">uriorcurie</text><rect height="21" width="39.36793518066406" y="24" x="60.63206481933594" class="er attributeBoxOdd"/><text style="dominant-baseline: middle; font-size: 10.2px;" transform="translate(65.63206481933594,34.5)" y="0" x="0" id="text-entity-Named-527792da-945b-57c2-aece-6a504f46f916-attr-1-name" class="er entityLabel">id</text><rect height="21" width="60.63206481933594" y="45" x="0" class="er attributeBoxEven"/><text style="dominant-baseline: middle; font-size: 10.2px;" transform="translate(5,55.5)" y="0" x="0" id="text-entity-Named-527792da-945b-57c2-aece-6a504f46f916-attr-2-type" class="er entityLabel">string</text><rect height="21" width="39.36793518066406" y="45" x="60.63206481933594" class="er attributeBoxEven"/><text style="dominant-baseline: middle; font-size: 10.2px;" transform="translate(65.63206481933594,55.5)" y="0" x="0" id="text-entity-Named-527792da-945b-57c2-aece-6a504f46f916-attr-2-name" class="er entityLabel">label</text></g><g transform="translate(86.093505859375,812 )" id="entity-SpatialPlacement-346e1bb7-3014-5df7-8b75-dd9bd5f12664"><rect height="381" width="135.6259765625" y="0" x="0" class="er entityBox"/><text style="dominant-baseline: middle; text-anchor: middle; font-size: 12px;" transform="translate(67.81298828125,12)" y="0" x="0" id="text-entity-SpatialPlacement-346e1bb7-3014-5df7-8b75-dd9bd5f12664" class="er entityLabel">SpatialPlacement</text><rect height="21" width="52.795379638671875" y="24" x="0" class="er attributeBoxOdd"/><text style="dominant-baseline: middle; font-size: 10.2px;" transform="translate(5,34.5)" y="0" x="0" id="text-entity-SpatialPlacement-346e1bb7-3014-5df7-8b75-dd9bd5f12664-attr-1-type" class="er entityLabel">uriorcurie</text><rect height="21" width="82.83059692382812" y="24" x="52.795379638671875" class="er attributeBoxOdd"/><text style="dominant-baseline: middle; font-size: 10.2px;" transform="translate(57.795379638671875,34.5)" y="0" x="0" id="text-entity-SpatialPlacement-346e1bb7-3014-5df7-8b75-dd9bd5f12664-attr-1-name" class="er entityLabel">target</text><rect height="21" width="52.795379638671875" y="45" x="0" class="er attributeBoxEven"/><text style="dominant-baseline: middle; font-size: 10.2px;" transform="translate(5,55.5)" y="0" x="0" id="text-entity-SpatialPlacement-346e1bb7-3014-5df7-8b75-dd9bd5f12664-attr-2-type" class="er entityLabel">date</text><rect height="21" width="82.83059692382812" y="45" x="52.795379638671875" class="er attributeBoxEven"/><text style="dominant-baseline: middle; font-size: 10.2px;" transform="translate(57.795379638671875,55.5)" y="0" x="0" id="text-entity-SpatialPlacement-346e1bb7-3014-5df7-8b75-dd9bd5f12664-attr-2-name" class="er entityLabel">placement_date</text><rect height="21" width="52.795379638671875" y="66" x="0" class="er attributeBoxOdd"/><text style="dominant-baseline: middle; font-size: 10.2px;" transform="translate(5,76.5)" y="0" x="0" id="text-entity-SpatialPlacement-346e1bb7-3014-5df7-8b75-dd9bd5f12664-attr-3-type" class="er entityLabel">float</text><rect height="21" width="82.83059692382812" y="66" x="52.795379638671875" class="er attributeBoxOdd"/><text style="dominant-baseline: middle; font-size: 10.2px;" transform="translate(57.795379638671875,76.5)" y="0" x="0" id="text-entity-SpatialPlacement-346e1bb7-3014-5df7-8b75-dd9bd5f12664-attr-3-name" class="er entityLabel">x_scaling</text><rect height="21" width="52.795379638671875" y="87" x="0" class="er attributeBoxEven"/><text style="dominant-baseline: middle; font-size: 10.2px;" transform="translate(5,97.5)" y="0" x="0" id="text-entity-SpatialPlacement-346e1bb7-3014-5df7-8b75-dd9bd5f12664-attr-4-type" class="er entityLabel">float</text><rect height="21" width="82.83059692382812" y="87" x="52.795379638671875" class="er attributeBoxEven"/><text style="dominant-baseline: middle; font-size: 10.2px;" transform="translate(57.795379638671875,97.5)" y="0" x="0" id="text-entity-SpatialPlacement-346e1bb7-3014-5df7-8b75-dd9bd5f12664-attr-4-name" class="er entityLabel">y_scaling</text><rect height="21" width="52.795379638671875" y="108" x="0" class="er attributeBoxOdd"/><text style="dominant-baseline: middle; font-size: 10.2px;" transform="translate(5,118.5)" y="0" x="0" id="text-entity-SpatialPlacement-346e1bb7-3014-5df7-8b75-dd9bd5f12664-attr-5-type" class="er entityLabel">float</text><rect height="21" width="82.83059692382812" y="108" x="52.795379638671875" class="er attributeBoxOdd"/><text style="dominant-baseline: middle; font-size: 10.2px;" transform="translate(57.795379638671875,118.5)" y="0" x="0" id="text-entity-SpatialPlacement-346e1bb7-3014-5df7-8b75-dd9bd5f12664-attr-5-name" class="er entityLabel">z_scaling</text><rect height="21" width="52.795379638671875" y="129" x="0" class="er attributeBoxEven"/><text style="dominant-baseline: middle; font-size: 10.2px;" transform="translate(5,139.5)" y="0" x="0" id="text-entity-SpatialPlacement-346e1bb7-3014-5df7-8b75-dd9bd5f12664-attr-6-type" class="er entityLabel">string</text><rect height="21" width="82.83059692382812" y="129" x="52.795379638671875" class="er attributeBoxEven"/><text style="dominant-baseline: middle; font-size: 10.2px;" transform="translate(57.795379638671875,139.5)" y="0" x="0" id="text-entity-SpatialPlacement-346e1bb7-3014-5df7-8b75-dd9bd5f12664-attr-6-name" class="er entityLabel">scaling_unit</text><rect height="21" width="52.795379638671875" y="150" x="0" class="er attributeBoxOdd"/><text style="dominant-baseline: middle; font-size: 10.2px;" transform="translate(5,160.5)" y="0" x="0" id="text-entity-SpatialPlacement-346e1bb7-3014-5df7-8b75-dd9bd5f12664-attr-7-type" class="er entityLabel">float</text><rect height="21" width="82.83059692382812" y="150" x="52.795379638671875" class="er attributeBoxOdd"/><text style="dominant-baseline: middle; font-size: 10.2px;" transform="translate(57.795379638671875,160.5)" y="0" x="0" id="text-entity-SpatialPlacement-346e1bb7-3014-5df7-8b75-dd9bd5f12664-attr-7-name" class="er entityLabel">x_rotation</text><rect height="21" width="52.795379638671875" y="171" x="0" class="er attributeBoxEven"/><text style="dominant-baseline: middle; font-size: 10.2px;" transform="translate(5,181.5)" y="0" x="0" id="text-entity-SpatialPlacement-346e1bb7-3014-5df7-8b75-dd9bd5f12664-attr-8-type" class="er entityLabel">float</text><rect height="21" width="82.83059692382812" y="171" x="52.795379638671875" class="er attributeBoxEven"/><text style="dominant-baseline: middle; font-size: 10.2px;" transform="translate(57.795379638671875,181.5)" y="0" x="0" id="text-entity-SpatialPlacement-346e1bb7-3014-5df7-8b75-dd9bd5f12664-attr-8-name" class="er entityLabel">y_rotation</text><rect height="21" width="52.795379638671875" y="192" x="0" class="er attributeBoxOdd"/><text style="dominant-baseline: middle; font-size: 10.2px;" transform="translate(5,202.5)" y="0" x="0" id="text-entity-SpatialPlacement-346e1bb7-3014-5df7-8b75-dd9bd5f12664-attr-9-type" class="er entityLabel">float</text><rect height="21" width="82.83059692382812" y="192" x="52.795379638671875" class="er attributeBoxOdd"/><text style="dominant-baseline: middle; font-size: 10.2px;" transform="translate(57.795379638671875,202.5)" y="0" x="0" id="text-entity-SpatialPlacement-346e1bb7-3014-5df7-8b75-dd9bd5f12664-attr-9-name" class="er entityLabel">z_rotation</text><rect height="21" width="52.795379638671875" y="213" x="0" class="er attributeBoxEven"/><text style="dominant-baseline: middle; font-size: 10.2px;" transform="translate(5,223.5)" y="0" x="0" id="text-entity-SpatialPlacement-346e1bb7-3014-5df7-8b75-dd9bd5f12664-attr-10-type" class="er entityLabel">string</text><rect height="21" width="82.83059692382812" y="213" x="52.795379638671875" class="er attributeBoxEven"/><text style="dominant-baseline: middle; font-size: 10.2px;" transform="translate(57.795379638671875,223.5)" y="0" x="0" id="text-entity-SpatialPlacement-346e1bb7-3014-5df7-8b75-dd9bd5f12664-attr-10-name" class="er entityLabel">rotation_unit</text><rect height="21" width="52.795379638671875" y="234" x="0" class="er attributeBoxOdd"/><text style="dominant-baseline: middle; font-size: 10.2px;" transform="translate(5,244.5)" y="0" x="0" id="text-entity-SpatialPlacement-346e1bb7-3014-5df7-8b75-dd9bd5f12664-attr-11-type" class="er entityLabel">string</text><rect height="21" width="82.83059692382812" y="234" x="52.795379638671875" class="er attributeBoxOdd"/><text style="dominant-baseline: middle; font-size: 10.2px;" transform="translate(57.795379638671875,244.5)" y="0" x="0" id="text-entity-SpatialPlacement-346e1bb7-3014-5df7-8b75-dd9bd5f12664-attr-11-name" class="er entityLabel">rotation_order</text><rect height="21" width="52.795379638671875" y="255" x="0" class="er attributeBoxEven"/><text style="dominant-baseline: middle; font-size: 10.2px;" transform="translate(5,265.5)" y="0" x="0" id="text-entity-SpatialPlacement-346e1bb7-3014-5df7-8b75-dd9bd5f12664-attr-12-type" class="er entityLabel">float</text><rect height="21" width="82.83059692382812" y="255" x="52.795379638671875" class="er attributeBoxEven"/><text style="dominant-baseline: middle; font-size: 10.2px;" transform="translate(57.795379638671875,265.5)" y="0" x="0" id="text-entity-SpatialPlacement-346e1bb7-3014-5df7-8b75-dd9bd5f12664-attr-12-name" class="er entityLabel">x_translation</text><rect height="21" width="52.795379638671875" y="276" x="0" class="er attributeBoxOdd"/><text style="dominant-baseline: middle; font-size: 10.2px;" transform="translate(5,286.5)" y="0" x="0" id="text-entity-SpatialPlacement-346e1bb7-3014-5df7-8b75-dd9bd5f12664-attr-13-type" class="er entityLabel">float</text><rect height="21" width="82.83059692382812" y="276" x="52.795379638671875" class="er attributeBoxOdd"/><text style="dominant-baseline: middle; font-size: 10.2px;" transform="translate(57.795379638671875,286.5)" y="0" x="0" id="text-entity-SpatialPlacement-346e1bb7-3014-5df7-8b75-dd9bd5f12664-attr-13-name" class="er entityLabel">y_translation</text><rect height="21" width="52.795379638671875" y="297" x="0" class="er attributeBoxEven"/><text style="dominant-baseline: middle; font-size: 10.2px;" transform="translate(5,307.5)" y="0" x="0" id="text-entity-SpatialPlacement-346e1bb7-3014-5df7-8b75-dd9bd5f12664-attr-14-type" class="er entityLabel">float</text><rect height="21" width="82.83059692382812" y="297" x="52.795379638671875" class="er attributeBoxEven"/><text style="dominant-baseline: middle; font-size: 10.2px;" transform="translate(57.795379638671875,307.5)" y="0" x="0" id="text-entity-SpatialPlacement-346e1bb7-3014-5df7-8b75-dd9bd5f12664-attr-14-name" class="er entityLabel">z_translation</text><rect height="21" width="52.795379638671875" y="318" x="0" class="er attributeBoxOdd"/><text style="dominant-baseline: middle; font-size: 10.2px;" transform="translate(5,328.5)" y="0" x="0" id="text-entity-SpatialPlacement-346e1bb7-3014-5df7-8b75-dd9bd5f12664-attr-15-type" class="er entityLabel">string</text><rect height="21" width="82.83059692382812" y="318" x="52.795379638671875" class="er attributeBoxOdd"/><text style="dominant-baseline: middle; font-size: 10.2px;" transform="translate(57.795379638671875,328.5)" y="0" x="0" id="text-entity-SpatialPlacement-346e1bb7-3014-5df7-8b75-dd9bd5f12664-attr-15-name" class="er entityLabel">translation_unit</text><rect height="21" width="52.795379638671875" y="339" x="0" class="er attributeBoxEven"/><text style="dominant-baseline: middle; font-size: 10.2px;" transform="translate(5,349.5)" y="0" x="0" id="text-entity-SpatialPlacement-346e1bb7-3014-5df7-8b75-dd9bd5f12664-attr-16-type" class="er entityLabel">uriorcurie</text><rect height="21" width="82.83059692382812" y="339" x="52.795379638671875" class="er attributeBoxEven"/><text style="dominant-baseline: middle; font-size: 10.2px;" transform="translate(57.795379638671875,349.5)" y="0" x="0" id="text-entity-SpatialPlacement-346e1bb7-3014-5df7-8b75-dd9bd5f12664-attr-16-name" class="er entityLabel">id</text><rect height="21" width="52.795379638671875" y="360" x="0" class="er attributeBoxOdd"/><text style="dominant-baseline: middle; font-size: 10.2px;" transform="translate(5,370.5)" y="0" x="0" id="text-entity-SpatialPlacement-346e1bb7-3014-5df7-8b75-dd9bd5f12664-attr-17-type" class="er entityLabel">string</text><rect height="21" width="82.83059692382812" y="360" x="52.795379638671875" class="er attributeBoxOdd"/><text style="dominant-baseline: middle; font-size: 10.2px;" transform="translate(57.795379638671875,370.5)" y="0" x="0" id="text-entity-SpatialPlacement-346e1bb7-3014-5df7-8b75-dd9bd5f12664-attr-17-name" class="er entityLabel">label</text></g><rect height="14" width="23.681640625" y="129" x="92.06517791748047" class="er relationshipLabelBox"/><text style="text-anchor: middle; dominant-baseline: middle; font-size: 12px;" y="136" x="103.90599822998047" id="rel1" class="er relationshipLabel">data</text><rect height="14" width="70.046875" y="379" x="68.88256072998047" class="er relationshipLabelBox"/><text style="text-anchor: middle; dominant-baseline: middle; font-size: 12px;" y="386" x="103.90599822998047" id="rel2" class="er relationshipLabel">spatial_entity</text><rect height="14" width="56.03125" y="755.35498046875" x="77.66084289550781" class="er relationshipLabelBox"/><text style="text-anchor: middle; dominant-baseline: middle; font-size: 12px;" y="762.35498046875" x="105.67646789550781" id="rel3" class="er relationshipLabel">placement</text><rect height="14" width="40.029296875" y="980.4857177734375" x="-50.0121955871582" class="er relationshipLabelBox"/><text style="text-anchor: middle; dominant-baseline: middle; font-size: 12px;" y="987.4857177734375" x="-29.997547149658203" id="rel4" class="er relationshipLabel">type_of</text><rect height="14" width="36.34375" y="753.1403198242188" x="179.24253845214844" class="er relationshipLabelBox"/><text style="text-anchor: middle; dominant-baseline: middle; font-size: 12px;" y="760.1403198242188" x="197.41441345214844" id="rel5" class="er relationshipLabel">source</text><rect height="14" width="40.029296875" y="1242.2630615234375" x="121.92805480957031" class="er relationshipLabelBox"/><text style="text-anchor: middle; dominant-baseline: middle; font-size: 12px;" y="1249.2630615234375" x="141.9427032470703" id="rel6" class="er relationshipLabel">type_of</text></svg>