<svg aria-roledescription="er" role="graphics-document document" viewBox="-144.75920867919922 0 1589.6981201171875 1343" style="max-width: 1589.7px; background-color: white;" xmlns:xlink="http://www.w3.org/1999/xlink" xmlns="http://www.w3.org/2000/svg" width="100%" id="my-svg"><style>#my-svg{font-family:"trebuchet ms",verdana,arial,sans-serif;font-size:16px;fill:#333;}#my-svg .error-icon{fill:#552222;}#my-svg .error-text{fill:#552222;stroke:#552222;}#my-svg .edge-thickness-normal{stroke-width:1px;}#my-svg .edge-thickness-thick{stroke-width:3.5px;}#my-svg .edge-pattern-solid{stroke-dasharray:0;}#my-svg .edge-thickness-invisible{stroke-width:0;fill:none;}#my-svg .edge-pattern-dashed{stroke-dasharray:3;}#my-svg .edge-pattern-dotted{stroke-dasharray:2;}#my-svg .marker{fill:#333333;stroke:#333333;}#my-svg .marker.cross{stroke:#333333;}#my-svg svg{font-family:"trebuchet ms",verdana,arial,sans-serif;font-size:16px;}#my-svg p{margin:0;}#my-svg .entityBox{fill:#ECECFF;stroke:#9370DB;}#my-svg .attributeBoxOdd{fill:#ffffff;stroke:#9370DB;}#my-svg .attributeBoxEven{fill:#f2f2f2;stroke:#9370DB;}#my-svg .relationshipLabelBox{fill:hsl(80, 100%, 96.2745098039%);opacity:0.7;background-color:hsl(80, 100%, 96.2745098039%);}#my-svg .relationshipLabelBox rect{opacity:0.5;}#my-svg .relationshipLine{stroke:#333333;}#my-svg .entityTitleText{text-anchor:middle;font-size:18px;fill:#333;}#my-svg #MD_PARENT_START{fill:#f5f5f5!important;stroke:#333333!important;stroke-width:1;}#my-svg #MD_PARENT_END{fill:#f5f5f5!important;stroke:#333333!important;stroke-width:1;}#my-svg :root{--mermaid-font-family:"trebuchet ms",verdana,arial,sans-serif;}</style><g/><defs><marker orient="auto" markerHeight="240" markerWidth="190" refY="7" refX="0" id="MD_PARENT_START"><path d="M 18,7 L9,13 L1,7 L9,1 Z"/></marker></defs><defs><marker orient="auto" markerHeight="28" markerWidth="20" refY="7" refX="19" id="MD_PARENT_END"><path d="M 18,7 L9,13 L1,7 L9,1 Z"/></marker></defs><defs><marker orient="auto" markerHeight="18" markerWidth="18" refY="9" refX="0" id="ONLY_ONE_START"><path d="M9,0 L9,18 M15,0 L15,18" fill="none" stroke="gray"/></marker></defs><defs><marker orient="auto" markerHeight="18" markerWidth="18" refY="9" refX="18" id="ONLY_ONE_END"><path d="M3,0 L3,18 M9,0 L9,18" fill="none" stroke="gray"/></marker></defs><defs><marker orient="auto" markerHeight="18" markerWidth="30" refY="9" refX="0" id="ZERO_OR_ONE_START"><circle r="6" cy="9" cx="21" fill="white" stroke="gray"/><path d="M9,0 L9,18" fill="none" stroke="gray"/></marker></defs><defs><marker orient="auto" markerHeight="18" markerWidth="30" refY="9" refX="30" id="ZERO_OR_ONE_END"><circle r="6" cy="9" cx="9" fill="white" stroke="gray"/><path d="M21,0 L21,18" fill="none" stroke="gray"/></marker></defs><defs><marker orient="auto" markerHeight="36" markerWidth="45" refY="18" refX="18" id="ONE_OR_MORE_START"><path d="M0,18 Q 18,0 36,18 Q 18,36 0,18 M42,9 L42,27" fill="none" stroke="gray"/></marker></defs><defs><marker orient="auto" markerHeight="36" markerWidth="45" refY="18" refX="27" id="ONE_OR_MORE_END"><path d="M3,9 L3,27 M9,18 Q27,0 45,18 Q27,36 9,18" fill="none" stroke="gray"/></marker></defs><defs><marker orient="auto" markerHeight="36" markerWidth="57" refY="18" refX="18" id="ZERO_OR_MORE_START"><circle r="6" cy="18" cx="48" fill="white" stroke="gray"/><path d="M0,18 Q18,0 36,18 Q18,36 0,18" fill="none" stroke="gray"/></marker></defs><defs><marker orient="auto" markerHeight="36" markerWidth="57" refY="18" refX="39" id="ZERO_OR_MORE_END"><circle r="6" cy="18" cx="9" fill="white" stroke="gray"/><path d="M21,18 Q39,0 57,18 Q39,36 21,18" fill="none" stroke="gray"/></marker></defs><path style="stroke: gray; fill: none;" marker-start="url(#ONLY_ONE_START)" marker-end="url(#ZERO_OR_ONE_END)" d="M783.975,62.254L806.226,71.045C828.477,79.836,872.978,97.418,895.229,118.459C917.48,139.5,917.48,164,917.48,176.25L917.48,188.5" class="er relationshipLine"/><path style="stroke: gray; fill: none;" marker-start="url(#ONLY_ONE_START)" marker-end="url(#ZERO_OR_MORE_END)" d="M683.975,62.254L661.725,71.045C639.474,79.836,594.972,97.418,572.721,114.542C550.471,131.667,550.471,148.333,550.471,156.667L550.471,165" class="er relationshipLine"/><path style="stroke: gray; fill: none;" marker-start="url(#ONLY_ONE_START)" marker-end="url(#ZERO_OR_MORE_END)" d="M550.471,429L550.471,437.333C550.471,445.667,550.471,462.333,550.471,484.5C550.471,506.667,550.471,534.333,550.471,548.167L550.471,562" class="er relationshipLine"/><path style="stroke: gray; fill: none;" marker-start="url(#ONLY_ONE_START)" marker-end="url(#ZERO_OR_ONE_END)" d="M471.705,356.107L444.411,376.589C417.117,397.071,362.528,438.036,335.234,475.935C307.939,513.833,307.939,548.667,307.939,566.083L307.939,583.5" class="er relationshipLine"/><path style="stroke: gray; fill: none;" marker-start="url(#ONLY_ONE_START)" marker-end="url(#ZERO_OR_ONE_END)" d="M629.236,323.004L707.986,349.004C786.736,375.003,944.236,427.001,1022.986,461.334C1101.736,495.667,1101.736,512.333,1101.736,520.667L1101.736,529" class="er relationshipLine"/><path style="stroke: gray; fill: none;" marker-start="url(#ONLY_ONE_START)" marker-end="url(#ZERO_OR_MORE_END)" d="M629.236,383.435L643.751,399.362C658.265,415.29,687.294,447.145,701.808,484.239C716.322,521.333,716.322,563.667,716.322,606C716.322,648.333,716.322,690.667,719.409,720.167C722.496,749.667,728.67,766.333,731.756,774.667L734.843,783" class="er relationshipLine"/><path style="stroke: gray; fill: none;" marker-start="url(#ONLY_ONE_START)" marker-end="url(#ZERO_OR_ONE_END)" d="M629.236,227.111L640.903,216.759C652.57,206.407,675.903,185.704,690.486,175.352C705.07,165,710.903,165,716.736,187C722.57,209,728.403,253,728.403,297C728.403,341,722.57,385,716.736,407C710.903,429,705.07,429,690.486,418.648C675.903,408.296,652.57,387.593,640.903,377.241L629.236,366.889" class="er relationshipLine"/><path style="stroke: gray; fill: none;" marker-start="url(#ONLY_ONE_START)" marker-end="url(#ZERO_OR_ONE_END)" d="M471.705,324.314L397.359,350.095C323.013,375.876,174.322,427.438,105.422,467.052C36.522,506.667,47.415,534.333,52.861,548.167L58.307,562" class="er relationshipLine"/><path style="stroke: gray; fill: none;" marker-start="url(#ONLY_ONE_START)" marker-end="url(#ZERO_OR_MORE_END)" d="M471.705,318.965L376.057,345.637C280.408,372.31,89.112,425.655,-6.537,473.494C-102.185,521.333,-102.185,563.667,-102.185,606C-102.185,648.333,-102.185,690.667,-102.185,751.333C-102.185,812,-102.185,891,-102.185,970C-102.185,1049,-102.185,1128,-26.777,1179.957C48.63,1231.913,199.445,1256.827,274.853,1269.284L350.261,1281.74" class="er relationshipLine"/><path style="stroke: gray; fill: none;" marker-start="url(#ONLY_ONE_START)" marker-end="url(#ONLY_ONE_END)" d="M98.55,562L105.755,548.167C112.961,534.333,127.373,506.667,189.566,468.346C251.758,430.026,361.732,381.051,416.718,356.564L471.705,332.077" class="er relationshipLine"/><path style="stroke: gray; fill: none;" marker-start="url(#ONLY_ONE_START)" marker-end="url(#ZERO_OR_MORE_END)" d="M75.63,650L75.63,663.833C75.63,677.667,75.63,705.333,75.63,758.667C75.63,812,75.63,891,75.63,970C75.63,1049,75.63,1128,121.402,1179.203C167.173,1230.405,258.717,1253.811,304.489,1265.514L350.261,1277.216" class="er relationshipLine"/><path style="stroke: gray; fill: none;" marker-start="url(#ONLY_ONE_START)" marker-end="url(#ZERO_OR_ONE_END)" d="M879.689,810.372L885.795,797.477C891.9,784.581,904.111,758.791,910.217,724.729C916.322,690.667,916.322,648.333,916.322,606C916.322,563.667,916.322,521.333,868.475,476.364C820.627,431.394,724.932,383.789,677.084,359.986L629.236,336.183" class="er relationshipLine"/><path style="stroke: gray; fill: none;" marker-start="url(#ONLY_ONE_START)" marker-end="url(#ONLY_ONE_END)" d="M879.689,932.918L947.6,899.598C1015.51,866.279,1151.33,799.639,1219.24,745.153C1287.15,690.667,1287.15,648.333,1287.15,606C1287.15,563.667,1287.15,521.333,1177.498,473.077C1067.846,424.82,848.541,370.64,738.889,343.549L629.236,316.459" class="er relationshipLine"/><path style="stroke: gray; fill: none;" marker-start="url(#ONLY_ONE_START)" marker-end="url(#ZERO_OR_MORE_END)" d="M804.111,1157L804.111,1165.333C804.111,1173.667,804.111,1190.333,745.136,1210.787C686.161,1231.241,568.211,1255.483,509.236,1267.603L450.261,1279.724" class="er relationshipLine"/><path style="stroke: gray; fill: none;" marker-start="url(#ONLY_ONE_START)" marker-end="url(#ONLY_ONE_END)" d="M1016.322,644.006L982.989,658.839C949.656,673.671,882.989,703.335,849.226,726.501C815.464,749.667,814.605,766.333,814.175,774.667L813.746,783" class="er relationshipLine"/><path style="stroke: gray; fill: none;" marker-start="url(#ONLY_ONE_START)" marker-end="url(#ZERO_OR_MORE_END)" d="M1187.15,639.563L1226.782,655.136C1266.413,670.709,1345.676,701.854,1385.308,756.927C1424.939,812,1424.939,891,1424.939,970C1424.939,1049,1424.939,1128,1262.493,1180.658C1100.046,1233.317,775.154,1259.633,612.707,1272.792L450.261,1285.95" class="er relationshipLine"/><g transform="translate(683.9753112792969,20 )" id="entity-Container-bc34fb32-8a75-5b81-936b-92374bf40296"><rect height="45" width="100" y="0" x="0" class="er entityBox"/><text style="dominant-baseline: middle; text-anchor: middle; font-size: 12px;" transform="translate(50,12)" y="0" x="0" id="text-entity-Container-bc34fb32-8a75-5b81-936b-92374bf40296" class="er entityLabel">Container</text><rect height="21" width="69.5859375" y="24" x="0" class="er attributeBoxOdd"/><text style="dominant-baseline: middle; font-size: 10.2px;" transform="translate(5,34.5)" y="0" x="0" id="text-entity-Container-bc34fb32-8a75-5b81-936b-92374bf40296-attr-1-type" class="er entityLabel">uriorcurie</text><rect height="21" width="30.4140625" y="24" x="69.5859375" class="er attributeBoxOdd"/><text style="dominant-baseline: middle; font-size: 10.2px;" transform="translate(74.5859375,34.5)" y="0" x="0" id="text-entity-Container-bc34fb32-8a75-5b81-936b-92374bf40296-attr-1-name" class="er entityLabel">iri</text></g><g transform="translate(471.705078125,165 )" id="entity-SpatialEntity-d1db85b5-1d94-5840-8e44-d9029b3ecf4a"><rect height="264" width="157.53125" y="0" x="0" class="er entityBox"/><text style="dominant-baseline: middle; text-anchor: middle; font-size: 12px;" transform="translate(78.765625,12)" y="0" x="0" id="text-entity-SpatialEntity-d1db85b5-1d94-5840-8e44-d9029b3ecf4a" class="er entityLabel">SpatialEntity</text><rect height="22" width="59.03125" y="24" x="0" class="er attributeBoxOdd"/><text style="dominant-baseline: middle; font-size: 10.2px;" transform="translate(5,35)" y="0" x="0" id="text-entity-SpatialEntity-d1db85b5-1d94-5840-8e44-d9029b3ecf4a-attr-1-type" class="er entityLabel">string</text><rect height="22" width="98.5" y="24" x="59.03125" class="er attributeBoxOdd"/><text style="dominant-baseline: middle; font-size: 10.2px;" transform="translate(64.03125,35)" y="0" x="0" id="text-entity-SpatialEntity-d1db85b5-1d94-5840-8e44-d9029b3ecf4a-attr-1-name" class="er entityLabel">pref_label</text><rect height="22" width="59.03125" y="46" x="0" class="er attributeBoxEven"/><text style="dominant-baseline: middle; font-size: 10.2px;" transform="translate(5,57)" y="0" x="0" id="text-entity-SpatialEntity-d1db85b5-1d94-5840-8e44-d9029b3ecf4a-attr-2-type" class="er entityLabel">date</text><rect height="22" width="98.5" y="46" x="59.03125" class="er attributeBoxEven"/><text style="dominant-baseline: middle; font-size: 10.2px;" transform="translate(64.03125,57)" y="0" x="0" id="text-entity-SpatialEntity-d1db85b5-1d94-5840-8e44-d9029b3ecf4a-attr-2-name" class="er entityLabel">create_date</text><rect height="22" width="59.03125" y="68" x="0" class="er attributeBoxOdd"/><text style="dominant-baseline: middle; font-size: 10.2px;" transform="translate(5,79)" y="0" x="0" id="text-entity-SpatialEntity-d1db85b5-1d94-5840-8e44-d9029b3ecf4a-attr-3-type" class="er entityLabel">float</text><rect height="22" width="98.5" y="68" x="59.03125" class="er attributeBoxOdd"/><text style="dominant-baseline: middle; font-size: 10.2px;" transform="translate(64.03125,79)" y="0" x="0" id="text-entity-SpatialEntity-d1db85b5-1d94-5840-8e44-d9029b3ecf4a-attr-3-name" class="er entityLabel">x_dimension</text><rect height="22" width="59.03125" y="90" x="0" class="er attributeBoxEven"/><text style="dominant-baseline: middle; font-size: 10.2px;" transform="translate(5,101)" y="0" x="0" id="text-entity-SpatialEntity-d1db85b5-1d94-5840-8e44-d9029b3ecf4a-attr-4-type" class="er entityLabel">float</text><rect height="22" width="98.5" y="90" x="59.03125" class="er attributeBoxEven"/><text style="dominant-baseline: middle; font-size: 10.2px;" transform="translate(64.03125,101)" y="0" x="0" id="text-entity-SpatialEntity-d1db85b5-1d94-5840-8e44-d9029b3ecf4a-attr-4-name" class="er entityLabel">y_dimension</text><rect height="22" width="59.03125" y="112" x="0" class="er attributeBoxOdd"/><text style="dominant-baseline: middle; font-size: 10.2px;" transform="translate(5,123)" y="0" x="0" id="text-entity-SpatialEntity-d1db85b5-1d94-5840-8e44-d9029b3ecf4a-attr-5-type" class="er entityLabel">float</text><rect height="22" width="98.5" y="112" x="59.03125" class="er attributeBoxOdd"/><text style="dominant-baseline: middle; font-size: 10.2px;" transform="translate(64.03125,123)" y="0" x="0" id="text-entity-SpatialEntity-d1db85b5-1d94-5840-8e44-d9029b3ecf4a-attr-5-name" class="er entityLabel">z_dimension</text><rect height="22" width="59.03125" y="134" x="0" class="er attributeBoxEven"/><text style="dominant-baseline: middle; font-size: 10.2px;" transform="translate(5,145)" y="0" x="0" id="text-entity-SpatialEntity-d1db85b5-1d94-5840-8e44-d9029b3ecf4a-attr-6-type" class="er entityLabel">string</text><rect height="22" width="98.5" y="134" x="59.03125" class="er attributeBoxEven"/><text style="dominant-baseline: middle; font-size: 10.2px;" transform="translate(64.03125,145)" y="0" x="0" id="text-entity-SpatialEntity-d1db85b5-1d94-5840-8e44-d9029b3ecf4a-attr-6-name" class="er entityLabel">dimension_unit</text><rect height="22" width="59.03125" y="156" x="0" class="er attributeBoxOdd"/><text style="dominant-baseline: middle; font-size: 10.2px;" transform="translate(5,167)" y="0" x="0" id="text-entity-SpatialEntity-d1db85b5-1d94-5840-8e44-d9029b3ecf4a-attr-7-type" class="er entityLabel">string</text><rect height="22" width="98.5" y="156" x="59.03125" class="er attributeBoxOdd"/><text style="dominant-baseline: middle; font-size: 10.2px;" transform="translate(64.03125,167)" y="0" x="0" id="text-entity-SpatialEntity-d1db85b5-1d94-5840-8e44-d9029b3ecf4a-attr-7-name" class="er entityLabel">organ_owner_sex</text><rect height="22" width="59.03125" y="178" x="0" class="er attributeBoxEven"/><text style="dominant-baseline: middle; font-size: 10.2px;" transform="translate(5,189)" y="0" x="0" id="text-entity-SpatialEntity-d1db85b5-1d94-5840-8e44-d9029b3ecf4a-attr-8-type" class="er entityLabel">string</text><rect height="22" width="98.5" y="178" x="59.03125" class="er attributeBoxEven"/><text style="dominant-baseline: middle; font-size: 10.2px;" transform="translate(64.03125,189)" y="0" x="0" id="text-entity-SpatialEntity-d1db85b5-1d94-5840-8e44-d9029b3ecf4a-attr-8-name" class="er entityLabel">organ_side</text><rect height="22" width="59.03125" y="200" x="0" class="er attributeBoxOdd"/><text style="dominant-baseline: middle; font-size: 10.2px;" transform="translate(5,211)" y="0" x="0" id="text-entity-SpatialEntity-d1db85b5-1d94-5840-8e44-d9029b3ecf4a-attr-9-type" class="er entityLabel">integer</text><rect height="22" width="98.5" y="200" x="59.03125" class="er attributeBoxOdd"/><text style="dominant-baseline: middle; font-size: 10.2px;" transform="translate(64.03125,211)" y="0" x="0" id="text-entity-SpatialEntity-d1db85b5-1d94-5840-8e44-d9029b3ecf4a-attr-9-name" class="er entityLabel">rui_rank</text><rect height="21" width="59.03125" y="222" x="0" class="er attributeBoxEven"/><text style="dominant-baseline: middle; font-size: 10.2px;" transform="translate(5,232.5)" y="0" x="0" id="text-entity-SpatialEntity-d1db85b5-1d94-5840-8e44-d9029b3ecf4a-attr-10-type" class="er entityLabel">uriorcurie</text><rect height="21" width="98.5" y="222" x="59.03125" class="er attributeBoxEven"/><text style="dominant-baseline: middle; font-size: 10.2px;" transform="translate(64.03125,232.5)" y="0" x="0" id="text-entity-SpatialEntity-d1db85b5-1d94-5840-8e44-d9029b3ecf4a-attr-10-name" class="er entityLabel">id</text><rect height="21" width="59.03125" y="243" x="0" class="er attributeBoxOdd"/><text style="dominant-baseline: middle; font-size: 10.2px;" transform="translate(5,253.5)" y="0" x="0" id="text-entity-SpatialEntity-d1db85b5-1d94-5840-8e44-d9029b3ecf4a-attr-11-type" class="er entityLabel">string</text><rect height="21" width="98.5" y="243" x="59.03125" class="er attributeBoxOdd"/><text style="dominant-baseline: middle; font-size: 10.2px;" transform="translate(64.03125,253.5)" y="0" x="0" id="text-entity-SpatialEntity-d1db85b5-1d94-5840-8e44-d9029b3ecf4a-attr-11-name" class="er entityLabel">label</text></g><g transform="translate(350.2605285644531,1257 )" id="entity-Named-527792da-945b-57c2-aece-6a504f46f916"><rect height="66" width="100" y="0" x="0" class="er entityBox"/><text style="dominant-baseline: middle; text-anchor: middle; font-size: 12px;" transform="translate(50,12)" y="0" x="0" id="text-entity-Named-527792da-945b-57c2-aece-6a504f46f916" class="er entityLabel">Named</text><rect height="21" width="62.1953125" y="24" x="0" class="er attributeBoxOdd"/><text style="dominant-baseline: middle; font-size: 10.2px;" transform="translate(5,34.5)" y="0" x="0" id="text-entity-Named-527792da-945b-57c2-aece-6a504f46f916-attr-1-type" class="er entityLabel">uriorcurie</text><rect height="21" width="37.8046875" y="24" x="62.1953125" class="er attributeBoxOdd"/><text style="dominant-baseline: middle; font-size: 10.2px;" transform="translate(67.1953125,34.5)" y="0" x="0" id="text-entity-Named-527792da-945b-57c2-aece-6a504f46f916-attr-1-name" class="er entityLabel">id</text><rect height="21" width="62.1953125" y="45" x="0" class="er attributeBoxEven"/><text style="dominant-baseline: middle; font-size: 10.2px;" transform="translate(5,55.5)" y="0" x="0" id="text-entity-Named-527792da-945b-57c2-aece-6a504f46f916-attr-2-type" class="er entityLabel">string</text><rect height="21" width="37.8046875" y="45" x="62.1953125" class="er attributeBoxEven"/><text style="dominant-baseline: middle; font-size: 10.2px;" transform="translate(67.1953125,55.5)" y="0" x="0" id="text-entity-Named-527792da-945b-57c2-aece-6a504f46f916-attr-2-name" class="er entityLabel">label</text></g><g transform="translate(20,562 )" id="entity-ExtractionSet-36c25d42-40a1-50db-ad03-0979e3be5d88"><rect height="88" width="111.259765625" y="0" x="0" class="er entityBox"/><text style="dominant-baseline: middle; text-anchor: middle; font-size: 12px;" transform="translate(55.6298828125,12)" y="0" x="0" id="text-entity-ExtractionSet-36c25d42-40a1-50db-ad03-0979e3be5d88" class="er entityLabel">ExtractionSet</text><rect height="22" width="59.4168701171875" y="24" x="0" class="er attributeBoxOdd"/><text style="dominant-baseline: middle; font-size: 10.2px;" transform="translate(5,35)" y="0" x="0" id="text-entity-ExtractionSet-36c25d42-40a1-50db-ad03-0979e3be5d88-attr-1-type" class="er entityLabel">integer</text><rect height="22" width="51.8428955078125" y="24" x="59.4168701171875" class="er attributeBoxOdd"/><text style="dominant-baseline: middle; font-size: 10.2px;" transform="translate(64.4168701171875,35)" y="0" x="0" id="text-entity-ExtractionSet-36c25d42-40a1-50db-ad03-0979e3be5d88-attr-1-name" class="er entityLabel">rui_rank</text><rect height="21" width="59.4168701171875" y="46" x="0" class="er attributeBoxEven"/><text style="dominant-baseline: middle; font-size: 10.2px;" transform="translate(5,56.5)" y="0" x="0" id="text-entity-ExtractionSet-36c25d42-40a1-50db-ad03-0979e3be5d88-attr-2-type" class="er entityLabel">uriorcurie</text><rect height="21" width="51.8428955078125" y="46" x="59.4168701171875" class="er attributeBoxEven"/><text style="dominant-baseline: middle; font-size: 10.2px;" transform="translate(64.4168701171875,56.5)" y="0" x="0" id="text-entity-ExtractionSet-36c25d42-40a1-50db-ad03-0979e3be5d88-attr-2-name" class="er entityLabel">id</text><rect height="21" width="59.4168701171875" y="67" x="0" class="er attributeBoxOdd"/><text style="dominant-baseline: middle; font-size: 10.2px;" transform="translate(5,77.5)" y="0" x="0" id="text-entity-ExtractionSet-36c25d42-40a1-50db-ad03-0979e3be5d88-attr-3-type" class="er entityLabel">string</text><rect height="21" width="51.8428955078125" y="67" x="59.4168701171875" class="er attributeBoxOdd"/><text style="dominant-baseline: middle; font-size: 10.2px;" transform="translate(64.4168701171875,77.5)" y="0" x="0" id="text-entity-ExtractionSet-36c25d42-40a1-50db-ad03-0979e3be5d88-attr-3-name" class="er entityLabel">label</text></g><g transform="translate(728.533203125,783 )" id="entity-SpatialPlacement-346e1bb7-3014-5df7-8b75-dd9bd5f12664"><rect height="374" width="151.15625" y="0" x="0" class="er entityBox"/><text style="dominant-baseline: middle; text-anchor: middle; font-size: 12px;" transform="translate(75.578125,12)" y="0" x="0" id="text-entity-SpatialPlacement-346e1bb7-3014-5df7-8b75-dd9bd5f12664" class="er entityLabel">SpatialPlacement</text><rect height="22" width="59.03125" y="24" x="0" class="er attributeBoxOdd"/><text style="dominant-baseline: middle; font-size: 10.2px;" transform="translate(5,35)" y="0" x="0" id="text-entity-SpatialPlacement-346e1bb7-3014-5df7-8b75-dd9bd5f12664-attr-1-type" class="er entityLabel">date</text><rect height="22" width="92.125" y="24" x="59.03125" class="er attributeBoxOdd"/><text style="dominant-baseline: middle; font-size: 10.2px;" transform="translate(64.03125,35)" y="0" x="0" id="text-entity-SpatialPlacement-346e1bb7-3014-5df7-8b75-dd9bd5f12664-attr-1-name" class="er entityLabel">placement_date</text><rect height="22" width="59.03125" y="46" x="0" class="er attributeBoxEven"/><text style="dominant-baseline: middle; font-size: 10.2px;" transform="translate(5,57)" y="0" x="0" id="text-entity-SpatialPlacement-346e1bb7-3014-5df7-8b75-dd9bd5f12664-attr-2-type" class="er entityLabel">float</text><rect height="22" width="92.125" y="46" x="59.03125" class="er attributeBoxEven"/><text style="dominant-baseline: middle; font-size: 10.2px;" transform="translate(64.03125,57)" y="0" x="0" id="text-entity-SpatialPlacement-346e1bb7-3014-5df7-8b75-dd9bd5f12664-attr-2-name" class="er entityLabel">x_scaling</text><rect height="22" width="59.03125" y="68" x="0" class="er attributeBoxOdd"/><text style="dominant-baseline: middle; font-size: 10.2px;" transform="translate(5,79)" y="0" x="0" id="text-entity-SpatialPlacement-346e1bb7-3014-5df7-8b75-dd9bd5f12664-attr-3-type" class="er entityLabel">float</text><rect height="22" width="92.125" y="68" x="59.03125" class="er attributeBoxOdd"/><text style="dominant-baseline: middle; font-size: 10.2px;" transform="translate(64.03125,79)" y="0" x="0" id="text-entity-SpatialPlacement-346e1bb7-3014-5df7-8b75-dd9bd5f12664-attr-3-name" class="er entityLabel">y_scaling</text><rect height="22" width="59.03125" y="90" x="0" class="er attributeBoxEven"/><text style="dominant-baseline: middle; font-size: 10.2px;" transform="translate(5,101)" y="0" x="0" id="text-entity-SpatialPlacement-346e1bb7-3014-5df7-8b75-dd9bd5f12664-attr-4-type" class="er entityLabel">float</text><rect height="22" width="92.125" y="90" x="59.03125" class="er attributeBoxEven"/><text style="dominant-baseline: middle; font-size: 10.2px;" transform="translate(64.03125,101)" y="0" x="0" id="text-entity-SpatialPlacement-346e1bb7-3014-5df7-8b75-dd9bd5f12664-attr-4-name" class="er entityLabel">z_scaling</text><rect height="22" width="59.03125" y="112" x="0" class="er attributeBoxOdd"/><text style="dominant-baseline: middle; font-size: 10.2px;" transform="translate(5,123)" y="0" x="0" id="text-entity-SpatialPlacement-346e1bb7-3014-5df7-8b75-dd9bd5f12664-attr-5-type" class="er entityLabel">string</text><rect height="22" width="92.125" y="112" x="59.03125" class="er attributeBoxOdd"/><text style="dominant-baseline: middle; font-size: 10.2px;" transform="translate(64.03125,123)" y="0" x="0" id="text-entity-SpatialPlacement-346e1bb7-3014-5df7-8b75-dd9bd5f12664-attr-5-name" class="er entityLabel">scaling_unit</text><rect height="22" width="59.03125" y="134" x="0" class="er attributeBoxEven"/><text style="dominant-baseline: middle; font-size: 10.2px;" transform="translate(5,145)" y="0" x="0" id="text-entity-SpatialPlacement-346e1bb7-3014-5df7-8b75-dd9bd5f12664-attr-6-type" class="er entityLabel">float</text><rect height="22" width="92.125" y="134" x="59.03125" class="er attributeBoxEven"/><text style="dominant-baseline: middle; font-size: 10.2px;" transform="translate(64.03125,145)" y="0" x="0" id="text-entity-SpatialPlacement-346e1bb7-3014-5df7-8b75-dd9bd5f12664-attr-6-name" class="er entityLabel">x_rotation</text><rect height="22" width="59.03125" y="156" x="0" class="er attributeBoxOdd"/><text style="dominant-baseline: middle; font-size: 10.2px;" transform="translate(5,167)" y="0" x="0" id="text-entity-SpatialPlacement-346e1bb7-3014-5df7-8b75-dd9bd5f12664-attr-7-type" class="er entityLabel">float</text><rect height="22" width="92.125" y="156" x="59.03125" class="er attributeBoxOdd"/><text style="dominant-baseline: middle; font-size: 10.2px;" transform="translate(64.03125,167)" y="0" x="0" id="text-entity-SpatialPlacement-346e1bb7-3014-5df7-8b75-dd9bd5f12664-attr-7-name" class="er entityLabel">y_rotation</text><rect height="22" width="59.03125" y="178" x="0" class="er attributeBoxEven"/><text style="dominant-baseline: middle; font-size: 10.2px;" transform="translate(5,189)" y="0" x="0" id="text-entity-SpatialPlacement-346e1bb7-3014-5df7-8b75-dd9bd5f12664-attr-8-type" class="er entityLabel">float</text><rect height="22" width="92.125" y="178" x="59.03125" class="er attributeBoxEven"/><text style="dominant-baseline: middle; font-size: 10.2px;" transform="translate(64.03125,189)" y="0" x="0" id="text-entity-SpatialPlacement-346e1bb7-3014-5df7-8b75-dd9bd5f12664-attr-8-name" class="er entityLabel">z_rotation</text><rect height="22" width="59.03125" y="200" x="0" class="er attributeBoxOdd"/><text style="dominant-baseline: middle; font-size: 10.2px;" transform="translate(5,211)" y="0" x="0" id="text-entity-SpatialPlacement-346e1bb7-3014-5df7-8b75-dd9bd5f12664-attr-9-type" class="er entityLabel">string</text><rect height="22" width="92.125" y="200" x="59.03125" class="er attributeBoxOdd"/><text style="dominant-baseline: middle; font-size: 10.2px;" transform="translate(64.03125,211)" y="0" x="0" id="text-entity-SpatialPlacement-346e1bb7-3014-5df7-8b75-dd9bd5f12664-attr-9-name" class="er entityLabel">rotation_unit</text><rect height="22" width="59.03125" y="222" x="0" class="er attributeBoxEven"/><text style="dominant-baseline: middle; font-size: 10.2px;" transform="translate(5,233)" y="0" x="0" id="text-entity-SpatialPlacement-346e1bb7-3014-5df7-8b75-dd9bd5f12664-attr-10-type" class="er entityLabel">string</text><rect height="22" width="92.125" y="222" x="59.03125" class="er attributeBoxEven"/><text style="dominant-baseline: middle; font-size: 10.2px;" transform="translate(64.03125,233)" y="0" x="0" id="text-entity-SpatialPlacement-346e1bb7-3014-5df7-8b75-dd9bd5f12664-attr-10-name" class="er entityLabel">rotation_order</text><rect height="22" width="59.03125" y="244" x="0" class="er attributeBoxOdd"/><text style="dominant-baseline: middle; font-size: 10.2px;" transform="translate(5,255)" y="0" x="0" id="text-entity-SpatialPlacement-346e1bb7-3014-5df7-8b75-dd9bd5f12664-attr-11-type" class="er entityLabel">float</text><rect height="22" width="92.125" y="244" x="59.03125" class="er attributeBoxOdd"/><text style="dominant-baseline: middle; font-size: 10.2px;" transform="translate(64.03125,255)" y="0" x="0" id="text-entity-SpatialPlacement-346e1bb7-3014-5df7-8b75-dd9bd5f12664-attr-11-name" class="er entityLabel">x_translation</text><rect height="22" width="59.03125" y="266" x="0" class="er attributeBoxEven"/><text style="dominant-baseline: middle; font-size: 10.2px;" transform="translate(5,277)" y="0" x="0" id="text-entity-SpatialPlacement-346e1bb7-3014-5df7-8b75-dd9bd5f12664-attr-12-type" class="er entityLabel">float</text><rect height="22" width="92.125" y="266" x="59.03125" class="er attributeBoxEven"/><text style="dominant-baseline: middle; font-size: 10.2px;" transform="translate(64.03125,277)" y="0" x="0" id="text-entity-SpatialPlacement-346e1bb7-3014-5df7-8b75-dd9bd5f12664-attr-12-name" class="er entityLabel">y_translation</text><rect height="22" width="59.03125" y="288" x="0" class="er attributeBoxOdd"/><text style="dominant-baseline: middle; font-size: 10.2px;" transform="translate(5,299)" y="0" x="0" id="text-entity-SpatialPlacement-346e1bb7-3014-5df7-8b75-dd9bd5f12664-attr-13-type" class="er entityLabel">float</text><rect height="22" width="92.125" y="288" x="59.03125" class="er attributeBoxOdd"/><text style="dominant-baseline: middle; font-size: 10.2px;" transform="translate(64.03125,299)" y="0" x="0" id="text-entity-SpatialPlacement-346e1bb7-3014-5df7-8b75-dd9bd5f12664-attr-13-name" class="er entityLabel">z_translation</text><rect height="22" width="59.03125" y="310" x="0" class="er attributeBoxEven"/><text style="dominant-baseline: middle; font-size: 10.2px;" transform="translate(5,321)" y="0" x="0" id="text-entity-SpatialPlacement-346e1bb7-3014-5df7-8b75-dd9bd5f12664-attr-14-type" class="er entityLabel">string</text><rect height="22" width="92.125" y="310" x="59.03125" class="er attributeBoxEven"/><text style="dominant-baseline: middle; font-size: 10.2px;" transform="translate(64.03125,321)" y="0" x="0" id="text-entity-SpatialPlacement-346e1bb7-3014-5df7-8b75-dd9bd5f12664-attr-14-name" class="er entityLabel">translation_unit</text><rect height="21" width="59.03125" y="332" x="0" class="er attributeBoxOdd"/><text style="dominant-baseline: middle; font-size: 10.2px;" transform="translate(5,342.5)" y="0" x="0" id="text-entity-SpatialPlacement-346e1bb7-3014-5df7-8b75-dd9bd5f12664-attr-15-type" class="er entityLabel">uriorcurie</text><rect height="21" width="92.125" y="332" x="59.03125" class="er attributeBoxOdd"/><text style="dominant-baseline: middle; font-size: 10.2px;" transform="translate(64.03125,342.5)" y="0" x="0" id="text-entity-SpatialPlacement-346e1bb7-3014-5df7-8b75-dd9bd5f12664-attr-15-name" class="er entityLabel">id</text><rect height="21" width="59.03125" y="353" x="0" class="er attributeBoxEven"/><text style="dominant-baseline: middle; font-size: 10.2px;" transform="translate(5,363.5)" y="0" x="0" id="text-entity-SpatialPlacement-346e1bb7-3014-5df7-8b75-dd9bd5f12664-attr-16-type" class="er entityLabel">string</text><rect height="21" width="92.125" y="353" x="59.03125" class="er attributeBoxEven"/><text style="dominant-baseline: middle; font-size: 10.2px;" transform="translate(64.03125,363.5)" y="0" x="0" id="text-entity-SpatialPlacement-346e1bb7-3014-5df7-8b75-dd9bd5f12664-attr-16-name" class="er entityLabel">label</text></g><g transform="translate(1016.322265625,529 )" id="entity-SpatialObjectReference-d20666d8-ec01-5119-8567-c67f55a6b2e7"><rect height="154" width="170.828125" y="0" x="0" class="er entityBox"/><text style="dominant-baseline: middle; text-anchor: middle; font-size: 12px;" transform="translate(85.4140625,12)" y="0" x="0" id="text-entity-SpatialObjectReference-d20666d8-ec01-5119-8567-c67f55a6b2e7" class="er entityLabel">SpatialObjectReference</text><rect height="22" width="78.921875" y="24" x="0" class="er attributeBoxOdd"/><text style="dominant-baseline: middle; font-size: 10.2px;" transform="translate(5,35)" y="0" x="0" id="text-entity-SpatialObjectReference-d20666d8-ec01-5119-8567-c67f55a6b2e7-attr-1-type" class="er entityLabel">string</text><rect height="22" width="91.90625" y="24" x="78.921875" class="er attributeBoxOdd"/><text style="dominant-baseline: middle; font-size: 10.2px;" transform="translate(83.921875,35)" y="0" x="0" id="text-entity-SpatialObjectReference-d20666d8-ec01-5119-8567-c67f55a6b2e7-attr-1-name" class="er entityLabel">file_name</text><rect height="22" width="78.921875" y="46" x="0" class="er attributeBoxEven"/><text style="dominant-baseline: middle; font-size: 10.2px;" transform="translate(5,57)" y="0" x="0" id="text-entity-SpatialObjectReference-d20666d8-ec01-5119-8567-c67f55a6b2e7-attr-2-type" class="er entityLabel">string</text><rect height="22" width="91.90625" y="46" x="78.921875" class="er attributeBoxEven"/><text style="dominant-baseline: middle; font-size: 10.2px;" transform="translate(83.921875,57)" y="0" x="0" id="text-entity-SpatialObjectReference-d20666d8-ec01-5119-8567-c67f55a6b2e7-attr-2-name" class="er entityLabel">file_url</text><rect height="22" width="78.921875" y="68" x="0" class="er attributeBoxOdd"/><text style="dominant-baseline: middle; font-size: 10.2px;" transform="translate(5,79)" y="0" x="0" id="text-entity-SpatialObjectReference-d20666d8-ec01-5119-8567-c67f55a6b2e7-attr-3-type" class="er entityLabel">string</text><rect height="22" width="91.90625" y="68" x="78.921875" class="er attributeBoxOdd"/><text style="dominant-baseline: middle; font-size: 10.2px;" transform="translate(83.921875,79)" y="0" x="0" id="text-entity-SpatialObjectReference-d20666d8-ec01-5119-8567-c67f55a6b2e7-attr-3-name" class="er entityLabel">file_subpath</text><rect height="22" width="78.921875" y="90" x="0" class="er attributeBoxEven"/><text style="dominant-baseline: middle; font-size: 10.2px;" transform="translate(5,101)" y="0" x="0" id="text-entity-SpatialObjectReference-d20666d8-ec01-5119-8567-c67f55a6b2e7-attr-4-type" class="er entityLabel">string</text><rect height="22" width="91.90625" y="90" x="78.921875" class="er attributeBoxEven"/><text style="dominant-baseline: middle; font-size: 10.2px;" transform="translate(83.921875,101)" y="0" x="0" id="text-entity-SpatialObjectReference-d20666d8-ec01-5119-8567-c67f55a6b2e7-attr-4-name" class="er entityLabel">file_format</text><rect height="21" width="78.921875" y="112" x="0" class="er attributeBoxOdd"/><text style="dominant-baseline: middle; font-size: 10.2px;" transform="translate(5,122.5)" y="0" x="0" id="text-entity-SpatialObjectReference-d20666d8-ec01-5119-8567-c67f55a6b2e7-attr-5-type" class="er entityLabel">uriorcurie</text><rect height="21" width="91.90625" y="112" x="78.921875" class="er attributeBoxOdd"/><text style="dominant-baseline: middle; font-size: 10.2px;" transform="translate(83.921875,122.5)" y="0" x="0" id="text-entity-SpatialObjectReference-d20666d8-ec01-5119-8567-c67f55a6b2e7-attr-5-name" class="er entityLabel">id</text><rect height="21" width="78.921875" y="133" x="0" class="er attributeBoxEven"/><text style="dominant-baseline: middle; font-size: 10.2px;" transform="translate(5,143.5)" y="0" x="0" id="text-entity-SpatialObjectReference-d20666d8-ec01-5119-8567-c67f55a6b2e7-attr-6-type" class="er entityLabel">string</text><rect height="21" width="91.90625" y="133" x="78.921875" class="er attributeBoxEven"/><text style="dominant-baseline: middle; font-size: 10.2px;" transform="translate(83.921875,143.5)" y="0" x="0" id="text-entity-SpatialObjectReference-d20666d8-ec01-5119-8567-c67f55a6b2e7-attr-6-name" class="er entityLabel">label</text></g><g transform="translate(231.259765625,583.5 )" id="entity-AnatomicalStructure-3c5e0f00-f4ad-5ab6-89b3-e0fa067e5e05"><rect height="45" width="153.359375" y="0" x="0" class="er entityBox"/><text style="dominant-baseline: middle; text-anchor: middle; font-size: 12px;" transform="translate(76.6796875,12)" y="0" x="0" id="text-entity-AnatomicalStructure-3c5e0f00-f4ad-5ab6-89b3-e0fa067e5e05" class="er entityLabel">AnatomicalStructure</text><rect height="21" width="96.5390625" y="24" x="0" class="er attributeBoxOdd"/><text style="dominant-baseline: middle; font-size: 10.2px;" transform="translate(5,34.5)" y="0" x="0" id="text-entity-AnatomicalStructure-3c5e0f00-f4ad-5ab6-89b3-e0fa067e5e05-attr-1-type" class="er entityLabel">uriorcurie</text><rect height="21" width="56.8203125" y="24" x="96.5390625" class="er attributeBoxOdd"/><text style="dominant-baseline: middle; font-size: 10.2px;" transform="translate(101.5390625,34.5)" y="0" x="0" id="text-entity-AnatomicalStructure-3c5e0f00-f4ad-5ab6-89b3-e0fa067e5e05-attr-1-name" class="er entityLabel">id</text></g><g transform="translate(484.619140625,562 )" id="entity-Creator-22c37820-830e-5050-9ef7-2120deecbdf9"><rect height="88" width="131.703125" y="0" x="0" class="er entityBox"/><text style="dominant-baseline: middle; text-anchor: middle; font-size: 12px;" transform="translate(65.8515625,12)" y="0" x="0" id="text-entity-Creator-22c37820-830e-5050-9ef7-2120deecbdf9" class="er entityLabel">Creator</text><rect height="22" width="59.03125" y="24" x="0" class="er attributeBoxOdd"/><text style="dominant-baseline: middle; font-size: 10.2px;" transform="translate(5,35)" y="0" x="0" id="text-entity-Creator-22c37820-830e-5050-9ef7-2120deecbdf9-attr-1-type" class="er entityLabel">string</text><rect height="22" width="72.671875" y="24" x="59.03125" class="er attributeBoxOdd"/><text style="dominant-baseline: middle; font-size: 10.2px;" transform="translate(64.03125,35)" y="0" x="0" id="text-entity-Creator-22c37820-830e-5050-9ef7-2120deecbdf9-attr-1-name" class="er entityLabel">conforms_to</text><rect height="21" width="59.03125" y="46" x="0" class="er attributeBoxEven"/><text style="dominant-baseline: middle; font-size: 10.2px;" transform="translate(5,56.5)" y="0" x="0" id="text-entity-Creator-22c37820-830e-5050-9ef7-2120deecbdf9-attr-2-type" class="er entityLabel">uriorcurie</text><rect height="21" width="72.671875" y="46" x="59.03125" class="er attributeBoxEven"/><text style="dominant-baseline: middle; font-size: 10.2px;" transform="translate(64.03125,56.5)" y="0" x="0" id="text-entity-Creator-22c37820-830e-5050-9ef7-2120deecbdf9-attr-2-name" class="er entityLabel">id</text><rect height="21" width="59.03125" y="67" x="0" class="er attributeBoxOdd"/><text style="dominant-baseline: middle; font-size: 10.2px;" transform="translate(5,77.5)" y="0" x="0" id="text-entity-Creator-22c37820-830e-5050-9ef7-2120deecbdf9-attr-3-type" class="er entityLabel">string</text><rect height="21" width="72.671875" y="67" x="59.03125" class="er attributeBoxOdd"/><text style="dominant-baseline: middle; font-size: 10.2px;" transform="translate(64.03125,77.5)" y="0" x="0" id="text-entity-Creator-22c37820-830e-5050-9ef7-2120deecbdf9-attr-3-name" class="er entityLabel">label</text></g><g transform="translate(839.236328125,188.5 )" id="entity-RefOrganMetadata-e7045ce5-7dfe-5c38-8288-5e44f2ff027b"><rect height="217" width="156.4871826171875" y="0" x="0" class="er entityBox"/><text style="dominant-baseline: middle; text-anchor: middle; font-size: 12px;" transform="translate(78.24359130859375,12)" y="0" x="0" id="text-entity-RefOrganMetadata-e7045ce5-7dfe-5c38-8288-5e44f2ff027b" class="er entityLabel">RefOrganMetadata</text><rect height="21" width="76.8309326171875" y="24" x="0" class="er attributeBoxOdd"/><text style="dominant-baseline: middle; font-size: 10.2px;" transform="translate(5,34.5)" y="0" x="0" id="text-entity-RefOrganMetadata-e7045ce5-7dfe-5c38-8288-5e44f2ff027b-attr-1-type" class="er entityLabel">string</text><rect height="21" width="79.65625" y="24" x="76.8309326171875" class="er attributeBoxOdd"/><text style="dominant-baseline: middle; font-size: 10.2px;" transform="translate(81.8309326171875,34.5)" y="0" x="0" id="text-entity-RefOrganMetadata-e7045ce5-7dfe-5c38-8288-5e44f2ff027b-attr-1-name" class="er entityLabel">title</text><rect height="21" width="76.8309326171875" y="45" x="0" class="er attributeBoxEven"/><text style="dominant-baseline: middle; font-size: 10.2px;" transform="translate(5,55.5)" y="0" x="0" id="text-entity-RefOrganMetadata-e7045ce5-7dfe-5c38-8288-5e44f2ff027b-attr-2-type" class="er entityLabel">string</text><rect height="21" width="79.65625" y="45" x="76.8309326171875" class="er attributeBoxEven"/><text style="dominant-baseline: middle; font-size: 10.2px;" transform="translate(81.8309326171875,55.5)" y="0" x="0" id="text-entity-RefOrganMetadata-e7045ce5-7dfe-5c38-8288-5e44f2ff027b-attr-2-name" class="er entityLabel">description</text><rect height="22" width="76.8309326171875" y="66" x="0" class="er attributeBoxOdd"/><text style="dominant-baseline: middle; font-size: 10.2px;" transform="translate(5,77)" y="0" x="0" id="text-entity-RefOrganMetadata-e7045ce5-7dfe-5c38-8288-5e44f2ff027b-attr-3-type" class="er entityLabel">uriorcurieList</text><rect height="22" width="79.65625" y="66" x="76.8309326171875" class="er attributeBoxOdd"/><text style="dominant-baseline: middle; font-size: 10.2px;" transform="translate(81.8309326171875,77)" y="0" x="0" id="text-entity-RefOrganMetadata-e7045ce5-7dfe-5c38-8288-5e44f2ff027b-attr-3-name" class="er entityLabel">created_by</text><rect height="22" width="76.8309326171875" y="88" x="0" class="er attributeBoxEven"/><text style="dominant-baseline: middle; font-size: 10.2px;" transform="translate(5,99)" y="0" x="0" id="text-entity-RefOrganMetadata-e7045ce5-7dfe-5c38-8288-5e44f2ff027b-attr-4-type" class="er entityLabel">string</text><rect height="22" width="79.65625" y="88" x="76.8309326171875" class="er attributeBoxEven"/><text style="dominant-baseline: middle; font-size: 10.2px;" transform="translate(81.8309326171875,99)" y="0" x="0" id="text-entity-RefOrganMetadata-e7045ce5-7dfe-5c38-8288-5e44f2ff027b-attr-4-name" class="er entityLabel">creation_date</text><rect height="21" width="76.8309326171875" y="110" x="0" class="er attributeBoxOdd"/><text style="dominant-baseline: middle; font-size: 10.2px;" transform="translate(5,120.5)" y="0" x="0" id="text-entity-RefOrganMetadata-e7045ce5-7dfe-5c38-8288-5e44f2ff027b-attr-5-type" class="er entityLabel">string</text><rect height="21" width="79.65625" y="110" x="76.8309326171875" class="er attributeBoxOdd"/><text style="dominant-baseline: middle; font-size: 10.2px;" transform="translate(81.8309326171875,120.5)" y="0" x="0" id="text-entity-RefOrganMetadata-e7045ce5-7dfe-5c38-8288-5e44f2ff027b-attr-5-name" class="er entityLabel">version</text><rect height="21" width="76.8309326171875" y="131" x="0" class="er attributeBoxEven"/><text style="dominant-baseline: middle; font-size: 10.2px;" transform="translate(5,141.5)" y="0" x="0" id="text-entity-RefOrganMetadata-e7045ce5-7dfe-5c38-8288-5e44f2ff027b-attr-6-type" class="er entityLabel">string</text><rect height="21" width="79.65625" y="131" x="76.8309326171875" class="er attributeBoxEven"/><text style="dominant-baseline: middle; font-size: 10.2px;" transform="translate(81.8309326171875,141.5)" y="0" x="0" id="text-entity-RefOrganMetadata-e7045ce5-7dfe-5c38-8288-5e44f2ff027b-attr-6-name" class="er entityLabel">license</text><rect height="21" width="76.8309326171875" y="152" x="0" class="er attributeBoxOdd"/><text style="dominant-baseline: middle; font-size: 10.2px;" transform="translate(5,162.5)" y="0" x="0" id="text-entity-RefOrganMetadata-e7045ce5-7dfe-5c38-8288-5e44f2ff027b-attr-7-type" class="er entityLabel">string</text><rect height="21" width="79.65625" y="152" x="76.8309326171875" class="er attributeBoxOdd"/><text style="dominant-baseline: middle; font-size: 10.2px;" transform="translate(81.8309326171875,162.5)" y="0" x="0" id="text-entity-RefOrganMetadata-e7045ce5-7dfe-5c38-8288-5e44f2ff027b-attr-7-name" class="er entityLabel">publisher</text><rect height="22" width="76.8309326171875" y="173" x="0" class="er attributeBoxEven"/><text style="dominant-baseline: middle; font-size: 10.2px;" transform="translate(5,184)" y="0" x="0" id="text-entity-RefOrganMetadata-e7045ce5-7dfe-5c38-8288-5e44f2ff027b-attr-8-type" class="er entityLabel">uriorcurie</text><rect height="22" width="79.65625" y="173" x="76.8309326171875" class="er attributeBoxEven"/><text style="dominant-baseline: middle; font-size: 10.2px;" transform="translate(81.8309326171875,184)" y="0" x="0" id="text-entity-RefOrganMetadata-e7045ce5-7dfe-5c38-8288-5e44f2ff027b-attr-8-name" class="er entityLabel">see_also</text><rect height="22" width="76.8309326171875" y="195" x="0" class="er attributeBoxOdd"/><text style="dominant-baseline: middle; font-size: 10.2px;" transform="translate(5,206)" y="0" x="0" id="text-entity-RefOrganMetadata-e7045ce5-7dfe-5c38-8288-5e44f2ff027b-attr-9-type" class="er entityLabel">uriorcurie</text><rect height="22" width="79.65625" y="195" x="76.8309326171875" class="er attributeBoxOdd"/><text style="dominant-baseline: middle; font-size: 10.2px;" transform="translate(81.8309326171875,206)" y="0" x="0" id="text-entity-RefOrganMetadata-e7045ce5-7dfe-5c38-8288-5e44f2ff027b-attr-9-name" class="er entityLabel">derived_from</text></g><rect height="14" width="58.171875" y="96.75588989257812" x="846.532958984375" class="er relationshipLabelBox"/><text style="text-anchor: middle; dominant-baseline: middle; font-size: 12px;" y="103.75588989257812" x="875.618896484375" id="rel1" class="er relationshipLabel">metadata</text><rect height="14" width="27.03125" y="90.68325805664062" x="587.0781860351562" class="er relationshipLabelBox"/><text style="text-anchor: middle; dominant-baseline: middle; font-size: 12px;" y="97.68325805664062" x="600.5938110351562" id="rel2" class="er relationshipLabel">data</text><rect height="14" width="49.25" y="488.5" x="525.8460083007812" class="er relationshipLabelBox"/><text style="text-anchor: middle; dominant-baseline: middle; font-size: 12px;" y="495.5" x="550.4710083007812" id="rel3" class="er relationshipLabel">creators</text><rect height="14" width="106.349609375" y="442.7608947753906" x="304.3891296386719" class="er relationshipLabelBox"/><text style="text-anchor: middle; dominant-baseline: middle; font-size: 12px;" y="449.7608947753906" x="357.5639343261719" id="rel4" class="er relationshipLabel">representation_of</text><rect height="14" width="100.28125" y="400.0277404785156" x="829.6074829101562" class="er relationshipLabelBox"/><text style="text-anchor: middle; dominant-baseline: middle; font-size: 12px;" y="407.0277404785156" x="879.7481079101562" id="rel5" class="er relationshipLabel">object_reference</text><rect height="14" width="69.921875" y="564.4246826171875" x="681.064697265625" class="er relationshipLabelBox"/><text style="text-anchor: middle; dominant-baseline: middle; font-size: 12px;" y="571.4246826171875" x="716.025634765625" id="rel6" class="er relationshipLabel">placements</text><rect height="14" width="97.953125" y="290.0000305175781" x="679.4264526367188" class="er relationshipLabelBox"/><text style="text-anchor: middle; dominant-baseline: middle; font-size: 12px;" y="297.0000305175781" x="728.4030151367188" id="rel7" class="er relationshipLabel">reference_organ</text><rect height="14" width="85.484375" y="404.2053527832031" x="186.40916442871094" class="er relationshipLabelBox"/><text style="text-anchor: middle; dominant-baseline: middle; font-size: 12px;" y="411.2053527832031" x="229.15135192871094" id="rel8" class="er relationshipLabel">extraction_set</text><rect height="14" width="45.1484375" y="755.1315307617188" x="-124.75920867919922" class="er relationshipLabelBox"/><text style="text-anchor: middle; dominant-baseline: middle; font-size: 12px;" y="762.1315307617188" x="-102.18498992919922" id="rel9" class="er relationshipLabel">type_of</text><rect height="14" width="107.755859375" y="418.25042724609375" x="215.04885864257812" class="er relationshipLabelBox"/><text style="text-anchor: middle; dominant-baseline: middle; font-size: 12px;" y="425.25042724609375" x="268.9267883300781" id="rel10" class="er relationshipLabel">extraction_set_for</text><rect height="14" width="45.1484375" y="1038.726806640625" x="54.605979919433594" class="er relationshipLabelBox"/><text style="text-anchor: middle; dominant-baseline: middle; font-size: 12px;" y="1045.726806640625" x="77.1801986694336" id="rel11" class="er relationshipLabel">type_of</text><rect height="14" width="39.859375" y="497.8955383300781" x="873.1565551757812" class="er relationshipLabelBox"/><text style="text-anchor: middle; dominant-baseline: middle; font-size: 12px;" y="504.8955383300781" x="893.0862426757812" id="rel12" class="er relationshipLabel">source</text><rect height="14" width="36.78125" y="507.77386474609375" x="1230.7974853515625" class="er relationshipLabelBox"/><text style="text-anchor: middle; dominant-baseline: middle; font-size: 12px;" y="514.7738647460938" x="1249.1881103515625" id="rel13" class="er relationshipLabel">target</text><rect height="14" width="45.1484375" y="1232.082275390625" x="618.5844116210938" class="er relationshipLabelBox"/><text style="text-anchor: middle; dominant-baseline: middle; font-size: 12px;" y="1239.082275390625" x="641.1586303710938" id="rel14" class="er relationshipLabel">type_of</text><rect height="14" width="63.962890625" y="690.7510375976562" x="867.726318359375" class="er relationshipLabelBox"/><text style="text-anchor: middle; dominant-baseline: middle; font-size: 12px;" y="697.7510375976562" x="899.707763671875" id="rel15" class="er relationshipLabel">placement</text><rect height="14" width="45.1484375" y="1183.957275390625" x="1204.931396484375" class="er relationshipLabelBox"/><text style="text-anchor: middle; dominant-baseline: middle; font-size: 12px;" y="1190.957275390625" x="1227.505615234375" id="rel16" class="er relationshipLabel">type_of</text></svg>