<svg aria-roledescription="er" role="graphics-document document" viewBox="-43.33211326599121 0 447.88812255859375 980" style="max-width: 447.888px; background-color: white;" xmlns:xlink="http://www.w3.org/1999/xlink" xmlns="http://www.w3.org/2000/svg" width="100%" id="my-svg"><style>#my-svg{font-family:"trebuchet ms",verdana,arial,sans-serif;font-size:16px;fill:#333;}#my-svg .error-icon{fill:#552222;}#my-svg .error-text{fill:#552222;stroke:#552222;}#my-svg .edge-thickness-normal{stroke-width:1px;}#my-svg .edge-thickness-thick{stroke-width:3.5px;}#my-svg .edge-pattern-solid{stroke-dasharray:0;}#my-svg .edge-thickness-invisible{stroke-width:0;fill:none;}#my-svg .edge-pattern-dashed{stroke-dasharray:3;}#my-svg .edge-pattern-dotted{stroke-dasharray:2;}#my-svg .marker{fill:#333333;stroke:#333333;}#my-svg .marker.cross{stroke:#333333;}#my-svg svg{font-family:"trebuchet ms",verdana,arial,sans-serif;font-size:16px;}#my-svg p{margin:0;}#my-svg .entityBox{fill:#ECECFF;stroke:#9370DB;}#my-svg .attributeBoxOdd{fill:#ffffff;stroke:#9370DB;}#my-svg .attributeBoxEven{fill:#f2f2f2;stroke:#9370DB;}#my-svg .relationshipLabelBox{fill:hsl(80, 100%, 96.2745098039%);opacity:0.7;background-color:hsl(80, 100%, 96.2745098039%);}#my-svg .relationshipLabelBox rect{opacity:0.5;}#my-svg .relationshipLine{stroke:#333333;}#my-svg .entityTitleText{text-anchor:middle;font-size:18px;fill:#333;}#my-svg #MD_PARENT_START{fill:#f5f5f5!important;stroke:#333333!important;stroke-width:1;}#my-svg #MD_PARENT_END{fill:#f5f5f5!important;stroke:#333333!important;stroke-width:1;}#my-svg :root{--mermaid-font-family:"trebuchet ms",verdana,arial,sans-serif;}</style><g/><defs><marker orient="auto" markerHeight="240" markerWidth="190" refY="7" refX="0" id="MD_PARENT_START"><path d="M 18,7 L9,13 L1,7 L9,1 Z"/></marker></defs><defs><marker orient="auto" markerHeight="28" markerWidth="20" refY="7" refX="19" id="MD_PARENT_END"><path d="M 18,7 L9,13 L1,7 L9,1 Z"/></marker></defs><defs><marker orient="auto" markerHeight="18" markerWidth="18" refY="9" refX="0" id="ONLY_ONE_START"><path d="M9,0 L9,18 M15,0 L15,18" fill="none" stroke="gray"/></marker></defs><defs><marker orient="auto" markerHeight="18" markerWidth="18" refY="9" refX="18" id="ONLY_ONE_END"><path d="M3,0 L3,18 M9,0 L9,18" fill="none" stroke="gray"/></marker></defs><defs><marker orient="auto" markerHeight="18" markerWidth="30" refY="9" refX="0" id="ZERO_OR_ONE_START"><circle r="6" cy="9" cx="21" fill="white" stroke="gray"/><path d="M9,0 L9,18" fill="none" stroke="gray"/></marker></defs><defs><marker orient="auto" markerHeight="18" markerWidth="30" refY="9" refX="30" id="ZERO_OR_ONE_END"><circle r="6" cy="9" cx="9" fill="white" stroke="gray"/><path d="M21,0 L21,18" fill="none" stroke="gray"/></marker></defs><defs><marker orient="auto" markerHeight="36" markerWidth="45" refY="18" refX="18" id="ONE_OR_MORE_START"><path d="M0,18 Q 18,0 36,18 Q 18,36 0,18 M42,9 L42,27" fill="none" stroke="gray"/></marker></defs><defs><marker orient="auto" markerHeight="36" markerWidth="45" refY="18" refX="27" id="ONE_OR_MORE_END"><path d="M3,9 L3,27 M9,18 Q27,0 45,18 Q27,36 9,18" fill="none" stroke="gray"/></marker></defs><defs><marker orient="auto" markerHeight="36" markerWidth="57" refY="18" refX="18" id="ZERO_OR_MORE_START"><circle r="6" cy="18" cx="48" fill="white" stroke="gray"/><path d="M0,18 Q18,0 36,18 Q18,36 0,18" fill="none" stroke="gray"/></marker></defs><defs><marker orient="auto" markerHeight="36" markerWidth="57" refY="18" refX="39" id="ZERO_OR_MORE_END"><circle r="6" cy="18" cx="9" fill="white" stroke="gray"/><path d="M21,18 Q39,0 57,18 Q39,36 21,18" fill="none" stroke="gray"/></marker></defs><path style="stroke: gray; fill: none;" marker-start="url(#ONLY_ONE_START)" marker-end="url(#ZERO_OR_ONE_END)" d="M236.771,65L249.689,73.333C262.607,81.667,288.443,98.333,301.361,115C314.278,131.667,314.278,148.333,314.278,156.667L314.278,165" class="er relationshipLine"/><path style="stroke: gray; fill: none;" marker-start="url(#ONLY_ONE_START)" marker-end="url(#ZERO_OR_ONE_END)" d="M167.014,65L154.096,73.333C141.178,81.667,115.343,98.333,102.425,120.25C89.507,142.167,89.507,169.333,89.507,182.917L89.507,196.5" class="er relationshipLine"/><path style="stroke: gray; fill: none;" marker-start="url(#ONLY_ONE_START)" marker-end="url(#ZERO_OR_MORE_END)" d="M89.507,346.5L89.507,360.083C89.507,373.667,89.507,400.833,89.507,422.75C89.507,444.667,89.507,461.333,89.507,469.667L89.507,478" class="er relationshipLine"/><path style="stroke: gray; fill: none;" marker-start="url(#ONLY_ONE_START)" marker-end="url(#ONE_OR_MORE_END)" d="M132.692,565L140.966,573.333C149.239,581.667,165.785,598.333,174.058,615C182.331,631.667,182.331,648.333,182.331,656.667L182.331,665" class="er relationshipLine"/><path style="stroke: gray; fill: none;" marker-start="url(#ONLY_ONE_START)" marker-end="url(#ZERO_OR_MORE_END)" d="M46.321,565L38.048,573.333C29.775,581.667,13.229,598.333,4.956,625.75C-3.318,653.167,-3.318,691.333,-3.318,729.5C-3.318,767.667,-3.318,805.833,6.002,833.25C15.322,860.667,33.961,877.333,43.281,885.667L52.601,894" class="er relationshipLine"/><path style="stroke: gray; fill: none;" marker-start="url(#ONLY_ONE_START)" marker-end="url(#ZERO_OR_MORE_END)" d="M182.331,794L182.331,802.333C182.331,810.667,182.331,827.333,173.011,844C163.692,860.667,145.052,877.333,135.733,885.667L126.413,894" class="er relationshipLine"/><g transform="translate(151.8926010131836,20 )" id="entity-Container-bc34fb32-8a75-5b81-936b-92374bf40296"><rect height="45" width="100" y="0" x="0" class="er entityBox"/><text style="dominant-baseline: middle; text-anchor: middle; font-size: 12px;" transform="translate(50,12)" y="0" x="0" id="text-entity-Container-bc34fb32-8a75-5b81-936b-92374bf40296" class="er entityLabel">Container</text><rect height="21" width="67.43675231933594" y="24" x="0" class="er attributeBoxOdd"/><text style="dominant-baseline: middle; font-size: 10.2px;" transform="translate(5,34.5)" y="0" x="0" id="text-entity-Container-bc34fb32-8a75-5b81-936b-92374bf40296-attr-1-type" class="er entityLabel">uriorcurie</text><rect height="21" width="32.56324768066406" y="24" x="67.43675231933594" class="er attributeBoxOdd"/><text style="dominant-baseline: middle; font-size: 10.2px;" transform="translate(72.43675231933594,34.5)" y="0" x="0" id="text-entity-Container-bc34fb32-8a75-5b81-936b-92374bf40296-attr-1-name" class="er entityLabel">iri</text></g><g transform="translate(35.01263427734375,196.5 )" id="entity-CollisionData-e070b5c2-3fc7-5ea4-9d87-8dc5bef8fa08"><rect height="150" width="108.98825073242188" y="0" x="0" class="er entityBox"/><text style="dominant-baseline: middle; text-anchor: middle; font-size: 12px;" transform="translate(54.49412536621094,12)" y="0" x="0" id="text-entity-CollisionData-e070b5c2-3fc7-5ea4-9d87-8dc5bef8fa08" class="er entityLabel">CollisionData</text><rect height="21" width="35.245819091796875" y="24" x="0" class="er attributeBoxOdd"/><text style="dominant-baseline: middle; font-size: 10.2px;" transform="translate(5,34.5)" y="0" x="0" id="text-entity-CollisionData-e070b5c2-3fc7-5ea4-9d87-8dc5bef8fa08-attr-1-type" class="er entityLabel">string</text><rect height="21" width="73.742431640625" y="24" x="35.245819091796875" class="er attributeBoxOdd"/><text style="dominant-baseline: middle; font-size: 10.2px;" transform="translate(40.245819091796875,34.5)" y="0" x="0" id="text-entity-CollisionData-e070b5c2-3fc7-5ea4-9d87-8dc5bef8fa08-attr-1-name" class="er entityLabel">donor</text><rect height="21" width="35.245819091796875" y="45" x="0" class="er attributeBoxEven"/><text style="dominant-baseline: middle; font-size: 10.2px;" transform="translate(5,55.5)" y="0" x="0" id="text-entity-CollisionData-e070b5c2-3fc7-5ea4-9d87-8dc5bef8fa08-attr-2-type" class="er entityLabel">string</text><rect height="21" width="73.742431640625" y="45" x="35.245819091796875" class="er attributeBoxEven"/><text style="dominant-baseline: middle; font-size: 10.2px;" transform="translate(40.245819091796875,55.5)" y="0" x="0" id="text-entity-CollisionData-e070b5c2-3fc7-5ea4-9d87-8dc5bef8fa08-attr-2-name" class="er entityLabel">sample</text><rect height="21" width="35.245819091796875" y="66" x="0" class="er attributeBoxOdd"/><text style="dominant-baseline: middle; font-size: 10.2px;" transform="translate(5,76.5)" y="0" x="0" id="text-entity-CollisionData-e070b5c2-3fc7-5ea4-9d87-8dc5bef8fa08-attr-3-type" class="er entityLabel">string</text><rect height="21" width="73.742431640625" y="66" x="35.245819091796875" class="er attributeBoxOdd"/><text style="dominant-baseline: middle; font-size: 10.2px;" transform="translate(40.245819091796875,76.5)" y="0" x="0" id="text-entity-CollisionData-e070b5c2-3fc7-5ea4-9d87-8dc5bef8fa08-attr-3-name" class="er entityLabel">dataset</text><rect height="21" width="35.245819091796875" y="87" x="0" class="er attributeBoxEven"/><text style="dominant-baseline: middle; font-size: 10.2px;" transform="translate(5,97.5)" y="0" x="0" id="text-entity-CollisionData-e070b5c2-3fc7-5ea4-9d87-8dc5bef8fa08-attr-4-type" class="er entityLabel">string</text><rect height="21" width="73.742431640625" y="87" x="35.245819091796875" class="er attributeBoxEven"/><text style="dominant-baseline: middle; font-size: 10.2px;" transform="translate(40.245819091796875,97.5)" y="0" x="0" id="text-entity-CollisionData-e070b5c2-3fc7-5ea4-9d87-8dc5bef8fa08-attr-4-name" class="er entityLabel">spatial_entity</text><rect height="21" width="35.245819091796875" y="108" x="0" class="er attributeBoxOdd"/><text style="dominant-baseline: middle; font-size: 10.2px;" transform="translate(5,118.5)" y="0" x="0" id="text-entity-CollisionData-e070b5c2-3fc7-5ea4-9d87-8dc5bef8fa08-attr-5-type" class="er entityLabel">string</text><rect height="21" width="73.742431640625" y="108" x="35.245819091796875" class="er attributeBoxOdd"/><text style="dominant-baseline: middle; font-size: 10.2px;" transform="translate(40.245819091796875,118.5)" y="0" x="0" id="text-entity-CollisionData-e070b5c2-3fc7-5ea4-9d87-8dc5bef8fa08-attr-5-name" class="er entityLabel">cell_summary</text><rect height="21" width="35.245819091796875" y="129" x="0" class="er attributeBoxEven"/><text style="dominant-baseline: middle; font-size: 10.2px;" transform="translate(5,139.5)" y="0" x="0" id="text-entity-CollisionData-e070b5c2-3fc7-5ea4-9d87-8dc5bef8fa08-attr-6-type" class="er entityLabel">string</text><rect height="21" width="73.742431640625" y="129" x="35.245819091796875" class="er attributeBoxEven"/><text style="dominant-baseline: middle; font-size: 10.2px;" transform="translate(40.245819091796875,139.5)" y="0" x="0" id="text-entity-CollisionData-e070b5c2-3fc7-5ea4-9d87-8dc5bef8fa08-attr-6-name" class="er entityLabel">corridor</text></g><g transform="translate(20,478 )" id="entity-CollisionSummary-007ff99f-bcd8-55d2-b030-cf6c36577bce"><rect height="87" width="139.01351928710938" y="0" x="0" class="er entityBox"/><text style="dominant-baseline: middle; text-anchor: middle; font-size: 12px;" transform="translate(69.50675964355469,12)" y="0" x="0" id="text-entity-CollisionSummary-007ff99f-bcd8-55d2-b030-cf6c36577bce" class="er entityLabel">CollisionSummary</text><rect height="21" width="52.795379638671875" y="24" x="0" class="er attributeBoxOdd"/><text style="dominant-baseline: middle; font-size: 10.2px;" transform="translate(5,34.5)" y="0" x="0" id="text-entity-CollisionSummary-007ff99f-bcd8-55d2-b030-cf6c36577bce-attr-1-type" class="er entityLabel">string</text><rect height="21" width="86.2181396484375" y="24" x="52.795379638671875" class="er attributeBoxOdd"/><text style="dominant-baseline: middle; font-size: 10.2px;" transform="translate(57.795379638671875,34.5)" y="0" x="0" id="text-entity-CollisionSummary-007ff99f-bcd8-55d2-b030-cf6c36577bce-attr-1-name" class="er entityLabel">collision_method</text><rect height="21" width="52.795379638671875" y="45" x="0" class="er attributeBoxEven"/><text style="dominant-baseline: middle; font-size: 10.2px;" transform="translate(5,55.5)" y="0" x="0" id="text-entity-CollisionSummary-007ff99f-bcd8-55d2-b030-cf6c36577bce-attr-2-type" class="er entityLabel">uriorcurie</text><rect height="21" width="86.2181396484375" y="45" x="52.795379638671875" class="er attributeBoxEven"/><text style="dominant-baseline: middle; font-size: 10.2px;" transform="translate(57.795379638671875,55.5)" y="0" x="0" id="text-entity-CollisionSummary-007ff99f-bcd8-55d2-b030-cf6c36577bce-attr-2-name" class="er entityLabel">id</text><rect height="21" width="52.795379638671875" y="66" x="0" class="er attributeBoxOdd"/><text style="dominant-baseline: middle; font-size: 10.2px;" transform="translate(5,76.5)" y="0" x="0" id="text-entity-CollisionSummary-007ff99f-bcd8-55d2-b030-cf6c36577bce-attr-3-type" class="er entityLabel">string</text><rect height="21" width="86.2181396484375" y="66" x="52.795379638671875" class="er attributeBoxOdd"/><text style="dominant-baseline: middle; font-size: 10.2px;" transform="translate(57.795379638671875,76.5)" y="0" x="0" id="text-entity-CollisionSummary-007ff99f-bcd8-55d2-b030-cf6c36577bce-attr-3-name" class="er entityLabel">label</text></g><g transform="translate(39.50675964355469,894 )" id="entity-Named-527792da-945b-57c2-aece-6a504f46f916"><rect height="66" width="100" y="0" x="0" class="er entityBox"/><text style="dominant-baseline: middle; text-anchor: middle; font-size: 12px;" transform="translate(50,12)" y="0" x="0" id="text-entity-Named-527792da-945b-57c2-aece-6a504f46f916" class="er entityLabel">Named</text><rect height="21" width="60.63206481933594" y="24" x="0" class="er attributeBoxOdd"/><text style="dominant-baseline: middle; font-size: 10.2px;" transform="translate(5,34.5)" y="0" x="0" id="text-entity-Named-527792da-945b-57c2-aece-6a504f46f916-attr-1-type" class="er entityLabel">uriorcurie</text><rect height="21" width="39.36793518066406" y="24" x="60.63206481933594" class="er attributeBoxOdd"/><text style="dominant-baseline: middle; font-size: 10.2px;" transform="translate(65.63206481933594,34.5)" y="0" x="0" id="text-entity-Named-527792da-945b-57c2-aece-6a504f46f916-attr-1-name" class="er entityLabel">id</text><rect height="21" width="60.63206481933594" y="45" x="0" class="er attributeBoxEven"/><text style="dominant-baseline: middle; font-size: 10.2px;" transform="translate(5,55.5)" y="0" x="0" id="text-entity-Named-527792da-945b-57c2-aece-6a504f46f916-attr-2-type" class="er entityLabel">string</text><rect height="21" width="39.36793518066406" y="45" x="60.63206481933594" class="er attributeBoxEven"/><text style="dominant-baseline: middle; font-size: 10.2px;" transform="translate(65.63206481933594,55.5)" y="0" x="0" id="text-entity-Named-527792da-945b-57c2-aece-6a504f46f916-attr-2-name" class="er entityLabel">label</text></g><g transform="translate(96.6824722290039,665 )" id="entity-CollisionItem-f4ad6f77-f333-5bb1-be13-50ddcb433810"><rect height="129" width="171.29714965820312" y="0" x="0" class="er entityBox"/><text style="dominant-baseline: middle; text-anchor: middle; font-size: 12px;" transform="translate(85.64857482910156,12)" y="0" x="0" id="text-entity-CollisionItem-f4ad6f77-f333-5bb1-be13-50ddcb433810" class="er entityLabel">CollisionItem</text><rect height="21" width="52.795379638671875" y="24" x="0" class="er attributeBoxOdd"/><text style="dominant-baseline: middle; font-size: 10.2px;" transform="translate(5,34.5)" y="0" x="0" id="text-entity-CollisionItem-f4ad6f77-f333-5bb1-be13-50ddcb433810-attr-1-type" class="er entityLabel">uriorcurie</text><rect height="21" width="118.50177001953125" y="24" x="52.795379638671875" class="er attributeBoxOdd"/><text style="dominant-baseline: middle; font-size: 10.2px;" transform="translate(57.795379638671875,34.5)" y="0" x="0" id="text-entity-CollisionItem-f4ad6f77-f333-5bb1-be13-50ddcb433810-attr-1-name" class="er entityLabel">spatial_entity_reference</text><rect height="21" width="52.795379638671875" y="45" x="0" class="er attributeBoxEven"/><text style="dominant-baseline: middle; font-size: 10.2px;" transform="translate(5,55.5)" y="0" x="0" id="text-entity-CollisionItem-f4ad6f77-f333-5bb1-be13-50ddcb433810-attr-2-type" class="er entityLabel">float</text><rect height="21" width="118.50177001953125" y="45" x="52.795379638671875" class="er attributeBoxEven"/><text style="dominant-baseline: middle; font-size: 10.2px;" transform="translate(57.795379638671875,55.5)" y="0" x="0" id="text-entity-CollisionItem-f4ad6f77-f333-5bb1-be13-50ddcb433810-attr-2-name" class="er entityLabel">volume</text><rect height="21" width="52.795379638671875" y="66" x="0" class="er attributeBoxOdd"/><text style="dominant-baseline: middle; font-size: 10.2px;" transform="translate(5,76.5)" y="0" x="0" id="text-entity-CollisionItem-f4ad6f77-f333-5bb1-be13-50ddcb433810-attr-3-type" class="er entityLabel">float</text><rect height="21" width="118.50177001953125" y="66" x="52.795379638671875" class="er attributeBoxOdd"/><text style="dominant-baseline: middle; font-size: 10.2px;" transform="translate(57.795379638671875,76.5)" y="0" x="0" id="text-entity-CollisionItem-f4ad6f77-f333-5bb1-be13-50ddcb433810-attr-3-name" class="er entityLabel">percentage</text><rect height="21" width="52.795379638671875" y="87" x="0" class="er attributeBoxEven"/><text style="dominant-baseline: middle; font-size: 10.2px;" transform="translate(5,97.5)" y="0" x="0" id="text-entity-CollisionItem-f4ad6f77-f333-5bb1-be13-50ddcb433810-attr-4-type" class="er entityLabel">uriorcurie</text><rect height="21" width="118.50177001953125" y="87" x="52.795379638671875" class="er attributeBoxEven"/><text style="dominant-baseline: middle; font-size: 10.2px;" transform="translate(57.795379638671875,97.5)" y="0" x="0" id="text-entity-CollisionItem-f4ad6f77-f333-5bb1-be13-50ddcb433810-attr-4-name" class="er entityLabel">id</text><rect height="21" width="52.795379638671875" y="108" x="0" class="er attributeBoxOdd"/><text style="dominant-baseline: middle; font-size: 10.2px;" transform="translate(5,118.5)" y="0" x="0" id="text-entity-CollisionItem-f4ad6f77-f333-5bb1-be13-50ddcb433810-attr-5-type" class="er entityLabel">string</text><rect height="21" width="118.50177001953125" y="108" x="52.795379638671875" class="er attributeBoxOdd"/><text style="dominant-baseline: middle; font-size: 10.2px;" transform="translate(57.795379638671875,118.5)" y="0" x="0" id="text-entity-CollisionItem-f4ad6f77-f333-5bb1-be13-50ddcb433810-attr-5-name" class="er entityLabel">label</text></g><g transform="translate(244.00088500976562,165 )" id="entity-CollisionMetadata-d90580f9-2b30-53f3-a639-3e29e8b1cfe1"><rect height="213" width="140.55511474609375" y="0" x="0" class="er entityBox"/><text style="dominant-baseline: middle; text-anchor: middle; font-size: 12px;" transform="translate(70.27755737304688,12)" y="0" x="0" id="text-entity-CollisionMetadata-d90580f9-2b30-53f3-a639-3e29e8b1cfe1" class="er entityLabel">CollisionMetadata</text><rect height="21" width="68.48406982421875" y="24" x="0" class="er attributeBoxOdd"/><text style="dominant-baseline: middle; font-size: 10.2px;" transform="translate(5,34.5)" y="0" x="0" id="text-entity-CollisionMetadata-d90580f9-2b30-53f3-a639-3e29e8b1cfe1-attr-1-type" class="er entityLabel">string</text><rect height="21" width="72.071044921875" y="24" x="68.48406982421875" class="er attributeBoxOdd"/><text style="dominant-baseline: middle; font-size: 10.2px;" transform="translate(73.48406982421875,34.5)" y="0" x="0" id="text-entity-CollisionMetadata-d90580f9-2b30-53f3-a639-3e29e8b1cfe1-attr-1-name" class="er entityLabel">title</text><rect height="21" width="68.48406982421875" y="45" x="0" class="er attributeBoxEven"/><text style="dominant-baseline: middle; font-size: 10.2px;" transform="translate(5,55.5)" y="0" x="0" id="text-entity-CollisionMetadata-d90580f9-2b30-53f3-a639-3e29e8b1cfe1-attr-2-type" class="er entityLabel">string</text><rect height="21" width="72.071044921875" y="45" x="68.48406982421875" class="er attributeBoxEven"/><text style="dominant-baseline: middle; font-size: 10.2px;" transform="translate(73.48406982421875,55.5)" y="0" x="0" id="text-entity-CollisionMetadata-d90580f9-2b30-53f3-a639-3e29e8b1cfe1-attr-2-name" class="er entityLabel">description</text><rect height="21" width="68.48406982421875" y="66" x="0" class="er attributeBoxOdd"/><text style="dominant-baseline: middle; font-size: 10.2px;" transform="translate(5,76.5)" y="0" x="0" id="text-entity-CollisionMetadata-d90580f9-2b30-53f3-a639-3e29e8b1cfe1-attr-3-type" class="er entityLabel">uriorcurieList</text><rect height="21" width="72.071044921875" y="66" x="68.48406982421875" class="er attributeBoxOdd"/><text style="dominant-baseline: middle; font-size: 10.2px;" transform="translate(73.48406982421875,76.5)" y="0" x="0" id="text-entity-CollisionMetadata-d90580f9-2b30-53f3-a639-3e29e8b1cfe1-attr-3-name" class="er entityLabel">created_by</text><rect height="21" width="68.48406982421875" y="87" x="0" class="er attributeBoxEven"/><text style="dominant-baseline: middle; font-size: 10.2px;" transform="translate(5,97.5)" y="0" x="0" id="text-entity-CollisionMetadata-d90580f9-2b30-53f3-a639-3e29e8b1cfe1-attr-4-type" class="er entityLabel">string</text><rect height="21" width="72.071044921875" y="87" x="68.48406982421875" class="er attributeBoxEven"/><text style="dominant-baseline: middle; font-size: 10.2px;" transform="translate(73.48406982421875,97.5)" y="0" x="0" id="text-entity-CollisionMetadata-d90580f9-2b30-53f3-a639-3e29e8b1cfe1-attr-4-name" class="er entityLabel">creation_date</text><rect height="21" width="68.48406982421875" y="108" x="0" class="er attributeBoxOdd"/><text style="dominant-baseline: middle; font-size: 10.2px;" transform="translate(5,118.5)" y="0" x="0" id="text-entity-CollisionMetadata-d90580f9-2b30-53f3-a639-3e29e8b1cfe1-attr-5-type" class="er entityLabel">string</text><rect height="21" width="72.071044921875" y="108" x="68.48406982421875" class="er attributeBoxOdd"/><text style="dominant-baseline: middle; font-size: 10.2px;" transform="translate(73.48406982421875,118.5)" y="0" x="0" id="text-entity-CollisionMetadata-d90580f9-2b30-53f3-a639-3e29e8b1cfe1-attr-5-name" class="er entityLabel">version</text><rect height="21" width="68.48406982421875" y="129" x="0" class="er attributeBoxEven"/><text style="dominant-baseline: middle; font-size: 10.2px;" transform="translate(5,139.5)" y="0" x="0" id="text-entity-CollisionMetadata-d90580f9-2b30-53f3-a639-3e29e8b1cfe1-attr-6-type" class="er entityLabel">string</text><rect height="21" width="72.071044921875" y="129" x="68.48406982421875" class="er attributeBoxEven"/><text style="dominant-baseline: middle; font-size: 10.2px;" transform="translate(73.48406982421875,139.5)" y="0" x="0" id="text-entity-CollisionMetadata-d90580f9-2b30-53f3-a639-3e29e8b1cfe1-attr-6-name" class="er entityLabel">license</text><rect height="21" width="68.48406982421875" y="150" x="0" class="er attributeBoxOdd"/><text style="dominant-baseline: middle; font-size: 10.2px;" transform="translate(5,160.5)" y="0" x="0" id="text-entity-CollisionMetadata-d90580f9-2b30-53f3-a639-3e29e8b1cfe1-attr-7-type" class="er entityLabel">string</text><rect height="21" width="72.071044921875" y="150" x="68.48406982421875" class="er attributeBoxOdd"/><text style="dominant-baseline: middle; font-size: 10.2px;" transform="translate(73.48406982421875,160.5)" y="0" x="0" id="text-entity-CollisionMetadata-d90580f9-2b30-53f3-a639-3e29e8b1cfe1-attr-7-name" class="er entityLabel">publisher</text><rect height="21" width="68.48406982421875" y="171" x="0" class="er attributeBoxEven"/><text style="dominant-baseline: middle; font-size: 10.2px;" transform="translate(5,181.5)" y="0" x="0" id="text-entity-CollisionMetadata-d90580f9-2b30-53f3-a639-3e29e8b1cfe1-attr-8-type" class="er entityLabel">uriorcurie</text><rect height="21" width="72.071044921875" y="171" x="68.48406982421875" class="er attributeBoxEven"/><text style="dominant-baseline: middle; font-size: 10.2px;" transform="translate(73.48406982421875,181.5)" y="0" x="0" id="text-entity-CollisionMetadata-d90580f9-2b30-53f3-a639-3e29e8b1cfe1-attr-8-name" class="er entityLabel">see_also</text><rect height="21" width="68.48406982421875" y="192" x="0" class="er attributeBoxOdd"/><text style="dominant-baseline: middle; font-size: 10.2px;" transform="translate(5,202.5)" y="0" x="0" id="text-entity-CollisionMetadata-d90580f9-2b30-53f3-a639-3e29e8b1cfe1-attr-9-type" class="er entityLabel">uriorcurie</text><rect height="21" width="72.071044921875" y="192" x="68.48406982421875" class="er attributeBoxOdd"/><text style="dominant-baseline: middle; font-size: 10.2px;" transform="translate(73.48406982421875,202.5)" y="0" x="0" id="text-entity-CollisionMetadata-d90580f9-2b30-53f3-a639-3e29e8b1cfe1-attr-9-name" class="er entityLabel">derived_from</text></g><rect height="14" width="50.359375" y="97.30604553222656" x="266.28582763671875" class="er relationshipLabelBox"/><text style="text-anchor: middle; dominant-baseline: middle; font-size: 12px;" y="104.30604553222656" x="291.46551513671875" id="rel1" class="er relationshipLabel">metadata</text><rect height="14" width="23.681640625" y="110.0994644165039" x="92.55147552490234" class="er relationshipLabelBox"/><text style="text-anchor: middle; dominant-baseline: middle; font-size: 12px;" y="117.0994644165039" x="104.39229583740234" id="rel2" class="er relationshipLabel">data</text><rect height="14" width="42.6875" y="405.25" x="68.16325378417969" class="er relationshipLabelBox"/><text style="text-anchor: middle; dominant-baseline: middle; font-size: 12px;" y="412.25" x="89.50700378417969" id="rel3" class="er relationshipLabel">collision</text><rect height="14" width="78.03125" y="601.9005737304688" x="131.66600036621094" class="er relationshipLabelBox"/><text style="text-anchor: middle; dominant-baseline: middle; font-size: 12px;" y="608.9005737304688" x="170.68162536621094" id="rel4" class="er relationshipLabel">collision_items</text><rect height="14" width="40.029296875" y="724.1826171875" x="-23.332113027572632" class="er relationshipLabelBox"/><text style="text-anchor: middle; dominant-baseline: middle; font-size: 12px;" y="731.1826171875" x="-3.317464590072632" id="rel5" class="er relationshipLabel">type_of</text><rect height="14" width="40.029296875" y="844.2205200195312" x="148.4141387939453" class="er relationshipLabelBox"/><text style="text-anchor: middle; dominant-baseline: middle; font-size: 12px;" y="851.2205200195312" x="168.4287872314453" id="rel6" class="er relationshipLabel">type_of</text></svg>